<svg width="1280" height="721" viewBox="0 0 1280 721" fill="none" xmlns="http://www.w3.org/2000/svg">
<rect width="1280" height="721" fill="url(#paint0_linear_117_11)"/>
<rect width="1280" height="721" fill="black" fill-opacity="0.2"/>
<rect width="1280" height="721" fill="black" fill-opacity="0.2"/>
<rect width="1280" height="721" fill="black" fill-opacity="0.2"/>
<path d="M179.888 327.568C177.712 327.568 176.197 327.12 175.344 326.224C174.491 325.328 174.064 324.176 174.064 322.768C174.064 321.531 174.299 320.059 174.768 318.352C175.28 316.603 175.792 314.939 176.304 313.36C177.243 310.672 178.245 307.877 179.312 304.976C180.421 302.075 181.531 299.195 182.64 296.336C183.792 293.477 184.923 290.725 186.032 288.08C187.141 285.435 188.187 283.024 189.168 280.848C186.267 280.891 183.771 280.976 181.68 281.104C179.632 281.189 177.755 281.317 176.048 281.488C174.384 281.659 172.613 281.915 170.736 282.256C170.907 280.592 171.696 279.312 173.104 278.416C174.555 277.477 176.496 276.837 178.928 276.496C181.36 276.112 184.112 275.92 187.184 275.92C189.317 275.92 191.259 275.984 193.008 276.112C194.757 276.24 196.421 276.389 198 276.56C199.621 276.688 201.2 276.795 202.736 276.88C204.016 277.52 204.848 277.925 205.232 278.096C205.659 278.267 205.744 278.352 205.488 278.352C204.507 279.12 203.269 279.696 201.776 280.08C200.325 280.421 198.811 280.635 197.232 280.72C195.653 280.805 194.139 280.848 192.688 280.848C190.896 285.328 189.125 290.235 187.376 295.568C185.669 300.901 184.027 306.427 182.448 312.144C181.893 314.277 181.403 316.133 180.976 317.712C180.592 319.248 180.293 320.656 180.08 321.936C179.867 323.216 179.76 324.517 179.76 325.84C179.76 326.053 179.76 326.288 179.76 326.544C179.803 326.843 179.845 327.184 179.888 327.568ZM199.569 324.432C198.673 324.432 198.012 323.707 197.585 322.256C197.158 320.848 196.945 319.227 196.945 317.392C196.945 315.387 197.286 312.997 197.969 310.224C198.652 307.451 199.548 304.528 200.657 301.456C201.766 298.341 203.004 295.312 204.369 292.368C205.777 289.381 207.206 286.693 208.657 284.304C210.15 281.872 211.558 279.931 212.881 278.48C214.204 277.029 215.356 276.304 216.337 276.304C217.19 276.304 217.83 276.795 218.257 277.776C218.684 278.715 218.897 279.675 218.897 280.656C218.897 281.851 218.62 283.301 218.065 285.008C217.553 286.672 216.828 288.464 215.889 290.384C214.95 292.304 213.841 294.203 212.561 296.08C211.324 297.957 209.98 299.664 208.529 301.2C207.078 302.736 205.564 303.973 203.985 304.912C203.473 306.277 203.046 307.643 202.705 309.008C202.364 310.331 202.108 311.611 201.937 312.848C201.809 314.085 201.745 315.259 201.745 316.368C201.745 316.667 201.745 316.965 201.745 317.264C201.788 317.52 201.83 317.755 201.873 317.968C202.172 317.2 202.556 316.197 203.025 314.96C203.537 313.68 204.134 312.336 204.817 310.928C205.542 309.52 206.374 308.176 207.313 306.896C208.294 305.616 209.404 304.592 210.641 303.824C211.878 303.013 213.244 302.608 214.737 302.608C216.102 302.608 217.169 302.928 217.937 303.568C218.748 304.165 219.302 304.933 219.601 305.872C219.942 306.811 220.113 307.771 220.113 308.752C220.113 310.075 219.878 311.355 219.409 312.592C218.982 313.787 218.534 314.939 218.065 316.048C217.638 317.115 217.425 318.139 217.425 319.12C217.425 319.888 217.596 320.443 217.937 320.784C218.278 321.125 218.705 321.296 219.217 321.296C220.156 321.296 221.244 320.827 222.481 319.888C223.761 318.949 224.998 317.712 226.193 316.176C227.43 314.597 228.497 312.869 229.393 310.992L230.353 311.952C229.414 314.085 228.284 316.027 226.961 317.776C225.638 319.525 224.188 320.933 222.609 322C221.073 323.024 219.43 323.536 217.681 323.536C216.102 323.536 214.908 323.109 214.097 322.256C213.286 321.445 212.881 320.421 212.881 319.184C212.881 318.288 213.03 317.307 213.329 316.24C213.67 315.131 213.99 314.021 214.289 312.912C214.588 311.76 214.737 310.715 214.737 309.776C214.737 308.752 214.502 308.027 214.033 307.6C213.606 307.173 213.073 306.96 212.433 306.96C211.366 306.96 210.406 307.387 209.553 308.24C208.7 309.093 207.91 310.181 207.185 311.504C206.502 312.827 205.862 314.235 205.265 315.728C204.668 317.179 204.07 318.587 203.473 319.952C202.918 321.275 202.321 322.341 201.681 323.152C201.041 324.005 200.337 324.432 199.569 324.432ZM205.201 301.328C206.31 300.347 207.398 299.173 208.465 297.808C209.532 296.4 210.513 294.928 211.409 293.392C212.348 291.856 213.158 290.363 213.841 288.912C214.524 287.461 215.057 286.16 215.441 285.008C215.868 283.856 216.102 282.96 216.145 282.32C216.145 282.235 216.124 282.171 216.081 282.128C216.081 282.085 216.06 282.064 216.017 282.064C215.761 282.064 215.206 282.619 214.353 283.728C213.5 284.795 212.497 286.245 211.345 288.08C210.236 289.915 209.126 291.984 208.017 294.288C206.908 296.592 205.969 298.939 205.201 301.328ZM235.107 324.816C232.419 324.816 230.371 324.091 228.963 322.64C227.555 321.189 226.851 319.376 226.851 317.2C226.851 315.28 227.32 313.275 228.259 311.184C229.24 309.051 230.542 307.067 232.163 305.232C233.784 303.355 235.555 301.84 237.475 300.688C239.438 299.493 241.379 298.896 243.299 298.896C244.366 298.896 245.368 299.173 246.307 299.728C247.288 300.283 247.779 301.392 247.779 303.056C247.779 304.677 247.288 306.213 246.307 307.664C245.368 309.072 244.11 310.331 242.531 311.44C240.995 312.549 239.267 313.467 237.347 314.192C235.47 314.875 233.592 315.301 231.715 315.472C231.672 315.728 231.63 315.984 231.587 316.24C231.544 316.496 231.523 316.837 231.523 317.264C231.523 317.605 231.566 318.075 231.651 318.672C231.779 319.227 231.992 319.803 232.291 320.4C232.632 320.955 233.144 321.424 233.827 321.808C234.51 322.192 235.406 322.384 236.515 322.384C238.307 322.384 240.099 321.872 241.891 320.848C243.726 319.824 245.432 318.48 247.011 316.816C248.59 315.109 249.912 313.232 250.979 311.184L252.067 312.08C250.915 314.64 249.443 316.88 247.651 318.8C245.859 320.677 243.875 322.149 241.699 323.216C239.566 324.283 237.368 324.816 235.107 324.816ZM232.291 313.488C233.4 313.275 234.659 312.848 236.067 312.208C237.475 311.525 238.819 310.693 240.099 309.712C241.379 308.688 242.424 307.579 243.235 306.384C244.088 305.189 244.515 303.973 244.515 302.736C244.515 302.267 244.43 301.925 244.259 301.712C244.088 301.499 243.79 301.392 243.363 301.392C242.339 301.392 241.272 301.776 240.163 302.544C239.096 303.269 238.03 304.229 236.963 305.424C235.939 306.576 235.022 307.877 234.211 309.328C233.4 310.736 232.76 312.123 232.291 313.488ZM272.973 327.568C271.736 327.568 270.584 327.227 269.517 326.544C268.493 325.904 267.981 325.072 267.981 324.048C267.981 323.536 268.066 322.96 268.237 322.32C268.45 321.68 268.642 321.083 268.813 320.528C270.136 316.432 271.373 312.613 272.525 309.072C273.72 305.488 274.893 302.053 276.045 298.768C277.24 295.44 278.498 292.112 279.821 288.784C281.144 285.456 282.616 281.979 284.237 278.352C282.616 278.651 281.208 279.077 280.013 279.632C278.861 280.187 277.901 280.677 277.133 281.104C276.408 281.531 275.896 281.744 275.597 281.744C275.384 281.744 275.085 281.616 274.701 281.36C274.317 281.061 273.976 280.741 273.677 280.4C273.421 280.059 273.293 279.76 273.293 279.504C274.445 278.992 275.81 278.459 277.389 277.904C278.968 277.349 280.674 276.88 282.509 276.496C284.344 276.112 286.178 275.92 288.013 275.92C289.976 275.92 291.981 276.197 294.029 276.752C296.077 277.264 297.954 278.053 299.661 279.12C301.368 280.144 302.754 281.424 303.821 282.96C304.888 284.496 305.421 286.309 305.421 288.4C305.421 290.661 304.909 292.603 303.885 294.224C302.861 295.803 301.517 297.147 299.853 298.256C298.189 299.365 296.397 300.261 294.477 300.944C292.557 301.627 290.637 302.139 288.717 302.48C286.797 302.821 285.069 303.056 283.533 303.184C282.04 303.312 280.93 303.376 280.205 303.376H279.757C278.52 307.643 277.325 311.888 276.173 316.112C275.021 320.336 273.954 324.155 272.973 327.568ZM280.205 301.712C282.594 301.541 284.984 301.136 287.373 300.496C289.762 299.856 291.938 298.96 293.901 297.808C295.864 296.656 297.442 295.205 298.637 293.456C299.832 291.707 300.429 289.68 300.429 287.376C300.429 285.157 299.874 283.365 298.765 282C297.656 280.635 296.205 279.611 294.413 278.928C292.664 278.245 290.786 277.883 288.781 277.84C287.245 280.869 285.752 284.475 284.301 288.656C282.893 292.837 281.528 297.189 280.205 301.712ZM305.045 324.816C302.357 324.816 300.309 324.091 298.901 322.64C297.492 321.189 296.788 319.376 296.788 317.2C296.788 315.28 297.258 313.275 298.197 311.184C299.178 309.051 300.479 307.067 302.101 305.232C303.722 303.355 305.493 301.84 307.413 300.688C309.375 299.493 311.317 298.896 313.237 298.896C314.303 298.896 315.306 299.173 316.245 299.728C317.226 300.283 317.717 301.392 317.717 303.056C317.717 304.677 317.226 306.213 316.245 307.664C315.306 309.072 314.047 310.331 312.469 311.44C310.933 312.549 309.205 313.467 307.285 314.192C305.407 314.875 303.53 315.301 301.653 315.472C301.61 315.728 301.567 315.984 301.525 316.24C301.482 316.496 301.461 316.837 301.461 317.264C301.461 317.605 301.503 318.075 301.589 318.672C301.717 319.227 301.93 319.803 302.229 320.4C302.57 320.955 303.082 321.424 303.765 321.808C304.447 322.192 305.343 322.384 306.453 322.384C308.245 322.384 310.037 321.872 311.829 320.848C313.663 319.824 315.37 318.48 316.949 316.816C318.527 315.109 319.85 313.232 320.917 311.184L322.005 312.08C320.853 314.64 319.381 316.88 317.589 318.8C315.797 320.677 313.813 322.149 311.637 323.216C309.503 324.283 307.306 324.816 305.045 324.816ZM302.229 313.488C303.338 313.275 304.597 312.848 306.005 312.208C307.413 311.525 308.757 310.693 310.037 309.712C311.317 308.688 312.362 307.579 313.173 306.384C314.026 305.189 314.453 303.973 314.453 302.736C314.453 302.267 314.367 301.925 314.197 301.712C314.026 301.499 313.727 301.392 313.301 301.392C312.277 301.392 311.21 301.776 310.101 302.544C309.034 303.269 307.967 304.229 306.901 305.424C305.877 306.576 304.959 307.877 304.149 309.328C303.338 310.736 302.698 312.123 302.229 313.488ZM331.022 323.664C329.486 323.664 328.248 323.259 327.31 322.448C326.371 321.637 325.902 320.549 325.902 319.184C325.902 317.989 326.2 316.709 326.798 315.344C327.395 313.936 327.992 312.571 328.59 311.248C329.23 309.883 329.55 308.667 329.55 307.6C329.55 306.491 329.187 305.616 328.462 304.976C327.779 304.293 327.032 303.717 326.222 303.248C325.24 305.68 324.174 308.005 323.022 310.224C321.912 312.443 320.995 314.149 320.27 315.344L319.438 313.744C320.035 312.635 320.824 311.056 321.806 309.008C322.787 306.917 323.726 304.571 324.622 301.968C324.195 301.541 323.982 300.987 323.982 300.304C323.982 299.152 324.323 298.107 325.006 297.168C325.731 296.229 326.371 295.76 326.926 295.76C327.395 295.76 327.715 296.037 327.885 296.592C328.099 297.104 328.206 297.467 328.206 297.68C328.206 297.893 328.099 298.299 327.885 298.896C327.672 299.451 327.544 299.835 327.502 300.048C327.502 300.56 327.843 301.051 328.526 301.52C329.251 301.947 330.04 302.48 330.894 303.12C331.79 303.717 332.579 304.464 333.262 305.36C333.944 306.213 334.286 307.323 334.286 308.688C334.286 309.968 334.008 311.248 333.454 312.528C332.899 313.808 332.344 315.024 331.79 316.176C331.235 317.328 330.958 318.309 330.958 319.12C330.958 319.803 331.128 320.251 331.47 320.464C331.811 320.677 332.216 320.784 332.686 320.784C333.71 320.784 334.776 320.464 335.885 319.824C336.995 319.184 338.062 318.373 339.086 317.392C340.152 316.411 341.091 315.387 341.902 314.32C342.712 313.211 343.331 312.208 343.758 311.312L345.038 312.272C344.227 314.107 343.075 315.899 341.582 317.648C340.088 319.397 338.424 320.848 336.59 322C334.755 323.109 332.899 323.664 331.022 323.664ZM342.055 339.92C341.586 339.92 341.052 339.771 340.455 339.472C339.815 339.173 339.26 338.597 338.791 337.744C338.322 336.891 338.087 335.632 338.087 333.968C338.087 332.091 338.407 329.659 339.047 326.672C339.687 323.728 340.562 320.443 341.671 316.816C342.738 313.189 343.996 309.477 345.447 305.68C346.94 301.883 348.519 298.213 350.183 294.672C351.89 291.131 353.639 287.952 355.431 285.136C357.223 282.32 358.994 280.08 360.743 278.416C362.535 276.752 364.242 275.92 365.863 275.92C366.887 275.92 367.548 276.24 367.847 276.88C368.188 277.477 368.359 278.203 368.359 279.056C368.359 280.891 367.847 282.896 366.823 285.072C365.842 287.248 364.519 289.445 362.855 291.664C361.191 293.84 359.335 295.909 357.287 297.872C355.239 299.835 353.148 301.52 351.015 302.928C350.844 303.397 350.652 303.867 350.439 304.336C350.268 304.763 350.098 305.211 349.927 305.68C350.396 305.851 350.759 306.149 351.015 306.576C351.314 306.96 351.484 307.387 351.527 307.856C351.868 309.733 352.21 311.397 352.551 312.848C352.892 314.299 353.404 315.451 354.087 316.304C354.812 317.115 355.836 317.52 357.159 317.52C358.652 317.52 359.954 316.965 361.063 315.856C362.172 314.747 363.324 313.189 364.519 311.184L365.735 312.08C364.498 314.768 363.026 316.731 361.319 317.968C359.655 319.163 358.162 319.76 356.839 319.76C356.071 319.76 355.282 319.611 354.471 319.312C353.703 318.971 352.956 318.501 352.231 317.904C352.188 320.592 351.868 323.237 351.271 325.84C350.716 328.443 349.948 330.789 348.967 332.88C348.028 335.013 346.962 336.72 345.767 338C344.572 339.28 343.335 339.92 342.055 339.92ZM343.783 336.272C344.252 336.272 344.764 335.845 345.319 334.992C345.874 334.181 346.407 333.093 346.919 331.728C347.474 330.405 347.964 328.933 348.391 327.312C348.86 325.691 349.223 324.069 349.479 322.448C349.778 320.869 349.927 319.44 349.927 318.16C349.927 316.88 349.778 315.749 349.479 314.768C349.18 313.744 348.668 312.592 347.943 311.312C346.919 314.341 346.002 317.264 345.191 320.08C344.423 322.896 343.804 325.435 343.335 327.696C342.908 330 342.695 331.899 342.695 333.392C342.695 335.312 343.058 336.272 343.783 336.272ZM352.551 299.088C355.239 296.613 357.522 294.181 359.399 291.792C361.319 289.36 362.77 287.227 363.751 285.392C364.775 283.515 365.287 282.192 365.287 281.424C365.287 280.997 365.074 280.784 364.647 280.784C363.623 280.784 362.428 281.616 361.063 283.28C359.698 284.901 358.29 287.099 356.839 289.872C355.388 292.645 353.959 295.717 352.551 299.088ZM370.357 324.816C367.669 324.816 365.621 324.091 364.213 322.64C362.805 321.189 362.101 319.376 362.101 317.2C362.101 315.28 362.57 313.275 363.509 311.184C364.49 309.051 365.792 307.067 367.413 305.232C369.034 303.355 370.805 301.84 372.725 300.688C374.688 299.493 376.629 298.896 378.549 298.896C379.616 298.896 380.618 299.173 381.557 299.728C382.538 300.283 383.029 301.392 383.029 303.056C383.029 304.677 382.538 306.213 381.557 307.664C380.618 309.072 379.36 310.331 377.781 311.44C376.245 312.549 374.517 313.467 372.597 314.192C370.72 314.875 368.842 315.301 366.965 315.472C366.922 315.728 366.88 315.984 366.837 316.24C366.794 316.496 366.773 316.837 366.773 317.264C366.773 317.605 366.816 318.075 366.901 318.672C367.029 319.227 367.242 319.803 367.541 320.4C367.882 320.955 368.394 321.424 369.077 321.808C369.76 322.192 370.656 322.384 371.765 322.384C373.557 322.384 375.349 321.872 377.141 320.848C378.976 319.824 380.682 318.48 382.261 316.816C383.84 315.109 385.162 313.232 386.229 311.184L387.317 312.08C386.165 314.64 384.693 316.88 382.901 318.8C381.109 320.677 379.125 322.149 376.949 323.216C374.816 324.283 372.618 324.816 370.357 324.816ZM367.541 313.488C368.65 313.275 369.909 312.848 371.317 312.208C372.725 311.525 374.069 310.693 375.349 309.712C376.629 308.688 377.674 307.579 378.485 306.384C379.338 305.189 379.765 303.973 379.765 302.736C379.765 302.267 379.68 301.925 379.509 301.712C379.338 301.499 379.04 301.392 378.613 301.392C377.589 301.392 376.522 301.776 375.413 302.544C374.346 303.269 373.28 304.229 372.213 305.424C371.189 306.576 370.272 307.877 369.461 309.328C368.65 310.736 368.01 312.123 367.541 313.488ZM391.854 325.584C389.678 325.584 387.886 324.88 386.478 323.472C385.07 322.107 384.366 320.016 384.366 317.2C384.366 315.109 384.771 313.061 385.582 311.056C386.435 309.051 387.545 307.237 388.91 305.616C390.275 303.995 391.79 302.715 393.454 301.776C395.118 300.837 396.803 300.368 398.51 300.368C400.302 300.368 401.561 300.837 402.286 301.776C403.054 302.715 403.438 303.76 403.438 304.912C403.438 306.149 403.139 307.301 402.542 308.368C401.987 309.435 401.219 309.968 400.238 309.968C399.427 309.968 398.766 309.584 398.254 308.816C398.766 308.517 399.257 307.92 399.726 307.024C400.195 306.128 400.43 305.104 400.43 303.952C400.43 303.525 400.345 303.205 400.174 302.992C400.003 302.779 399.662 302.672 399.15 302.672C398.041 302.672 396.889 303.163 395.694 304.144C394.542 305.125 393.454 306.405 392.43 307.984C391.406 309.52 390.574 311.141 389.934 312.848C389.294 314.555 388.974 316.155 388.974 317.648C388.974 318.885 389.294 320.016 389.934 321.04C390.574 322.064 391.79 322.576 393.582 322.576C395.246 322.576 396.931 322.107 398.638 321.168C400.387 320.229 402.03 318.907 403.566 317.2C405.102 315.493 406.318 313.467 407.214 311.12L408.366 312.144C407.342 314.704 405.934 317.008 404.142 319.056C402.393 321.061 400.43 322.64 398.254 323.792C396.121 324.987 393.987 325.584 391.854 325.584ZM411.571 324.944C409.694 324.944 408.2 324.389 407.091 323.28C406.024 322.213 405.491 320.571 405.491 318.352C405.491 316.56 405.832 314.341 406.515 311.696C407.198 309.051 408.051 306.32 409.075 303.504C408.734 303.419 408.35 303.355 407.923 303.312C407.539 303.227 407.176 303.099 406.835 302.928V301.2C407.39 301.285 407.88 301.349 408.307 301.392C408.776 301.435 409.267 301.477 409.779 301.52C410.675 299.259 411.635 297.061 412.659 294.928C413.726 292.795 414.771 290.896 415.795 289.232C416.819 287.568 417.8 286.245 418.739 285.264C419.678 284.283 420.488 283.792 421.171 283.792C421.598 283.792 421.982 283.941 422.323 284.24C422.664 284.539 422.835 284.965 422.835 285.52C422.835 286.331 422.387 287.547 421.491 289.168C420.638 290.747 419.55 292.624 418.227 294.8C416.947 296.933 415.71 299.237 414.515 301.712C414.856 301.712 415.198 301.712 415.539 301.712C415.923 301.712 416.286 301.712 416.627 301.712C418.334 301.712 419.955 301.691 421.491 301.648C423.027 301.563 424.584 301.435 426.163 301.264V303.056C423.816 303.312 421.662 303.504 419.699 303.632C417.779 303.76 415.987 303.824 414.323 303.824C414.195 303.824 414.046 303.824 413.875 303.824C413.747 303.824 413.619 303.824 413.491 303.824C412.552 306 411.742 308.219 411.059 310.48C410.419 312.741 410.099 314.939 410.099 317.072C410.099 318.864 410.376 320.144 410.931 320.912C411.486 321.637 412.382 322 413.619 322C415.752 322 417.928 321.019 420.147 319.056C422.366 317.093 424.286 314.448 425.907 311.12L426.803 311.76C425.736 314.235 424.392 316.475 422.771 318.48C421.15 320.485 419.379 322.064 417.459 323.216C415.582 324.368 413.619 324.944 411.571 324.944ZM447.723 327.568C446.486 327.568 445.334 327.227 444.267 326.544C443.243 325.904 442.731 325.072 442.731 324.048C442.731 323.536 442.816 322.96 442.987 322.32C443.2 321.68 443.392 321.083 443.563 320.528C444.886 316.432 446.123 312.613 447.275 309.072C448.47 305.488 449.643 302.053 450.795 298.768C451.99 295.44 453.248 292.112 454.571 288.784C455.894 285.456 457.366 281.979 458.987 278.352C457.366 278.651 455.958 279.077 454.763 279.632C453.611 280.187 452.651 280.677 451.883 281.104C451.158 281.531 450.646 281.744 450.347 281.744C450.134 281.744 449.835 281.616 449.451 281.36C449.067 281.061 448.726 280.741 448.427 280.4C448.171 280.059 448.043 279.76 448.043 279.504C449.195 278.992 450.56 278.459 452.139 277.904C453.718 277.349 455.424 276.88 457.259 276.496C459.094 276.112 460.928 275.92 462.763 275.92C464.726 275.92 466.731 276.197 468.779 276.752C470.827 277.264 472.704 278.053 474.411 279.12C476.118 280.144 477.504 281.424 478.571 282.96C479.638 284.496 480.171 286.309 480.171 288.4C480.171 290.661 479.659 292.603 478.635 294.224C477.611 295.803 476.267 297.147 474.603 298.256C472.939 299.365 471.147 300.261 469.227 300.944C467.307 301.627 465.387 302.139 463.467 302.48C461.547 302.821 459.819 303.056 458.283 303.184C456.79 303.312 455.68 303.376 454.955 303.376H454.507C453.27 307.643 452.075 311.888 450.923 316.112C449.771 320.336 448.704 324.155 447.723 327.568ZM454.955 301.712C457.344 301.541 459.734 301.136 462.123 300.496C464.512 299.856 466.688 298.96 468.651 297.808C470.614 296.656 472.192 295.205 473.387 293.456C474.582 291.707 475.179 289.68 475.179 287.376C475.179 285.157 474.624 283.365 473.515 282C472.406 280.635 470.955 279.611 469.163 278.928C467.414 278.245 465.536 277.883 463.531 277.84C461.995 280.869 460.502 284.475 459.051 288.656C457.643 292.837 456.278 297.189 454.955 301.712ZM481.003 323.92C479.04 323.92 477.653 323.259 476.843 321.936C476.075 320.613 475.691 319.035 475.691 317.2C475.691 315.109 476.075 312.656 476.843 309.84C477.611 307.024 478.613 304.08 479.851 301.008C481.131 297.893 482.517 294.864 484.01 291.92C485.547 288.933 487.061 286.245 488.555 283.856C490.091 281.424 491.499 279.504 492.779 278.096C494.101 276.645 495.147 275.92 495.915 275.92C496.427 275.92 496.853 276.197 497.195 276.752C497.579 277.307 497.877 277.989 498.091 278.8C498.304 279.568 498.411 280.272 498.411 280.912C498.411 282.064 498.112 283.579 497.515 285.456C496.96 287.291 496.149 289.339 495.083 291.6C494.059 293.819 492.821 296.101 491.371 298.448C489.963 300.752 488.405 302.971 486.699 305.104C484.992 307.195 483.157 309.008 481.195 310.544C481.024 311.611 480.853 312.677 480.683 313.744C480.555 314.811 480.491 315.792 480.491 316.688C480.491 318.267 480.725 319.44 481.195 320.208C481.707 320.933 482.389 321.296 483.243 321.296C484.352 321.296 485.461 320.784 486.571 319.76C487.723 318.736 488.811 317.456 489.835 315.92C490.859 314.341 491.755 312.72 492.523 311.056L493.867 311.824C492.075 315.536 490.091 318.48 487.915 320.656C485.739 322.832 483.435 323.92 481.003 323.92ZM482.155 307.152C483.648 305.616 485.056 303.909 486.379 302.032C487.701 300.155 488.917 298.235 490.027 296.272C491.179 294.267 492.181 292.347 493.035 290.512C493.888 288.635 494.549 286.971 495.019 285.52C495.488 284.027 495.744 282.853 495.787 282C495.787 281.829 495.765 281.723 495.723 281.68C495.68 281.595 495.659 281.552 495.659 281.552C495.317 281.552 494.741 282.064 493.931 283.088C493.163 284.069 492.245 285.413 491.179 287.12C490.155 288.827 489.088 290.789 487.979 293.008C486.869 295.227 485.803 297.552 484.779 299.984C483.755 302.416 482.88 304.805 482.155 307.152ZM494.455 325.008C493.089 325.008 491.916 324.539 490.934 323.6C489.91 322.704 489.398 321.339 489.398 319.504C489.398 317.968 489.74 316.325 490.422 314.576C491.105 312.827 492.044 311.099 493.239 309.392C494.433 307.685 495.799 306.128 497.335 304.72C498.871 303.312 500.492 302.181 502.199 301.328C503.948 300.475 505.676 300.048 507.383 300.048C509.175 300.048 510.668 300.517 511.863 301.456C513.1 302.352 513.719 303.547 513.719 305.04C513.719 306.192 513.356 307.003 512.631 307.472C511.905 307.941 511.009 308.091 509.943 307.92C510.028 307.579 510.092 307.216 510.135 306.832C510.22 306.405 510.263 306 510.263 305.616C510.263 304.72 510.071 303.931 509.687 303.248C509.303 302.565 508.556 302.224 507.447 302.224C506.252 302.224 505.036 302.629 503.799 303.44C502.561 304.251 501.367 305.317 500.215 306.64C499.063 307.963 498.039 309.413 497.143 310.992C496.247 312.571 495.543 314.128 495.031 315.664C494.519 317.2 494.263 318.565 494.263 319.76C494.263 321.211 494.796 321.936 495.863 321.936C496.844 321.936 497.911 321.467 499.062 320.528C500.257 319.589 501.452 318.395 502.647 316.944C503.884 315.493 505.057 314.021 506.167 312.528C507.276 310.992 508.236 309.648 509.047 308.496C509.217 308.283 509.367 308.176 509.495 308.176C509.708 308.219 510.049 308.325 510.519 308.496C510.988 308.624 511.415 308.816 511.799 309.072C512.183 309.328 512.375 309.669 512.375 310.096C512.375 310.523 512.183 311.077 511.799 311.76C511.415 312.4 510.988 313.125 510.519 313.936C510.049 314.747 509.623 315.557 509.239 316.368C508.855 317.179 508.663 317.968 508.663 318.736C508.663 319.291 508.812 319.845 509.111 320.4C509.452 320.912 509.985 321.168 510.711 321.168C511.777 321.168 513.228 320.4 515.063 318.864C516.94 317.285 518.839 314.725 520.759 311.184L521.783 312.208C520.801 314.512 519.585 316.539 518.135 318.288C516.727 320.037 515.233 321.403 513.655 322.384C512.076 323.408 510.497 323.92 508.919 323.92C507.212 323.92 505.953 323.387 505.143 322.32C504.332 321.296 503.884 320.165 503.799 318.928C503.799 318.8 503.799 318.672 503.799 318.544C503.841 318.373 503.863 318.224 503.863 318.096C502.113 320.272 500.513 321.957 499.062 323.152C497.612 324.389 496.076 325.008 494.455 325.008ZM525.009 324.944C523.131 324.944 521.638 324.389 520.529 323.28C519.462 322.213 518.928 320.571 518.928 318.352C518.928 316.56 519.27 314.341 519.953 311.696C520.635 309.051 521.489 306.32 522.513 303.504C522.171 303.419 521.787 303.355 521.361 303.312C520.977 303.227 520.614 303.099 520.273 302.928V301.2C520.827 301.285 521.318 301.349 521.745 301.392C522.214 301.435 522.705 301.477 523.217 301.52C524.113 299.259 525.073 297.061 526.097 294.928C527.163 292.795 528.209 290.896 529.233 289.232C530.257 287.568 531.238 286.245 532.177 285.264C533.115 284.283 533.926 283.792 534.609 283.792C535.035 283.792 535.419 283.941 535.76 284.24C536.102 284.539 536.273 284.965 536.273 285.52C536.273 286.331 535.825 287.547 534.929 289.168C534.075 290.747 532.987 292.624 531.665 294.8C530.385 296.933 529.147 299.237 527.953 301.712C528.294 301.712 528.635 301.712 528.977 301.712C529.361 301.712 529.723 301.712 530.065 301.712C531.771 301.712 533.393 301.691 534.929 301.648C536.465 301.563 538.022 301.435 539.601 301.264V303.056C537.254 303.312 535.099 303.504 533.137 303.632C531.217 303.76 529.425 303.824 527.76 303.824C527.633 303.824 527.483 303.824 527.312 303.824C527.185 303.824 527.057 303.824 526.929 303.824C525.99 306 525.179 308.219 524.497 310.48C523.856 312.741 523.536 314.939 523.536 317.072C523.536 318.864 523.814 320.144 524.369 320.912C524.923 321.637 525.819 322 527.057 322C529.19 322 531.366 321.019 533.585 319.056C535.803 317.093 537.723 314.448 539.345 311.12L540.241 311.76C539.174 314.235 537.83 316.475 536.208 318.48C534.587 320.485 532.817 322.064 530.897 323.216C529.019 324.368 527.057 324.944 525.009 324.944ZM537.367 339.92C536.898 339.92 536.365 339.771 535.767 339.472C535.127 339.173 534.573 338.597 534.103 337.744C533.634 336.891 533.399 335.632 533.399 333.968C533.399 332.091 533.719 329.659 534.359 326.672C534.999 323.728 535.874 320.443 536.983 316.816C538.05 313.189 539.309 309.477 540.76 305.68C542.253 301.883 543.832 298.213 545.496 294.672C547.202 291.131 548.952 287.952 550.744 285.136C552.536 282.32 554.306 280.08 556.056 278.416C557.848 276.752 559.554 275.92 561.176 275.92C562.2 275.92 562.861 276.24 563.16 276.88C563.501 277.477 563.672 278.203 563.672 279.056C563.672 280.891 563.16 282.896 562.136 285.072C561.154 287.248 559.832 289.445 558.168 291.664C556.504 293.84 554.648 295.909 552.6 297.872C550.552 299.835 548.461 301.52 546.328 302.928C546.157 303.397 545.965 303.867 545.752 304.336C545.581 304.763 545.41 305.211 545.24 305.68C545.709 305.851 546.072 306.149 546.328 306.576C546.626 306.96 546.797 307.387 546.84 307.856C547.181 309.733 547.522 311.397 547.864 312.848C548.205 314.299 548.717 315.451 549.4 316.304C550.125 317.115 551.149 317.52 552.472 317.52C553.965 317.52 555.266 316.965 556.376 315.856C557.485 314.747 558.637 313.189 559.832 311.184L561.048 312.08C559.81 314.768 558.338 316.731 556.632 317.968C554.968 319.163 553.474 319.76 552.152 319.76C551.384 319.76 550.594 319.611 549.784 319.312C549.016 318.971 548.269 318.501 547.544 317.904C547.501 320.592 547.181 323.237 546.584 325.84C546.029 328.443 545.261 330.789 544.28 332.88C543.341 335.013 542.274 336.72 541.08 338C539.885 339.28 538.648 339.92 537.367 339.92ZM539.096 336.272C539.565 336.272 540.077 335.845 540.632 334.992C541.186 334.181 541.72 333.093 542.232 331.728C542.786 330.405 543.277 328.933 543.704 327.312C544.173 325.691 544.536 324.069 544.792 322.448C545.09 320.869 545.24 319.44 545.24 318.16C545.24 316.88 545.09 315.749 544.792 314.768C544.493 313.744 543.981 312.592 543.256 311.312C542.232 314.341 541.314 317.264 540.504 320.08C539.736 322.896 539.117 325.435 538.648 327.696C538.221 330 538.008 331.899 538.008 333.392C538.008 335.312 538.37 336.272 539.096 336.272ZM547.864 299.088C550.552 296.613 552.834 294.181 554.712 291.792C556.632 289.36 558.082 287.227 559.064 285.392C560.088 283.515 560.6 282.192 560.6 281.424C560.6 280.997 560.386 280.784 559.96 280.784C558.936 280.784 557.741 281.616 556.376 283.28C555.01 284.901 553.602 287.099 552.152 289.872C550.701 292.645 549.272 295.717 547.864 299.088ZM563.238 324.048C561.403 324.048 560.016 323.472 559.078 322.32C558.181 321.211 557.733 319.824 557.733 318.16C557.733 316.24 558.075 314.363 558.758 312.528C559.483 310.651 560.422 308.923 561.574 307.344C562.726 305.723 563.984 304.315 565.35 303.12C566.715 301.883 568.059 300.923 569.382 300.24C570.747 299.557 571.963 299.216 573.03 299.216C573.456 299.216 573.862 299.301 574.246 299.472C574.63 299.6 574.907 299.835 575.078 300.176C575.206 300.091 575.334 300.048 575.462 300.048C575.59 300.005 575.718 299.984 575.846 299.984C576.912 299.984 577.616 300.325 577.958 301.008C578.299 301.648 578.47 302.309 578.47 302.992C578.47 303.632 578.256 304.421 577.83 305.36C577.446 306.256 577.04 307.259 576.614 308.368C576.23 309.435 576.038 310.651 576.038 312.016C576.038 312.912 576.272 313.595 576.742 314.064C577.254 314.533 577.936 314.768 578.79 314.768C580.198 314.768 581.414 314.384 582.438 313.616C583.462 312.805 584.358 311.781 585.126 310.544C585.894 309.264 586.555 307.877 587.11 306.384C587.707 304.891 588.198 303.44 588.582 302.032C588.198 301.563 588.006 301.029 588.006 300.432C588.006 299.536 588.176 298.747 588.518 298.064C588.902 297.339 589.328 296.784 589.798 296.4C590.267 296.016 590.651 295.824 590.95 295.824C591.547 295.824 591.888 296.059 591.974 296.528C592.102 296.997 592.166 297.381 592.166 297.68C592.166 297.893 592.038 298.299 591.782 298.896C591.568 299.451 591.462 299.813 591.462 299.984C591.462 300.453 591.803 300.923 592.486 301.392C593.168 301.861 593.958 302.395 594.854 302.992C595.75 303.589 596.539 304.357 597.222 305.296C597.904 306.192 598.246 307.323 598.246 308.688C598.246 309.968 597.99 311.248 597.478 312.528C596.966 313.808 596.432 315.024 595.878 316.176C595.366 317.328 595.11 318.309 595.11 319.12C595.11 319.803 595.28 320.251 595.622 320.464C595.963 320.677 596.368 320.784 596.838 320.784C597.819 320.784 598.843 320.485 599.91 319.888C601.019 319.248 602.086 318.437 603.11 317.456C604.134 316.475 605.051 315.451 605.862 314.384C606.672 313.275 607.27 312.272 607.654 311.376L608.806 312.144C607.952 313.979 606.822 315.792 605.414 317.584C604.006 319.333 602.427 320.805 600.678 322C598.928 323.152 597.115 323.728 595.238 323.728C593.702 323.728 592.443 323.301 591.462 322.448C590.523 321.637 590.054 320.592 590.054 319.312C590.054 318.032 590.331 316.709 590.886 315.344C591.483 313.979 592.059 312.635 592.614 311.312C593.168 309.989 593.446 308.795 593.446 307.728C593.446 306.533 593.062 305.595 592.294 304.912C591.568 304.229 590.8 303.653 589.99 303.184C589.52 304.677 588.944 306.235 588.262 307.856C587.579 309.477 586.768 310.971 585.83 312.336C584.934 313.701 583.824 314.811 582.502 315.664C581.222 316.475 579.707 316.88 577.958 316.88C577.19 316.88 576.4 316.752 575.59 316.496C574.822 316.197 574.182 315.813 573.67 315.344C572.475 317.904 570.939 319.995 569.062 321.616C567.184 323.237 565.243 324.048 563.238 324.048ZM564.518 320.976C565.243 320.976 566.054 320.656 566.95 320.016C567.888 319.333 568.806 318.437 569.702 317.328C570.64 316.219 571.387 315.024 571.942 313.744C571.259 312.592 570.918 310.992 570.918 308.944C570.918 308.261 570.982 307.515 571.11 306.704C571.28 305.893 571.472 305.104 571.686 304.336C571.942 303.525 572.24 302.843 572.582 302.288C571.515 302.843 570.47 303.589 569.446 304.528C568.464 305.424 567.547 306.448 566.694 307.6C565.84 308.752 565.094 309.947 564.454 311.184C563.814 312.379 563.302 313.552 562.918 314.704C562.576 315.856 562.406 316.901 562.406 317.84C562.406 318.949 562.598 319.76 562.982 320.272C563.366 320.741 563.878 320.976 564.518 320.976ZM639.401 323.984C637.779 323.984 636.585 323.493 635.817 322.512C635.049 321.573 634.665 320.443 634.665 319.12C634.665 318.096 634.814 317.093 635.113 316.112C635.411 315.088 635.71 314.085 636.009 313.104C636.35 312.123 636.521 311.227 636.521 310.416C636.521 309.648 636.35 309.115 636.009 308.816C635.71 308.517 635.347 308.368 634.921 308.368C633.897 308.368 632.745 309.157 631.465 310.736C630.185 312.272 628.563 314.491 626.601 317.392C625.918 318.416 625.299 319.483 624.745 320.592C624.19 321.701 623.678 322.661 623.208 323.472C622.867 323.472 622.398 323.408 621.801 323.28C621.203 323.152 620.67 322.981 620.201 322.768C619.774 322.555 619.561 322.277 619.561 321.936C619.561 321.552 619.774 320.805 620.201 319.696C620.627 318.587 621.118 317.285 621.673 315.792C622.227 314.299 622.697 312.827 623.081 311.376C623.507 309.883 623.721 308.624 623.721 307.6C623.721 306.96 623.614 306.469 623.401 306.128C623.187 305.744 622.825 305.552 622.312 305.552C621.417 305.552 620.329 306.107 619.049 307.216C617.769 308.283 616.425 309.691 615.017 311.44C613.609 313.189 612.286 315.152 611.049 317.328C609.854 319.461 608.873 321.595 608.105 323.728C607.635 323.728 607.081 323.643 606.441 323.472C605.8 323.301 605.246 323.088 604.776 322.832C604.307 322.576 604.072 322.341 604.072 322.128C604.072 322 604.243 321.339 604.584 320.144C604.926 318.949 605.352 317.477 605.864 315.728C606.334 313.979 606.782 312.187 607.209 310.352C607.678 308.517 608.041 306.896 608.297 305.488C608.467 305.104 608.915 304.741 609.641 304.4C610.366 304.059 611.027 303.888 611.625 303.888C612.222 303.888 612.691 304.059 613.033 304.4C613.417 304.741 613.609 305.211 613.609 305.808C613.609 306.277 613.502 307.024 613.289 308.048C613.075 309.029 612.798 310.139 612.457 311.376C613.353 310.096 614.313 308.837 615.337 307.6C616.361 306.32 617.427 305.168 618.537 304.144C619.689 303.12 620.819 302.309 621.929 301.712C623.081 301.072 624.211 300.752 625.321 300.752C626.814 300.752 627.817 301.285 628.329 302.352C628.883 303.419 629.161 304.613 629.161 305.936C629.161 306.661 629.075 307.408 628.905 308.176C628.777 308.944 628.606 309.669 628.393 310.352C628.222 311.035 628.009 311.717 627.753 312.4C628.563 311.077 629.481 309.819 630.505 308.624C631.529 307.429 632.617 306.491 633.769 305.808C634.921 305.083 636.158 304.72 637.481 304.72C639.059 304.72 640.147 305.189 640.745 306.128C641.342 307.067 641.641 308.112 641.641 309.264C641.641 310.373 641.449 311.568 641.065 312.848C640.723 314.085 640.361 315.28 639.977 316.432C639.593 317.541 639.401 318.501 639.401 319.312C639.401 319.781 639.507 320.208 639.721 320.592C639.977 320.976 640.446 321.168 641.129 321.168C642.281 321.168 643.39 320.635 644.457 319.568C645.523 318.501 646.505 317.2 647.401 315.664C648.297 314.085 649.065 312.592 649.705 311.184L650.665 312.336C649.982 314.128 649.107 315.92 648.041 317.712C646.974 319.504 645.715 320.997 644.265 322.192C642.814 323.387 641.193 323.984 639.401 323.984ZM676.139 327.568C673.963 327.397 672.555 326.843 671.915 325.904C671.318 325.008 671.019 323.856 671.019 322.448C671.019 320.869 671.296 318.971 671.851 316.752C672.448 314.533 673.195 312.144 674.091 309.584C675.03 307.024 676.032 304.464 677.099 301.904C676.587 301.947 675.904 302.011 675.051 302.096C674.198 302.181 673.28 302.288 672.299 302.416C671.318 302.501 670.379 302.629 669.483 302.8C669.611 301.52 670.08 300.539 670.891 299.856C671.744 299.131 672.832 298.619 674.155 298.32C675.52 297.979 676.992 297.787 678.571 297.744C679.723 294.587 680.896 291.515 682.091 288.528C683.286 285.541 684.48 282.811 685.675 280.336C685.376 280.293 685.035 280.272 684.651 280.272C684.31 280.229 683.862 280.208 683.307 280.208C680.662 280.208 678.614 280.485 677.163 281.04C675.712 281.595 674.71 282.405 674.155 283.472C673.643 284.539 673.387 285.861 673.387 287.44C673.387 288.464 673.472 289.403 673.643 290.256C673.814 291.109 674.091 292.005 674.475 292.944C672.683 292.645 671.382 292.027 670.571 291.088C669.803 290.149 669.419 288.976 669.419 287.568C669.419 285.349 670.23 283.408 671.851 281.744C673.472 280.037 675.648 278.693 678.379 277.712C681.152 276.731 684.246 276.24 687.659 276.24C689.92 276.24 692.139 276.389 694.315 276.688C696.534 276.987 698.624 277.136 700.587 277.136C701.611 277.136 702.571 277.072 703.467 276.944C704.363 276.816 705.366 276.603 706.475 276.304C704.598 278.395 703.04 279.803 701.803 280.528C700.608 281.253 699.414 281.616 698.219 281.616C697.195 281.616 695.872 281.488 694.251 281.232C692.672 280.933 690.923 280.699 689.003 280.528C688.448 281.936 687.851 283.579 687.211 285.456C686.571 287.291 685.91 289.275 685.227 291.408C684.544 293.499 683.84 295.632 683.115 297.808C685.334 297.979 687.339 298.171 689.131 298.384C690.966 298.597 692.864 298.747 694.827 298.832C694.4 299.472 693.931 299.984 693.419 300.368C692.907 300.709 692.224 300.965 691.371 301.136C690.518 301.264 689.344 301.371 687.851 301.456C686.358 301.541 684.416 301.605 682.027 301.648C681.686 302.8 681.323 304.016 680.939 305.296C680.555 306.576 680.214 307.728 679.915 308.752C679.659 309.733 679.467 310.373 679.339 310.672C678.23 314.512 677.419 317.776 676.907 320.464C676.395 323.109 676.139 325.477 676.139 327.568ZM698.363 324.048C696.528 324.048 695.141 323.472 694.203 322.32C693.306 321.211 692.858 319.824 692.858 318.16C692.858 316.24 693.2 314.363 693.883 312.528C694.608 310.651 695.547 308.923 696.699 307.344C697.851 305.723 699.109 304.315 700.475 303.12C701.84 301.883 703.184 300.923 704.507 300.24C705.872 299.557 707.088 299.216 708.155 299.216C708.581 299.216 708.987 299.301 709.371 299.472C709.755 299.6 710.032 299.835 710.203 300.176C710.331 300.091 710.459 300.048 710.587 300.048C710.715 300.005 710.843 299.984 710.971 299.984C712.037 299.984 712.741 300.325 713.083 301.008C713.424 301.648 713.595 302.309 713.595 302.992C713.595 303.632 713.381 304.421 712.955 305.36C712.571 306.256 712.165 307.259 711.739 308.368C711.355 309.435 711.163 310.651 711.163 312.016C711.163 312.912 711.397 313.595 711.867 314.064C712.379 314.533 713.061 314.768 713.915 314.768C715.323 314.768 716.539 314.384 717.563 313.616C718.587 312.805 719.483 311.781 720.251 310.544C721.019 309.264 721.68 307.877 722.235 306.384C722.832 304.891 723.323 303.44 723.707 302.032C723.323 301.563 723.131 301.029 723.131 300.432C723.131 299.536 723.301 298.747 723.643 298.064C724.027 297.339 724.453 296.784 724.923 296.4C725.392 296.016 725.776 295.824 726.075 295.824C726.672 295.824 727.013 296.059 727.099 296.528C727.227 296.997 727.291 297.381 727.291 297.68C727.291 297.893 727.163 298.299 726.907 298.896C726.693 299.451 726.587 299.813 726.587 299.984C726.587 300.453 726.928 300.923 727.611 301.392C728.293 301.861 729.083 302.395 729.979 302.992C730.875 303.589 731.664 304.357 732.347 305.296C733.029 306.192 733.371 307.323 733.371 308.688C733.371 309.968 733.115 311.248 732.603 312.528C732.091 313.808 731.557 315.024 731.003 316.176C730.491 317.328 730.235 318.309 730.235 319.12C730.235 319.803 730.405 320.251 730.747 320.464C731.088 320.677 731.493 320.784 731.963 320.784C732.944 320.784 733.968 320.485 735.035 319.888C736.144 319.248 737.211 318.437 738.235 317.456C739.259 316.475 740.176 315.451 740.987 314.384C741.797 313.275 742.395 312.272 742.779 311.376L743.931 312.144C743.077 313.979 741.947 315.792 740.539 317.584C739.131 319.333 737.552 320.805 735.803 322C734.053 323.152 732.24 323.728 730.363 323.728C728.827 323.728 727.568 323.301 726.587 322.448C725.648 321.637 725.179 320.592 725.179 319.312C725.179 318.032 725.456 316.709 726.011 315.344C726.608 313.979 727.184 312.635 727.739 311.312C728.293 309.989 728.571 308.795 728.571 307.728C728.571 306.533 728.187 305.595 727.419 304.912C726.693 304.229 725.925 303.653 725.115 303.184C724.645 304.677 724.069 306.235 723.387 307.856C722.704 309.477 721.893 310.971 720.955 312.336C720.059 313.701 718.949 314.811 717.627 315.664C716.347 316.475 714.832 316.88 713.083 316.88C712.315 316.88 711.525 316.752 710.715 316.496C709.947 316.197 709.307 315.813 708.795 315.344C707.6 317.904 706.064 319.995 704.187 321.616C702.309 323.237 700.368 324.048 698.363 324.048ZM699.643 320.976C700.368 320.976 701.179 320.656 702.075 320.016C703.013 319.333 703.931 318.437 704.827 317.328C705.765 316.219 706.512 315.024 707.067 313.744C706.384 312.592 706.043 310.992 706.043 308.944C706.043 308.261 706.107 307.515 706.235 306.704C706.405 305.893 706.597 305.104 706.811 304.336C707.067 303.525 707.365 302.843 707.707 302.288C706.64 302.843 705.595 303.589 704.571 304.528C703.589 305.424 702.672 306.448 701.819 307.6C700.965 308.752 700.219 309.947 699.579 311.184C698.939 312.379 698.427 313.552 698.043 314.704C697.701 315.856 697.531 316.901 697.531 317.84C697.531 318.949 697.723 319.76 698.107 320.272C698.491 320.741 699.003 320.976 699.643 320.976ZM794.671 328.336C793.092 328.336 791.769 327.632 790.703 326.224C789.636 324.859 789.103 323.216 789.103 321.296C789.103 320.869 789.124 320.293 789.167 319.568C789.209 318.843 789.273 318.032 789.359 317.136C787.823 320.208 785.924 322.725 783.663 324.688C781.444 326.651 778.777 327.632 775.663 327.632C772.847 327.632 770.671 326.779 769.135 325.072C767.641 323.365 766.895 321.083 766.895 318.224C766.895 316.432 767.151 314.427 767.663 312.208C768.175 309.947 768.815 307.6 769.583 305.168C770.393 302.736 771.183 300.283 771.951 297.808C772.719 295.333 773.359 292.923 773.871 290.576C774.383 288.229 774.639 286.053 774.639 284.048C774.639 280.208 773.487 278.288 771.183 278.288C770.031 278.288 769.028 278.672 768.175 279.44C767.364 280.165 766.681 281.083 766.127 282.192C765.615 283.301 765.209 284.432 764.911 285.584C764.655 286.736 764.527 287.739 764.527 288.592C764.527 289.232 764.591 289.893 764.719 290.576C764.889 291.259 765.06 291.856 765.231 292.368C763.353 292.368 762.009 291.92 761.199 291.024C760.388 290.085 759.983 288.955 759.983 287.632C759.983 286.309 760.303 284.965 760.943 283.6C761.583 282.235 762.479 280.976 763.631 279.824C764.825 278.672 766.191 277.755 767.727 277.072C769.263 276.347 770.927 275.984 772.719 275.984C775.193 275.984 776.985 276.709 778.095 278.16C779.247 279.611 779.823 281.573 779.823 284.048C779.823 285.627 779.631 287.376 779.247 289.296C778.863 291.216 778.372 293.2 777.775 295.248C777.177 297.296 776.559 299.301 775.919 301.264C774.895 304.635 774.02 307.664 773.295 310.352C772.569 312.997 772.207 315.344 772.207 317.392C772.207 319.355 772.612 321.019 773.423 322.384C774.233 323.749 775.599 324.432 777.519 324.432C779.268 324.432 780.868 323.877 782.319 322.768C783.769 321.701 785.049 320.293 786.159 318.544C787.268 316.795 788.207 314.939 788.975 312.976C789.743 311.013 790.319 309.2 790.703 307.536C791.3 305.019 791.961 302.331 792.687 299.472C793.412 296.571 794.159 293.733 794.927 290.96C795.737 288.187 796.548 285.669 797.359 283.408C798.169 281.147 798.959 279.355 799.727 278.032C800.495 276.667 801.263 275.984 802.031 275.984C802.415 275.984 802.948 276.197 803.631 276.624C804.356 277.008 805.081 277.563 805.807 278.288C805.423 278.587 804.868 279.504 804.143 281.04C803.417 282.533 802.607 284.475 801.711 286.864C800.815 289.211 799.919 291.813 799.023 294.672C798.127 297.531 797.295 300.453 796.527 303.44C795.759 306.427 795.14 309.285 794.671 312.016C794.201 314.747 793.967 317.157 793.967 319.248C793.967 321.979 794.393 323.792 795.247 324.688C796.143 325.627 797.636 326.096 799.727 326.096C799.129 326.821 798.34 327.376 797.359 327.76C796.377 328.144 795.481 328.336 794.671 328.336ZM800.6 339.92C800.259 339.92 799.918 339.792 799.576 339.536C799.192 339.28 798.872 339.003 798.616 338.704C798.36 338.405 798.232 338.192 798.232 338.064C799.128 335.291 799.918 332.859 800.6 330.768C801.283 328.72 801.902 326.736 802.456 324.816C802.968 322.896 803.459 320.827 803.928 318.608C804.398 316.347 804.867 313.701 805.337 310.672C805.806 307.6 806.297 303.867 806.809 299.472C806.894 299.003 807.001 298.661 807.129 298.448C807.257 298.235 807.641 298.128 808.281 298.128C809.518 298.128 810.414 298.469 810.969 299.152C811.523 299.835 811.801 300.581 811.801 301.392C811.801 301.861 811.694 302.715 811.481 303.952C811.31 305.147 811.054 306.597 810.713 308.304C811.481 306.981 812.398 305.723 813.465 304.528C814.531 303.291 815.726 302.267 817.049 301.456C818.371 300.645 819.801 300.24 821.337 300.24C823.385 300.24 825.049 300.944 826.329 302.352C827.651 303.717 828.313 305.531 828.313 307.792C828.313 309.456 827.929 311.227 827.161 313.104C826.435 314.939 825.39 316.688 824.025 318.352C822.702 319.973 821.081 321.296 819.161 322.32C817.283 323.387 815.214 323.92 812.953 323.92C811.673 323.92 810.649 323.749 809.881 323.408C809.113 323.109 808.729 322.789 808.729 322.448C808.729 322.192 808.878 322.043 809.177 322C809.518 321.915 809.881 321.872 810.265 321.872C812.185 321.872 813.934 321.467 815.513 320.656C817.134 319.803 818.542 318.715 819.737 317.392C820.974 316.069 821.913 314.64 822.553 313.104C823.235 311.568 823.577 310.032 823.577 308.496C823.577 307.216 823.278 306.107 822.681 305.168C822.126 304.187 821.23 303.696 819.993 303.696C818.883 303.696 817.774 304.059 816.665 304.784C815.598 305.467 814.595 306.341 813.657 307.408C812.718 308.432 811.886 309.52 811.161 310.672C810.435 311.824 809.881 312.848 809.497 313.744C808.686 316.688 807.918 319.568 807.193 322.384C806.51 325.243 805.849 327.867 805.209 330.256C804.611 332.688 804.014 334.715 803.416 336.336C802.776 337.957 802.158 339.024 801.56 339.536C801.262 339.792 800.942 339.92 800.6 339.92ZM835.753 323.92C833.79 323.92 832.403 323.259 831.593 321.936C830.825 320.613 830.441 319.035 830.441 317.2C830.441 315.109 830.825 312.656 831.593 309.84C832.361 307.024 833.363 304.08 834.601 301.008C835.881 297.893 837.267 294.864 838.76 291.92C840.297 288.933 841.811 286.245 843.305 283.856C844.841 281.424 846.249 279.504 847.529 278.096C848.851 276.645 849.897 275.92 850.665 275.92C851.177 275.92 851.603 276.197 851.945 276.752C852.329 277.307 852.627 277.989 852.841 278.8C853.054 279.568 853.161 280.272 853.161 280.912C853.161 282.064 852.862 283.579 852.265 285.456C851.71 287.291 850.899 289.339 849.833 291.6C848.809 293.819 847.571 296.101 846.121 298.448C844.713 300.752 843.155 302.971 841.449 305.104C839.742 307.195 837.907 309.008 835.945 310.544C835.774 311.611 835.603 312.677 835.433 313.744C835.305 314.811 835.241 315.792 835.241 316.688C835.241 318.267 835.475 319.44 835.945 320.208C836.457 320.933 837.139 321.296 837.993 321.296C839.102 321.296 840.211 320.784 841.321 319.76C842.473 318.736 843.561 317.456 844.585 315.92C845.609 314.341 846.505 312.72 847.273 311.056L848.617 311.824C846.825 315.536 844.841 318.48 842.665 320.656C840.489 322.832 838.185 323.92 835.753 323.92ZM836.905 307.152C838.398 305.616 839.806 303.909 841.129 302.032C842.451 300.155 843.667 298.235 844.777 296.272C845.929 294.267 846.931 292.347 847.785 290.512C848.638 288.635 849.299 286.971 849.769 285.52C850.238 284.027 850.494 282.853 850.537 282C850.537 281.829 850.515 281.723 850.473 281.68C850.43 281.595 850.409 281.552 850.409 281.552C850.067 281.552 849.491 282.064 848.681 283.088C847.913 284.069 846.995 285.413 845.929 287.12C844.905 288.827 843.838 290.789 842.729 293.008C841.619 295.227 840.553 297.552 839.529 299.984C838.505 302.416 837.63 304.805 836.905 307.152ZM850.101 324.048C848.223 324.048 846.922 323.429 846.197 322.192C845.471 320.997 845.108 319.632 845.108 318.096C845.108 316.731 845.322 315.344 845.748 313.936C846.175 312.528 846.751 311.205 847.477 309.968C848.202 308.731 849.013 307.728 849.909 306.96C850.805 306.192 851.722 305.808 852.661 305.808C852.917 305.808 853.215 305.872 853.557 306C853.941 306.085 854.218 306.213 854.389 306.384C853.919 306.896 853.407 307.621 852.853 308.56C852.341 309.499 851.85 310.523 851.381 311.632C850.954 312.699 850.591 313.787 850.293 314.896C850.037 315.963 849.909 316.944 849.909 317.84C849.909 318.821 850.079 319.589 850.421 320.144C850.762 320.699 851.317 320.976 852.085 320.976C852.938 320.976 853.941 320.528 855.093 319.632C856.287 318.693 857.418 317.563 858.485 316.24C857.162 315.088 856.181 313.765 855.541 312.272C854.943 310.736 854.645 309.008 854.645 307.088C854.645 306.021 854.879 304.891 855.349 303.696C855.818 302.501 856.543 301.499 857.525 300.688C858.506 299.877 859.786 299.472 861.365 299.472C863.157 299.472 864.394 299.984 865.077 301.008C865.802 301.989 866.165 303.184 866.165 304.592C866.165 306.171 865.738 307.963 864.885 309.968C864.074 311.931 863.093 313.808 861.941 315.6C862.538 315.941 863.199 316.112 863.925 316.112C864.565 316.112 865.333 315.963 866.229 315.664C867.125 315.365 867.978 314.875 868.789 314.192C869.642 313.467 870.325 312.528 870.837 311.376L871.861 312.144C870.965 314.235 869.727 315.771 868.149 316.752C866.613 317.691 865.119 318.16 863.669 318.16C863.114 318.16 862.559 318.117 862.005 318.032C861.45 317.904 860.938 317.733 860.469 317.52C859.018 319.312 857.375 320.848 855.541 322.128C853.749 323.408 851.935 324.048 850.101 324.048ZM859.957 314.32C861.023 312.827 861.898 311.227 862.581 309.52C863.306 307.771 863.669 306.171 863.669 304.72C863.669 303.653 863.498 302.885 863.157 302.416C862.858 301.904 862.431 301.648 861.877 301.648C861.023 301.648 860.17 302.245 859.317 303.44C858.463 304.592 858.037 306.064 858.037 307.856C858.037 308.88 858.186 310.032 858.485 311.312C858.826 312.549 859.317 313.552 859.957 314.32ZM872.892 325.008C871.527 325.008 870.353 324.539 869.372 323.6C868.348 322.704 867.836 321.339 867.836 319.504C867.836 317.968 868.177 316.325 868.86 314.576C869.543 312.827 870.481 311.099 871.676 309.392C872.871 307.685 874.236 306.128 875.772 304.72C877.308 303.312 878.929 302.181 880.636 301.328C882.385 300.475 884.113 300.048 885.82 300.048C887.612 300.048 889.105 300.517 890.3 301.456C891.537 302.352 892.156 303.547 892.156 305.04C892.156 306.192 891.793 307.003 891.068 307.472C890.343 307.941 889.447 308.091 888.38 307.92C888.465 307.579 888.529 307.216 888.572 306.832C888.657 306.405 888.7 306 888.7 305.616C888.7 304.72 888.508 303.931 888.124 303.248C887.74 302.565 886.993 302.224 885.884 302.224C884.689 302.224 883.473 302.629 882.236 303.44C880.999 304.251 879.804 305.317 878.652 306.64C877.5 307.963 876.476 309.413 875.58 310.992C874.684 312.571 873.98 314.128 873.468 315.664C872.956 317.2 872.7 318.565 872.7 319.76C872.7 321.211 873.233 321.936 874.3 321.936C875.281 321.936 876.348 321.467 877.5 320.528C878.695 319.589 879.889 318.395 881.084 316.944C882.321 315.493 883.495 314.021 884.604 312.528C885.713 310.992 886.673 309.648 887.484 308.496C887.655 308.283 887.804 308.176 887.932 308.176C888.145 308.219 888.487 308.325 888.956 308.496C889.425 308.624 889.852 308.816 890.236 309.072C890.62 309.328 890.812 309.669 890.812 310.096C890.812 310.523 890.62 311.077 890.236 311.76C889.852 312.4 889.425 313.125 888.956 313.936C888.487 314.747 888.06 315.557 887.676 316.368C887.292 317.179 887.1 317.968 887.1 318.736C887.1 319.291 887.249 319.845 887.548 320.4C887.889 320.912 888.423 321.168 889.148 321.168C890.215 321.168 891.665 320.4 893.5 318.864C895.377 317.285 897.276 314.725 899.196 311.184L900.22 312.208C899.239 314.512 898.023 316.539 896.572 318.288C895.164 320.037 893.671 321.403 892.092 322.384C890.513 323.408 888.935 323.92 887.356 323.92C885.649 323.92 884.391 323.387 883.58 322.32C882.769 321.296 882.321 320.165 882.236 318.928C882.236 318.8 882.236 318.672 882.236 318.544C882.279 318.373 882.3 318.224 882.3 318.096C880.551 320.272 878.951 321.957 877.5 323.152C876.049 324.389 874.513 325.008 872.892 325.008ZM901.974 323.92C901.163 323.92 900.353 323.728 899.542 323.344C898.774 322.96 898.113 322.341 897.558 321.488C897.003 320.635 896.726 319.568 896.726 318.288C896.726 316.88 897.067 315.301 897.75 313.552C898.433 311.803 899.35 310.053 900.502 308.304C901.697 306.555 903.062 304.955 904.598 303.504C906.134 302.053 907.755 300.88 909.462 299.984C911.169 299.088 912.875 298.64 914.582 298.64C915.521 298.64 916.246 298.811 916.758 299.152C917.313 299.451 917.59 299.963 917.59 300.688C917.59 300.901 917.547 301.115 917.462 301.328C917.419 301.541 917.291 301.755 917.078 301.968C916.865 301.669 916.545 301.477 916.118 301.392C915.734 301.264 915.286 301.2 914.774 301.2C913.366 301.2 912.022 301.605 910.742 302.416C909.462 303.184 908.267 304.208 907.158 305.488C906.091 306.768 905.153 308.155 904.342 309.648C903.574 311.099 902.977 312.528 902.55 313.936C902.123 315.301 901.91 316.475 901.91 317.456C901.91 318.309 902.081 318.992 902.422 319.504C902.806 320.016 903.339 320.272 904.022 320.272C905.174 320.272 906.561 319.589 908.182 318.224C909.803 316.816 911.446 314.832 913.11 312.272C914.817 309.669 916.353 306.597 917.718 303.056C918.657 300.624 919.638 298.149 920.662 295.632C921.686 293.072 922.71 290.619 923.734 288.272C924.758 285.883 925.761 283.771 926.742 281.936C927.723 280.101 928.662 278.651 929.558 277.584C930.454 276.475 931.286 275.92 932.054 275.92C932.481 275.92 932.843 276.091 933.142 276.432C933.483 276.773 933.654 277.2 933.654 277.712C933.654 278.395 933.291 279.547 932.566 281.168C931.883 282.789 930.987 284.731 929.878 286.992C928.769 289.211 927.574 291.643 926.294 294.288C925.057 296.891 923.883 299.557 922.774 302.288C921.707 305.019 920.811 307.685 920.086 310.288C919.403 312.891 919.062 315.323 919.062 317.584C919.062 318.651 919.147 319.419 919.318 319.888C919.489 320.315 919.851 320.528 920.406 320.528C921.302 320.528 922.326 320.165 923.478 319.44C924.673 318.672 925.867 317.584 927.062 316.176C928.257 314.725 929.323 313.019 930.262 311.056L931.35 311.888C930.454 314.192 929.281 316.24 927.83 318.032C926.422 319.781 924.886 321.147 923.222 322.128C921.601 323.152 920.001 323.664 918.422 323.664C916.758 323.664 915.585 323.109 914.902 322C914.262 320.933 913.942 319.717 913.942 318.352C913.942 317.669 914.006 316.901 914.134 316.048C914.262 315.152 914.433 314.235 914.646 313.296C913.323 315.344 911.915 317.179 910.422 318.8C908.929 320.379 907.457 321.616 906.006 322.512C904.598 323.451 903.254 323.92 901.974 323.92ZM933.741 323.856C931.949 323.856 930.605 323.301 929.709 322.192C928.812 321.125 928.364 319.803 928.364 318.224C928.364 317.243 928.535 316.005 928.877 314.512C929.218 313.019 929.687 311.461 930.285 309.84C930.925 308.176 931.65 306.619 932.461 305.168C933.271 303.717 934.125 302.544 935.021 301.648C935.959 300.709 936.877 300.24 937.773 300.24C938.242 300.24 938.647 300.389 938.989 300.688C939.373 300.987 939.565 301.413 939.565 301.968C939.565 302.523 939.223 303.355 938.541 304.464C937.901 305.573 937.133 306.875 936.237 308.368C935.341 309.819 934.551 311.333 933.869 312.912C933.229 314.491 932.909 316.005 932.909 317.456C932.909 318.864 933.165 319.803 933.677 320.272C934.189 320.741 934.935 320.976 935.917 320.976C937.367 320.976 938.925 320.251 940.589 318.8C942.295 317.349 944.066 314.811 945.901 311.184L946.733 312.08C945.325 315.835 943.447 318.736 941.101 320.784C938.797 322.832 936.343 323.856 933.741 323.856ZM941.357 294.8C940.589 294.8 939.885 294.608 939.245 294.224C938.647 293.84 938.349 293.264 938.349 292.496C938.349 291.472 938.882 290.619 939.949 289.936C941.058 289.211 942.189 288.848 943.341 288.848C944.066 288.848 944.663 289.019 945.133 289.36C945.602 289.701 945.837 290.277 945.837 291.088C945.837 291.984 945.367 292.837 944.429 293.648C943.49 294.416 942.466 294.8 941.357 294.8ZM965.623 323.28C964.044 323.28 962.828 322.875 961.975 322.064C961.164 321.253 960.759 320.229 960.759 318.992C960.759 318.096 960.908 317.179 961.207 316.24C961.506 315.259 961.804 314.277 962.103 313.296C962.402 312.272 962.551 311.291 962.551 310.352C962.551 309.328 962.316 308.624 961.847 308.24C961.378 307.856 960.823 307.664 960.183 307.664C958.903 307.664 957.58 308.197 956.215 309.264C954.892 310.331 953.591 311.675 952.311 313.296C951.031 314.875 949.836 316.539 948.727 318.288C947.618 320.037 946.658 321.595 945.847 322.96C945.079 322.96 944.354 322.832 943.671 322.576C942.988 322.32 942.412 321.872 941.943 321.232C941.986 321.019 942.242 320.379 942.711 319.312C943.138 318.203 943.628 316.88 944.183 315.344C944.738 313.765 945.228 312.144 945.655 310.48C946.124 308.816 946.359 307.28 946.359 305.872C946.658 305.573 947.106 305.253 947.703 304.912C948.3 304.571 948.919 304.4 949.559 304.4C950.924 304.4 951.607 305.019 951.607 306.256C951.607 306.811 951.479 307.707 951.223 308.944C950.967 310.139 950.626 311.461 950.199 312.912C951.308 311.333 952.546 309.819 953.911 308.368C955.276 306.875 956.706 305.659 958.199 304.72C959.692 303.781 961.207 303.312 962.743 303.312C964.492 303.312 965.772 303.931 966.583 305.168C967.436 306.363 967.863 307.707 967.863 309.2C967.863 310.48 967.65 311.696 967.223 312.848C966.796 313.957 966.37 315.024 965.943 316.048C965.559 317.029 965.367 318.011 965.367 318.992C965.367 319.717 965.516 320.251 965.815 320.592C966.156 320.891 966.562 321.04 967.031 321.04C968.055 321.04 969.1 320.549 970.167 319.568C971.276 318.544 972.322 317.285 973.303 315.792C974.327 314.256 975.223 312.72 975.991 311.184L976.951 312.016C976.055 314.107 975.052 316.005 973.943 317.712C972.834 319.419 971.596 320.784 970.231 321.808C968.866 322.789 967.33 323.28 965.623 323.28ZM977.444 339.92C976.42 339.92 975.46 339.6 974.564 338.96C973.711 338.363 973.284 337.36 973.284 335.952C973.284 334.629 973.689 333.413 974.5 332.304C975.268 331.237 976.292 330.235 977.572 329.296C978.852 328.4 980.239 327.568 981.732 326.8C983.225 326.032 984.655 325.307 986.02 324.624C986.532 323.344 987.023 321.979 987.492 320.528C987.961 319.077 988.409 317.477 988.836 315.728C987.3 317.776 985.679 319.483 983.972 320.848C982.308 322.171 980.601 322.832 978.852 322.832C977.231 322.832 975.929 322.256 974.948 321.104C974.009 319.909 973.54 318.352 973.54 316.432C973.54 314.171 974.095 312.059 975.204 310.096C976.356 308.091 977.807 306.32 979.556 304.784C981.348 303.205 983.247 301.989 985.252 301.136C987.3 300.24 989.22 299.792 991.012 299.792C992.335 299.792 993.316 300.027 993.956 300.496C994.596 300.965 994.916 301.499 994.916 302.096C994.916 302.565 994.767 302.949 994.468 303.248C994.212 303.504 994.041 303.653 993.956 303.696C993.615 303.269 993.209 302.992 992.74 302.864C992.313 302.693 991.801 302.608 991.204 302.608C989.54 302.608 987.94 303.077 986.404 304.016C984.868 304.955 983.503 306.171 982.308 307.664C981.113 309.157 980.175 310.715 979.492 312.336C978.809 313.915 978.468 315.365 978.468 316.688C978.468 317.584 978.66 318.288 979.044 318.8C979.428 319.269 979.919 319.504 980.516 319.504C981.753 319.504 983.225 318.715 984.932 317.136C986.639 315.515 988.281 313.573 989.86 311.312C989.988 310.885 990.073 310.501 990.116 310.16C990.201 309.819 990.287 309.435 990.372 309.008C990.713 307.685 991.161 306.64 991.716 305.872C992.271 305.061 993.081 304.656 994.148 304.656C994.361 304.656 994.617 304.677 994.916 304.72C995.215 304.72 995.535 304.763 995.876 304.848C995.876 305.616 995.663 306.896 995.236 308.688C994.809 310.437 994.233 312.485 993.508 314.832C992.783 317.179 991.951 319.589 991.012 322.064C992.377 321.467 993.721 320.656 995.044 319.632C996.409 318.608 997.668 317.392 998.82 315.984C999.972 314.576 1000.85 313.019 1001.44 311.312L1002.47 312.272C1001.79 314.235 1000.74 316.027 999.332 317.648C997.924 319.227 996.388 320.613 994.724 321.808C993.103 322.96 991.609 323.856 990.244 324.496C989.049 327.312 987.791 329.893 986.468 332.24C985.145 334.587 983.737 336.443 982.244 337.808C980.751 339.216 979.151 339.92 977.444 339.92ZM977.188 337.296C977.999 337.296 979.087 336.528 980.452 334.992C981.86 333.456 983.375 330.853 984.996 327.184C983.375 327.995 981.881 328.805 980.516 329.616C979.151 330.469 978.041 331.365 977.188 332.304C976.335 333.243 975.908 334.245 975.908 335.312C975.908 335.909 976.036 336.379 976.292 336.72C976.548 337.104 976.847 337.296 977.188 337.296ZM1018.93 327.568C1017.78 326.928 1017.03 326.267 1016.69 325.584C1016.39 324.901 1016.24 324.304 1016.24 323.792C1016.24 322.64 1016.67 321.083 1017.52 319.12C1018.37 317.115 1019.51 314.853 1020.91 312.336C1022.36 309.776 1023.99 307.109 1025.78 304.336C1024.37 304.251 1023.07 304.187 1021.87 304.144C1020.72 304.101 1019.4 304.08 1017.91 304.08H1016.43C1016.99 302.629 1017.88 301.627 1019.12 301.072C1020.4 300.475 1021.89 300.176 1023.6 300.176C1024.33 300.176 1025.07 300.219 1025.84 300.304C1026.65 300.389 1027.48 300.475 1028.34 300.56C1030.47 297.445 1032.6 294.459 1034.74 291.6C1036.87 288.741 1038.88 286.181 1040.75 283.92C1042.67 281.659 1044.34 279.845 1045.75 278.48C1047.54 276.731 1048.88 275.856 1049.78 275.856C1050.33 275.856 1050.95 276.069 1051.63 276.496C1052.32 276.923 1053.04 277.477 1053.81 278.16C1053.38 278.501 1052.83 279.397 1052.15 280.848C1051.51 282.256 1050.8 284.048 1050.03 286.224C1049.31 288.4 1048.56 290.789 1047.79 293.392C1047.07 295.995 1046.41 298.64 1045.81 301.328C1045.21 303.973 1044.72 306.512 1044.34 308.944C1044 311.376 1043.83 313.531 1043.83 315.408C1043.83 317.072 1044 318.331 1044.34 319.184C1044.68 320.037 1045.25 320.464 1046.07 320.464C1047.09 320.464 1048.33 319.717 1049.78 318.224C1051.23 316.688 1052.83 314.256 1054.58 310.928L1055.54 311.952C1054.21 315.451 1052.51 318.309 1050.42 320.528C1048.37 322.747 1046.19 323.856 1043.89 323.856C1041.97 323.856 1040.58 323.024 1039.73 321.36C1038.92 319.653 1038.51 317.328 1038.51 314.384C1038.51 313.275 1038.58 312.037 1038.71 310.672C1038.88 309.307 1039.11 307.728 1039.41 305.936C1037.53 305.637 1035.85 305.403 1034.35 305.232C1032.86 305.061 1031.45 304.891 1030.13 304.72C1028.12 308.347 1026.16 312.123 1024.24 316.048C1022.32 319.931 1020.55 323.771 1018.93 327.568ZM1039.99 303.12C1040.58 300.475 1041.27 297.829 1042.03 295.184C1042.84 292.496 1043.68 289.936 1044.53 287.504C1045.43 285.029 1046.28 282.832 1047.09 280.912C1045.81 281.851 1044.34 283.323 1042.67 285.328C1041.05 287.291 1039.35 289.637 1037.55 292.368C1035.76 295.099 1033.93 298.064 1032.05 301.264C1033.41 301.563 1034.76 301.883 1036.08 302.224C1037.4 302.523 1038.71 302.821 1039.99 303.12ZM1074.25 323.28C1072.67 323.28 1071.45 322.875 1070.6 322.064C1069.79 321.253 1069.38 320.229 1069.38 318.992C1069.38 318.096 1069.53 317.179 1069.83 316.24C1070.13 315.259 1070.43 314.277 1070.73 313.296C1071.03 312.272 1071.18 311.291 1071.18 310.352C1071.18 309.328 1070.94 308.624 1070.47 308.24C1070 307.856 1069.45 307.664 1068.81 307.664C1067.53 307.664 1066.21 308.197 1064.84 309.264C1063.52 310.331 1062.22 311.675 1060.94 313.296C1059.66 314.875 1058.46 316.539 1057.35 318.288C1056.24 320.037 1055.28 321.595 1054.47 322.96C1053.7 322.96 1052.98 322.832 1052.3 322.576C1051.61 322.32 1051.04 321.872 1050.57 321.232C1050.61 321.019 1050.87 320.379 1051.34 319.312C1051.76 318.203 1052.25 316.88 1052.81 315.344C1053.36 313.765 1053.85 312.144 1054.28 310.48C1054.75 308.816 1054.98 307.28 1054.98 305.872C1055.28 305.573 1055.73 305.253 1056.33 304.912C1056.93 304.571 1057.54 304.4 1058.18 304.4C1059.55 304.4 1060.23 305.019 1060.23 306.256C1060.23 306.811 1060.1 307.707 1059.85 308.944C1059.59 310.139 1059.25 311.461 1058.82 312.912C1059.93 311.333 1061.17 309.819 1062.54 308.368C1063.9 306.875 1065.33 305.659 1066.82 304.72C1068.32 303.781 1069.83 303.312 1071.37 303.312C1073.12 303.312 1074.4 303.931 1075.21 305.168C1076.06 306.363 1076.49 307.707 1076.49 309.2C1076.49 310.48 1076.27 311.696 1075.85 312.848C1075.42 313.957 1074.99 315.024 1074.57 316.048C1074.18 317.029 1073.99 318.011 1073.99 318.992C1073.99 319.717 1074.14 320.251 1074.44 320.592C1074.78 320.891 1075.19 321.04 1075.66 321.04C1076.68 321.04 1077.73 320.549 1078.79 319.568C1079.9 318.544 1080.95 317.285 1081.93 315.792C1082.95 314.256 1083.85 312.72 1084.62 311.184L1085.58 312.016C1084.68 314.107 1083.68 316.005 1082.57 317.712C1081.46 319.419 1080.22 320.784 1078.86 321.808C1077.49 322.789 1075.95 323.28 1074.25 323.28ZM1087.35 323.92C1086.54 323.92 1085.73 323.728 1084.92 323.344C1084.15 322.96 1083.49 322.341 1082.93 321.488C1082.38 320.635 1082.1 319.568 1082.1 318.288C1082.1 316.88 1082.44 315.301 1083.12 313.552C1083.81 311.803 1084.73 310.053 1085.88 308.304C1087.07 306.555 1088.44 304.955 1089.97 303.504C1091.51 302.053 1093.13 300.88 1094.84 299.984C1096.54 299.088 1098.25 298.64 1099.96 298.64C1100.9 298.64 1101.62 298.811 1102.13 299.152C1102.69 299.451 1102.97 299.963 1102.97 300.688C1102.97 300.901 1102.92 301.115 1102.84 301.328C1102.79 301.541 1102.67 301.755 1102.45 301.968C1102.24 301.669 1101.92 301.477 1101.49 301.392C1101.11 301.264 1100.66 301.2 1100.15 301.2C1098.74 301.2 1097.4 301.605 1096.12 302.416C1094.84 303.184 1093.64 304.208 1092.53 305.488C1091.47 306.768 1090.53 308.155 1089.72 309.648C1088.95 311.099 1088.35 312.528 1087.93 313.936C1087.5 315.301 1087.29 316.475 1087.29 317.456C1087.29 318.309 1087.46 318.992 1087.8 319.504C1088.18 320.016 1088.71 320.272 1089.4 320.272C1090.55 320.272 1091.94 319.589 1093.56 318.224C1095.18 316.816 1096.82 314.832 1098.49 312.272C1100.19 309.669 1101.73 306.597 1103.09 303.056C1104.03 300.624 1105.01 298.149 1106.04 295.632C1107.06 293.072 1108.09 290.619 1109.11 288.272C1110.13 285.883 1111.14 283.771 1112.12 281.936C1113.1 280.101 1114.04 278.651 1114.93 277.584C1115.83 276.475 1116.66 275.92 1117.43 275.92C1117.86 275.92 1118.22 276.091 1118.52 276.432C1118.86 276.773 1119.03 277.2 1119.03 277.712C1119.03 278.395 1118.67 279.547 1117.94 281.168C1117.26 282.789 1116.36 284.731 1115.25 286.992C1114.14 289.211 1112.95 291.643 1111.67 294.288C1110.43 296.891 1109.26 299.557 1108.15 302.288C1107.08 305.019 1106.19 307.685 1105.46 310.288C1104.78 312.891 1104.44 315.323 1104.44 317.584C1104.44 318.651 1104.52 319.419 1104.69 319.888C1104.86 320.315 1105.23 320.528 1105.78 320.528C1106.68 320.528 1107.7 320.165 1108.85 319.44C1110.05 318.672 1111.24 317.584 1112.44 316.176C1113.63 314.725 1114.7 313.019 1115.64 311.056L1116.73 311.888C1115.83 314.192 1114.66 316.24 1113.21 318.032C1111.8 319.781 1110.26 321.147 1108.6 322.128C1106.98 323.152 1105.38 323.664 1103.8 323.664C1102.13 323.664 1100.96 323.109 1100.28 322C1099.64 320.933 1099.32 319.717 1099.32 318.352C1099.32 317.669 1099.38 316.901 1099.51 316.048C1099.64 315.152 1099.81 314.235 1100.02 313.296C1098.7 315.344 1097.29 317.179 1095.8 318.8C1094.3 320.379 1092.83 321.616 1091.38 322.512C1089.97 323.451 1088.63 323.92 1087.35 323.92ZM180.272 404.568C177.84 404.568 175.536 404.141 173.36 403.288C171.184 402.435 169.413 401.133 168.048 399.384C166.725 397.677 166.064 395.523 166.064 392.92C166.064 390.659 166.533 388.888 167.472 387.608C168.453 386.328 169.669 385.432 171.12 384.92C172.571 384.408 173.979 384.152 175.344 384.152C174.021 385.517 173.019 386.968 172.336 388.504C171.696 390.04 171.376 391.512 171.376 392.92C171.376 394.413 171.739 395.821 172.464 397.144C173.189 398.424 174.299 399.469 175.792 400.28C177.285 401.091 179.141 401.496 181.36 401.496C183.28 401.496 185.136 401.155 186.928 400.472C188.763 399.832 190.256 398.851 191.408 397.528C192.603 396.205 193.2 394.563 193.2 392.6C193.2 390.808 192.709 389.272 191.728 387.992C190.747 386.712 189.488 385.581 187.952 384.6C186.416 383.576 184.773 382.616 183.024 381.72C181.317 380.781 179.696 379.779 178.16 378.712C176.624 377.645 175.365 376.429 174.384 375.064C173.403 373.656 172.912 371.971 172.912 370.008C172.912 368.259 173.339 366.403 174.192 364.44C175.088 362.435 176.325 360.557 177.904 358.808C179.525 357.059 181.467 355.651 183.728 354.584C186.032 353.475 188.592 352.92 191.408 352.92C194.181 352.92 196.123 353.539 197.232 354.776C198.384 356.013 198.96 357.592 198.96 359.512C198.96 361.091 198.683 362.776 198.128 364.568C197.616 366.36 196.955 368.067 196.144 369.688C195.376 371.267 194.629 372.632 193.904 373.784C193.008 373.571 192.347 373.208 191.92 372.696C191.536 372.184 191.344 371.523 191.344 370.712C191.344 369.816 191.515 368.813 191.856 367.704C192.24 366.552 192.667 365.379 193.136 364.184C193.648 362.947 194.096 361.773 194.48 360.664C194.864 359.512 195.056 358.488 195.056 357.592C195.056 356.781 194.821 356.163 194.352 355.736C193.883 355.267 192.944 355.032 191.536 355.032C189.531 355.032 187.675 355.501 185.968 356.44C184.261 357.336 182.768 358.488 181.488 359.896C180.251 361.304 179.269 362.776 178.544 364.312C177.861 365.848 177.52 367.256 177.52 368.536C177.52 370.072 177.989 371.395 178.928 372.504C179.909 373.613 181.147 374.616 182.64 375.512C184.176 376.408 185.797 377.325 187.504 378.264C189.211 379.16 190.811 380.163 192.304 381.272C193.84 382.381 195.077 383.704 196.016 385.24C196.997 386.733 197.488 388.589 197.488 390.808C197.488 393.027 196.997 394.989 196.016 396.696C195.035 398.403 193.691 399.832 191.984 400.984C190.32 402.136 188.464 403.011 186.416 403.608C184.368 404.248 182.32 404.568 180.272 404.568ZM204.507 401.432C203.611 401.432 202.949 400.707 202.523 399.256C202.096 397.848 201.883 396.227 201.883 394.392C201.883 392.387 202.224 389.997 202.907 387.224C203.589 384.451 204.485 381.528 205.595 378.456C206.704 375.341 207.941 372.312 209.307 369.368C210.715 366.381 212.144 363.693 213.595 361.304C215.088 358.872 216.496 356.931 217.819 355.48C219.141 354.029 220.293 353.304 221.275 353.304C222.128 353.304 222.768 353.795 223.195 354.776C223.621 355.715 223.835 356.675 223.835 357.656C223.835 358.851 223.557 360.301 223.003 362.008C222.491 363.672 221.765 365.464 220.827 367.384C219.888 369.304 218.779 371.203 217.499 373.08C216.261 374.957 214.917 376.664 213.467 378.2C212.016 379.736 210.501 380.973 208.923 381.912C208.411 383.277 207.984 384.643 207.643 386.008C207.301 387.331 207.045 388.611 206.875 389.848C206.747 391.085 206.683 392.259 206.683 393.368C206.683 393.667 206.683 393.965 206.683 394.264C206.725 394.52 206.768 394.755 206.811 394.968C207.109 394.2 207.493 393.197 207.963 391.96C208.475 390.68 209.072 389.336 209.755 387.928C210.48 386.52 211.312 385.176 212.251 383.896C213.232 382.616 214.341 381.592 215.579 380.824C216.816 380.013 218.181 379.608 219.675 379.608C221.04 379.608 222.107 379.928 222.875 380.568C223.685 381.165 224.24 381.933 224.539 382.872C224.88 383.811 225.051 384.771 225.051 385.752C225.051 387.075 224.816 388.355 224.347 389.592C223.92 390.787 223.472 391.939 223.003 393.048C222.576 394.115 222.363 395.139 222.363 396.12C222.363 396.888 222.533 397.443 222.875 397.784C223.216 398.125 223.643 398.296 224.155 398.296C225.093 398.296 226.181 397.827 227.419 396.888C228.699 395.949 229.936 394.712 231.131 393.176C232.368 391.597 233.435 389.869 234.331 387.992L235.291 388.952C234.352 391.085 233.221 393.027 231.899 394.776C230.576 396.525 229.125 397.933 227.547 399C226.011 400.024 224.368 400.536 222.619 400.536C221.04 400.536 219.845 400.109 219.035 399.256C218.224 398.445 217.819 397.421 217.819 396.184C217.819 395.288 217.968 394.307 218.267 393.24C218.608 392.131 218.928 391.021 219.227 389.912C219.525 388.76 219.675 387.715 219.675 386.776C219.675 385.752 219.44 385.027 218.971 384.6C218.544 384.173 218.011 383.96 217.371 383.96C216.304 383.96 215.344 384.387 214.491 385.24C213.637 386.093 212.848 387.181 212.123 388.504C211.44 389.827 210.8 391.235 210.203 392.728C209.605 394.179 209.008 395.587 208.411 396.952C207.856 398.275 207.259 399.341 206.619 400.152C205.979 401.005 205.275 401.432 204.507 401.432ZM210.139 378.328C211.248 377.347 212.336 376.173 213.403 374.808C214.469 373.4 215.451 371.928 216.347 370.392C217.285 368.856 218.096 367.363 218.779 365.912C219.461 364.461 219.995 363.16 220.378 362.008C220.805 360.856 221.04 359.96 221.083 359.32C221.083 359.235 221.061 359.171 221.019 359.128C221.019 359.085 220.997 359.064 220.955 359.064C220.699 359.064 220.144 359.619 219.291 360.728C218.437 361.795 217.435 363.245 216.283 365.08C215.173 366.915 214.064 368.984 212.955 371.288C211.845 373.592 210.907 375.939 210.139 378.328ZM236.205 402.008C234.839 402.008 233.666 401.539 232.684 400.6C231.66 399.704 231.148 398.339 231.148 396.504C231.148 394.968 231.49 393.325 232.172 391.576C232.855 389.827 233.794 388.099 234.989 386.392C236.183 384.685 237.549 383.128 239.085 381.72C240.621 380.312 242.242 379.181 243.949 378.328C245.698 377.475 247.426 377.048 249.133 377.048C250.925 377.048 252.418 377.517 253.613 378.456C254.85 379.352 255.469 380.547 255.469 382.04C255.469 383.192 255.106 384.003 254.381 384.472C253.655 384.941 252.759 385.091 251.693 384.92C251.778 384.579 251.842 384.216 251.885 383.832C251.97 383.405 252.013 383 252.013 382.616C252.013 381.72 251.821 380.931 251.437 380.248C251.053 379.565 250.306 379.224 249.197 379.224C248.002 379.224 246.786 379.629 245.549 380.44C244.311 381.251 243.117 382.317 241.965 383.64C240.813 384.963 239.789 386.413 238.893 387.992C237.997 389.571 237.293 391.128 236.781 392.664C236.269 394.2 236.013 395.565 236.013 396.76C236.013 398.211 236.546 398.936 237.613 398.936C238.594 398.936 239.661 398.467 240.812 397.528C242.007 396.589 243.202 395.395 244.397 393.944C245.634 392.493 246.807 391.021 247.917 389.528C249.026 387.992 249.986 386.648 250.797 385.496C250.967 385.283 251.117 385.176 251.245 385.176C251.458 385.219 251.799 385.325 252.269 385.496C252.738 385.624 253.165 385.816 253.549 386.072C253.933 386.328 254.125 386.669 254.125 387.096C254.125 387.523 253.933 388.077 253.549 388.76C253.165 389.4 252.738 390.125 252.269 390.936C251.799 391.747 251.373 392.557 250.989 393.368C250.605 394.179 250.413 394.968 250.413 395.736C250.413 396.291 250.562 396.845 250.861 397.4C251.202 397.912 251.735 398.168 252.461 398.168C253.527 398.168 254.978 397.4 256.813 395.864C258.69 394.285 260.589 391.725 262.509 388.184L263.533 389.208C262.551 391.512 261.335 393.539 259.885 395.288C258.477 397.037 256.983 398.403 255.405 399.384C253.826 400.408 252.247 400.92 250.669 400.92C248.962 400.92 247.703 400.387 246.893 399.32C246.082 398.296 245.634 397.165 245.549 395.928C245.549 395.8 245.549 395.672 245.549 395.544C245.591 395.373 245.613 395.224 245.613 395.096C243.863 397.272 242.263 398.957 240.812 400.152C239.362 401.389 237.826 402.008 236.205 402.008ZM272.647 400.664C271.111 400.664 269.873 400.259 268.935 399.448C267.996 398.637 267.527 397.549 267.527 396.184C267.527 394.989 267.825 393.709 268.423 392.344C269.02 390.936 269.617 389.571 270.215 388.248C270.855 386.883 271.175 385.667 271.175 384.6C271.175 383.491 270.812 382.616 270.087 381.976C269.404 381.293 268.657 380.717 267.847 380.248C266.865 382.68 265.799 385.005 264.647 387.224C263.537 389.443 262.62 391.149 261.895 392.344L261.062 390.744C261.66 389.635 262.449 388.056 263.431 386.008C264.412 383.917 265.351 381.571 266.247 378.968C265.82 378.541 265.607 377.987 265.607 377.304C265.607 376.152 265.948 375.107 266.631 374.168C267.356 373.229 267.996 372.76 268.551 372.76C269.02 372.76 269.34 373.037 269.51 373.592C269.724 374.104 269.831 374.467 269.831 374.68C269.831 374.893 269.724 375.299 269.51 375.896C269.297 376.451 269.169 376.835 269.127 377.048C269.127 377.56 269.468 378.051 270.151 378.52C270.876 378.947 271.665 379.48 272.519 380.12C273.415 380.717 274.204 381.464 274.887 382.36C275.569 383.213 275.911 384.323 275.911 385.688C275.911 386.968 275.633 388.248 275.079 389.528C274.524 390.808 273.969 392.024 273.415 393.176C272.86 394.328 272.583 395.309 272.583 396.12C272.583 396.803 272.753 397.251 273.095 397.464C273.436 397.677 273.841 397.784 274.311 397.784C275.335 397.784 276.401 397.464 277.51 396.824C278.62 396.184 279.687 395.373 280.711 394.392C281.777 393.411 282.716 392.387 283.527 391.32C284.337 390.211 284.956 389.208 285.383 388.312L286.663 389.272C285.852 391.107 284.7 392.899 283.207 394.648C281.713 396.397 280.049 397.848 278.215 399C276.38 400.109 274.524 400.664 272.647 400.664ZM288.928 400.856C287.136 400.856 285.792 400.301 284.896 399.192C284 398.125 283.552 396.803 283.552 395.224C283.552 394.243 283.723 393.005 284.064 391.512C284.405 390.019 284.875 388.461 285.472 386.84C286.112 385.176 286.837 383.619 287.648 382.168C288.459 380.717 289.312 379.544 290.208 378.648C291.147 377.709 292.064 377.24 292.96 377.24C293.429 377.24 293.835 377.389 294.176 377.688C294.56 377.987 294.752 378.413 294.752 378.968C294.752 379.523 294.411 380.355 293.728 381.464C293.088 382.573 292.32 383.875 291.424 385.368C290.528 386.819 289.739 388.333 289.056 389.912C288.416 391.491 288.096 393.005 288.096 394.456C288.096 395.864 288.352 396.803 288.864 397.272C289.376 397.741 290.123 397.976 291.104 397.976C292.555 397.976 294.112 397.251 295.776 395.8C297.483 394.349 299.253 391.811 301.088 388.184L301.92 389.08C300.512 392.835 298.635 395.736 296.288 397.784C293.984 399.832 291.531 400.856 288.928 400.856ZM296.544 371.8C295.776 371.8 295.072 371.608 294.432 371.224C293.835 370.84 293.536 370.264 293.536 369.496C293.536 368.472 294.069 367.619 295.136 366.936C296.245 366.211 297.376 365.848 298.528 365.848C299.253 365.848 299.851 366.019 300.32 366.36C300.789 366.701 301.024 367.277 301.024 368.088C301.024 368.984 300.555 369.837 299.616 370.648C298.677 371.416 297.653 371.8 296.544 371.8ZM320.811 400.28C319.232 400.28 318.016 399.875 317.163 399.064C316.352 398.253 315.947 397.229 315.947 395.992C315.947 395.096 316.096 394.179 316.395 393.24C316.693 392.259 316.992 391.277 317.291 390.296C317.589 389.272 317.739 388.291 317.739 387.352C317.739 386.328 317.504 385.624 317.035 385.24C316.565 384.856 316.011 384.664 315.371 384.664C314.091 384.664 312.768 385.197 311.403 386.264C310.08 387.331 308.779 388.675 307.499 390.296C306.219 391.875 305.024 393.539 303.915 395.288C302.805 397.037 301.845 398.595 301.035 399.96C300.267 399.96 299.541 399.832 298.858 399.576C298.176 399.32 297.6 398.872 297.13 398.232C297.173 398.019 297.429 397.379 297.898 396.312C298.325 395.203 298.816 393.88 299.37 392.344C299.925 390.765 300.416 389.144 300.843 387.48C301.312 385.816 301.547 384.28 301.547 382.872C301.845 382.573 302.293 382.253 302.891 381.912C303.488 381.571 304.106 381.4 304.747 381.4C306.112 381.4 306.795 382.019 306.795 383.256C306.795 383.811 306.667 384.707 306.411 385.944C306.155 387.139 305.813 388.461 305.387 389.912C306.496 388.333 307.733 386.819 309.099 385.368C310.464 383.875 311.893 382.659 313.387 381.72C314.88 380.781 316.395 380.312 317.931 380.312C319.68 380.312 320.96 380.931 321.771 382.168C322.624 383.363 323.051 384.707 323.051 386.2C323.051 387.48 322.837 388.696 322.411 389.848C321.984 390.957 321.557 392.024 321.131 393.048C320.747 394.029 320.555 395.011 320.555 395.992C320.555 396.717 320.704 397.251 321.003 397.592C321.344 397.891 321.749 398.04 322.219 398.04C323.243 398.04 324.288 397.549 325.355 396.568C326.464 395.544 327.509 394.285 328.491 392.792C329.515 391.256 330.411 389.72 331.179 388.184L332.139 389.016C331.243 391.107 330.24 393.005 329.131 394.712C328.021 396.419 326.784 397.784 325.419 398.808C324.053 399.789 322.517 400.28 320.811 400.28ZM332.632 416.92C331.608 416.92 330.648 416.6 329.752 415.96C328.898 415.363 328.471 414.36 328.471 412.952C328.471 411.629 328.877 410.413 329.688 409.304C330.456 408.237 331.48 407.235 332.76 406.296C334.04 405.4 335.426 404.568 336.92 403.8C338.413 403.032 339.842 402.307 341.208 401.624C341.72 400.344 342.21 398.979 342.68 397.528C343.149 396.077 343.597 394.477 344.024 392.728C342.488 394.776 340.866 396.483 339.16 397.848C337.496 399.171 335.789 399.832 334.04 399.832C332.418 399.832 331.117 399.256 330.136 398.104C329.197 396.909 328.727 395.352 328.727 393.432C328.727 391.171 329.282 389.059 330.392 387.096C331.544 385.091 332.994 383.32 334.744 381.784C336.536 380.205 338.434 378.989 340.44 378.136C342.488 377.24 344.408 376.792 346.2 376.792C347.522 376.792 348.504 377.027 349.144 377.496C349.784 377.965 350.104 378.499 350.104 379.096C350.104 379.565 349.954 379.949 349.656 380.248C349.4 380.504 349.229 380.653 349.144 380.696C348.802 380.269 348.397 379.992 347.928 379.864C347.501 379.693 346.989 379.608 346.392 379.608C344.728 379.608 343.128 380.077 341.592 381.016C340.056 381.955 338.69 383.171 337.496 384.664C336.301 386.157 335.362 387.715 334.68 389.336C333.997 390.915 333.656 392.365 333.656 393.688C333.656 394.584 333.848 395.288 334.232 395.8C334.616 396.269 335.106 396.504 335.704 396.504C336.941 396.504 338.413 395.715 340.12 394.136C341.826 392.515 343.469 390.573 345.048 388.312C345.176 387.885 345.261 387.501 345.304 387.16C345.389 386.819 345.474 386.435 345.56 386.008C345.901 384.685 346.349 383.64 346.904 382.872C347.458 382.061 348.269 381.656 349.336 381.656C349.549 381.656 349.805 381.677 350.104 381.72C350.402 381.72 350.722 381.763 351.064 381.848C351.064 382.616 350.85 383.896 350.424 385.688C349.997 387.437 349.421 389.485 348.696 391.832C347.97 394.179 347.138 396.589 346.2 399.064C347.565 398.467 348.909 397.656 350.232 396.632C351.597 395.608 352.856 394.392 354.008 392.984C355.16 391.576 356.034 390.019 356.632 388.312L357.656 389.272C356.973 391.235 355.928 393.027 354.52 394.648C353.112 396.227 351.576 397.613 349.912 398.808C348.29 399.96 346.797 400.856 345.432 401.496C344.237 404.312 342.978 406.893 341.656 409.24C340.333 411.587 338.925 413.443 337.432 414.808C335.938 416.216 334.338 416.92 332.632 416.92ZM332.376 414.296C333.186 414.296 334.274 413.528 335.64 411.992C337.048 410.456 338.562 407.853 340.184 404.184C338.562 404.995 337.069 405.805 335.704 406.616C334.338 407.469 333.229 408.365 332.376 409.304C331.522 410.243 331.096 411.245 331.096 412.312C331.096 412.909 331.224 413.379 331.48 413.72C331.736 414.104 332.034 414.296 332.376 414.296ZM370.212 404.632C370.383 402.883 370.959 401.603 371.941 400.792C372.965 400.024 374.266 399.512 375.845 399.256C377.466 399.043 379.194 398.936 381.029 398.936C381.797 397.272 382.543 395.288 383.269 392.984C383.994 390.637 384.698 388.141 385.381 385.496C386.063 382.851 386.725 380.141 387.365 377.368C388.005 374.595 388.602 371.928 389.157 369.368C389.754 366.765 390.309 364.419 390.821 362.328C391.333 360.237 391.823 358.531 392.293 357.208C390.074 357.251 388.133 357.336 386.469 357.464C384.847 357.549 383.311 357.699 381.861 357.912C380.453 358.125 378.959 358.381 377.381 358.68C377.765 356.717 379.045 355.288 381.22 354.392C383.397 353.453 386.703 352.984 391.141 352.984C393.359 352.984 395.642 353.069 397.989 353.24C400.378 353.411 402.554 353.603 404.517 353.816C406.479 354.029 408.015 354.221 409.125 354.392C407.802 355.629 406.522 356.397 405.285 356.696C404.09 356.995 403.023 357.144 402.085 357.144C400.719 357.144 399.482 357.144 398.373 357.144C397.263 357.144 396.197 357.165 395.173 357.208C394.917 358.445 394.597 360.088 394.213 362.136C393.871 364.141 393.466 366.36 392.997 368.792C392.57 371.181 392.122 373.613 391.653 376.088C391.226 378.563 390.778 380.888 390.309 383.064C389.882 385.24 389.477 387.075 389.093 388.568C388.495 390.957 387.791 393.069 386.981 394.904C386.213 396.739 385.295 398.104 384.229 399C386.49 399.171 388.794 399.384 391.141 399.64C393.53 399.939 395.983 400.131 398.501 400.216C396.965 401.667 395.45 402.563 393.957 402.904C392.506 403.288 391.29 403.48 390.309 403.48C387.877 403.48 385.743 403.48 383.909 403.48C382.117 403.523 380.474 403.565 378.981 403.608C377.53 403.693 376.101 403.821 374.693 403.992C373.327 404.163 371.834 404.376 370.212 404.632ZM435.276 400.984C433.654 400.984 432.46 400.493 431.692 399.512C430.924 398.573 430.54 397.443 430.54 396.12C430.54 395.096 430.689 394.093 430.988 393.112C431.286 392.088 431.585 391.085 431.884 390.104C432.225 389.123 432.396 388.227 432.396 387.416C432.396 386.648 432.225 386.115 431.884 385.816C431.585 385.517 431.222 385.368 430.796 385.368C429.772 385.368 428.62 386.157 427.34 387.736C426.06 389.272 424.438 391.491 422.476 394.392C421.793 395.416 421.174 396.483 420.62 397.592C420.065 398.701 419.553 399.661 419.083 400.472C418.742 400.472 418.273 400.408 417.676 400.28C417.078 400.152 416.545 399.981 416.076 399.768C415.649 399.555 415.436 399.277 415.436 398.936C415.436 398.552 415.649 397.805 416.076 396.696C416.502 395.587 416.993 394.285 417.548 392.792C418.102 391.299 418.572 389.827 418.956 388.376C419.382 386.883 419.596 385.624 419.596 384.6C419.596 383.96 419.489 383.469 419.276 383.128C419.062 382.744 418.7 382.552 418.188 382.552C417.292 382.552 416.204 383.107 414.924 384.216C413.644 385.283 412.3 386.691 410.892 388.44C409.484 390.189 408.161 392.152 406.924 394.328C405.729 396.461 404.748 398.595 403.98 400.728C403.51 400.728 402.956 400.643 402.316 400.472C401.675 400.301 401.121 400.088 400.651 399.832C400.182 399.576 399.947 399.341 399.947 399.128C399.947 399 400.118 398.339 400.459 397.144C400.801 395.949 401.227 394.477 401.739 392.728C402.209 390.979 402.657 389.187 403.084 387.352C403.553 385.517 403.916 383.896 404.172 382.488C404.342 382.104 404.79 381.741 405.516 381.4C406.241 381.059 406.902 380.888 407.5 380.888C408.097 380.888 408.566 381.059 408.908 381.4C409.292 381.741 409.484 382.211 409.484 382.808C409.484 383.277 409.377 384.024 409.164 385.048C408.95 386.029 408.673 387.139 408.332 388.376C409.228 387.096 410.188 385.837 411.212 384.6C412.236 383.32 413.302 382.168 414.412 381.144C415.564 380.12 416.694 379.309 417.804 378.712C418.956 378.072 420.086 377.752 421.196 377.752C422.689 377.752 423.692 378.285 424.204 379.352C424.758 380.419 425.036 381.613 425.036 382.936C425.036 383.661 424.95 384.408 424.78 385.176C424.652 385.944 424.481 386.669 424.268 387.352C424.097 388.035 423.884 388.717 423.628 389.4C424.438 388.077 425.356 386.819 426.38 385.624C427.404 384.429 428.492 383.491 429.644 382.808C430.796 382.083 432.033 381.72 433.356 381.72C434.934 381.72 436.022 382.189 436.62 383.128C437.217 384.067 437.516 385.112 437.516 386.264C437.516 387.373 437.324 388.568 436.94 389.848C436.598 391.085 436.236 392.28 435.852 393.432C435.468 394.541 435.276 395.501 435.276 396.312C435.276 396.781 435.382 397.208 435.596 397.592C435.852 397.976 436.321 398.168 437.004 398.168C438.156 398.168 439.265 397.635 440.332 396.568C441.398 395.501 442.38 394.2 443.276 392.664C444.172 391.085 444.94 389.592 445.58 388.184L446.54 389.336C445.857 391.128 444.982 392.92 443.916 394.712C442.849 396.504 441.59 397.997 440.14 399.192C438.689 400.387 437.068 400.984 435.276 400.984ZM447.517 402.008C446.152 402.008 444.978 401.539 443.997 400.6C442.973 399.704 442.461 398.339 442.461 396.504C442.461 394.968 442.802 393.325 443.485 391.576C444.168 389.827 445.106 388.099 446.301 386.392C447.496 384.685 448.861 383.128 450.397 381.72C451.933 380.312 453.554 379.181 455.261 378.328C457.01 377.475 458.738 377.048 460.445 377.048C462.237 377.048 463.73 377.517 464.925 378.456C466.162 379.352 466.781 380.547 466.781 382.04C466.781 383.192 466.418 384.003 465.693 384.472C464.968 384.941 464.072 385.091 463.005 384.92C463.09 384.579 463.154 384.216 463.197 383.832C463.282 383.405 463.325 383 463.325 382.616C463.325 381.72 463.133 380.931 462.749 380.248C462.365 379.565 461.618 379.224 460.509 379.224C459.314 379.224 458.098 379.629 456.861 380.44C455.624 381.251 454.429 382.317 453.277 383.64C452.125 384.963 451.101 386.413 450.205 387.992C449.309 389.571 448.605 391.128 448.093 392.664C447.581 394.2 447.325 395.565 447.325 396.76C447.325 398.211 447.858 398.936 448.925 398.936C449.906 398.936 450.973 398.467 452.125 397.528C453.32 396.589 454.514 395.395 455.709 393.944C456.946 392.493 458.12 391.021 459.229 389.528C460.338 387.992 461.298 386.648 462.109 385.496C462.28 385.283 462.429 385.176 462.557 385.176C462.77 385.219 463.112 385.325 463.581 385.496C464.05 385.624 464.477 385.816 464.861 386.072C465.245 386.328 465.437 386.669 465.437 387.096C465.437 387.523 465.245 388.077 464.861 388.76C464.477 389.4 464.05 390.125 463.581 390.936C463.112 391.747 462.685 392.557 462.301 393.368C461.917 394.179 461.725 394.968 461.725 395.736C461.725 396.291 461.874 396.845 462.173 397.4C462.514 397.912 463.048 398.168 463.773 398.168C464.84 398.168 466.29 397.4 468.125 395.864C470.002 394.285 471.901 391.725 473.821 388.184L474.845 389.208C473.864 391.512 472.648 393.539 471.197 395.288C469.789 397.037 468.296 398.403 466.717 399.384C465.138 400.408 463.56 400.92 461.981 400.92C460.274 400.92 459.016 400.387 458.205 399.32C457.394 398.296 456.946 397.165 456.861 395.928C456.861 395.8 456.861 395.672 456.861 395.544C456.904 395.373 456.925 395.224 456.925 395.096C455.176 397.272 453.576 398.957 452.125 400.152C450.674 401.389 449.138 402.008 447.517 402.008ZM475.319 416.92C474.295 416.92 473.335 416.6 472.439 415.96C471.586 415.363 471.159 414.36 471.159 412.952C471.159 411.629 471.564 410.413 472.375 409.304C473.143 408.237 474.167 407.235 475.447 406.296C476.727 405.4 478.114 404.568 479.607 403.8C481.1 403.032 482.53 402.307 483.895 401.624C484.407 400.344 484.898 398.979 485.367 397.528C485.836 396.077 486.284 394.477 486.711 392.728C485.175 394.776 483.554 396.483 481.847 397.848C480.183 399.171 478.476 399.832 476.727 399.832C475.106 399.832 473.804 399.256 472.823 398.104C471.884 396.909 471.415 395.352 471.415 393.432C471.415 391.171 471.97 389.059 473.079 387.096C474.231 385.091 475.682 383.32 477.431 381.784C479.223 380.205 481.122 378.989 483.127 378.136C485.175 377.24 487.095 376.792 488.887 376.792C490.21 376.792 491.191 377.027 491.831 377.496C492.471 377.965 492.791 378.499 492.791 379.096C492.791 379.565 492.642 379.949 492.343 380.248C492.087 380.504 491.916 380.653 491.831 380.696C491.49 380.269 491.084 379.992 490.615 379.864C490.188 379.693 489.676 379.608 489.079 379.608C487.415 379.608 485.815 380.077 484.279 381.016C482.743 381.955 481.378 383.171 480.183 384.664C478.988 386.157 478.05 387.715 477.367 389.336C476.684 390.915 476.343 392.365 476.343 393.688C476.343 394.584 476.535 395.288 476.919 395.8C477.303 396.269 477.794 396.504 478.391 396.504C479.628 396.504 481.1 395.715 482.807 394.136C484.514 392.515 486.156 390.573 487.735 388.312C487.863 387.885 487.948 387.501 487.991 387.16C488.076 386.819 488.162 386.435 488.247 386.008C488.588 384.685 489.036 383.64 489.591 382.872C490.146 382.061 490.956 381.656 492.023 381.656C492.236 381.656 492.492 381.677 492.791 381.72C493.09 381.72 493.41 381.763 493.751 381.848C493.751 382.616 493.538 383.896 493.111 385.688C492.684 387.437 492.108 389.485 491.383 391.832C490.658 394.179 489.826 396.589 488.887 399.064C490.252 398.467 491.596 397.656 492.919 396.632C494.284 395.608 495.543 394.392 496.695 392.984C497.847 391.576 498.722 390.019 499.319 388.312L500.343 389.272C499.66 391.235 498.615 393.027 497.207 394.648C495.799 396.227 494.263 397.613 492.599 398.808C490.978 399.96 489.484 400.856 488.119 401.496C486.924 404.312 485.666 406.893 484.343 409.24C483.02 411.587 481.612 413.443 480.119 414.808C478.626 416.216 477.026 416.92 475.319 416.92ZM475.063 414.296C475.874 414.296 476.962 413.528 478.327 411.992C479.735 410.456 481.25 407.853 482.871 404.184C481.25 404.995 479.756 405.805 478.391 406.616C477.026 407.469 475.916 408.365 475.063 409.304C474.21 410.243 473.783 411.245 473.783 412.312C473.783 412.909 473.911 413.379 474.167 413.72C474.423 414.104 474.722 414.296 475.063 414.296ZM505.107 401.816C502.419 401.816 500.371 401.091 498.963 399.64C497.555 398.189 496.851 396.376 496.851 394.2C496.851 392.28 497.32 390.275 498.259 388.184C499.24 386.051 500.542 384.067 502.163 382.232C503.784 380.355 505.555 378.84 507.475 377.688C509.438 376.493 511.379 375.896 513.299 375.896C514.366 375.896 515.368 376.173 516.307 376.728C517.288 377.283 517.779 378.392 517.779 380.056C517.779 381.677 517.288 383.213 516.307 384.664C515.368 386.072 514.11 387.331 512.531 388.44C510.995 389.549 509.267 390.467 507.347 391.192C505.47 391.875 503.592 392.301 501.715 392.472C501.672 392.728 501.63 392.984 501.587 393.24C501.544 393.496 501.523 393.837 501.523 394.264C501.523 394.605 501.566 395.075 501.651 395.672C501.779 396.227 501.992 396.803 502.291 397.4C502.632 397.955 503.144 398.424 503.827 398.808C504.51 399.192 505.406 399.384 506.515 399.384C508.307 399.384 510.099 398.872 511.891 397.848C513.726 396.824 515.432 395.48 517.011 393.816C518.59 392.109 519.912 390.232 520.979 388.184L522.067 389.08C520.915 391.64 519.443 393.88 517.651 395.8C515.859 397.677 513.875 399.149 511.699 400.216C509.566 401.283 507.368 401.816 505.107 401.816ZM502.291 390.488C503.4 390.275 504.659 389.848 506.067 389.208C507.475 388.525 508.819 387.693 510.099 386.712C511.379 385.688 512.424 384.579 513.235 383.384C514.088 382.189 514.515 380.973 514.515 379.736C514.515 379.267 514.43 378.925 514.259 378.712C514.088 378.499 513.79 378.392 513.363 378.392C512.339 378.392 511.272 378.776 510.163 379.544C509.096 380.269 508.03 381.229 506.963 382.424C505.939 383.576 505.022 384.877 504.211 386.328C503.4 387.736 502.76 389.123 502.291 390.488ZM526.732 402.264C524.641 402.264 522.956 401.816 521.676 400.92C520.439 400.067 519.564 398.979 519.052 397.656C518.497 396.333 518.22 394.989 518.22 393.624C518.22 392.387 518.391 391.427 518.732 390.744C519.073 390.061 519.5 389.549 520.012 389.208C520.524 388.867 520.993 388.611 521.42 388.44C521.889 388.269 522.209 388.099 522.38 387.928C523.532 386.691 524.663 385.325 525.772 383.832C526.881 382.339 527.841 380.717 528.652 378.968V378.264C528.652 376.6 528.929 375.427 529.484 374.744C530.039 374.061 530.679 373.72 531.404 373.72C531.873 373.72 532.215 373.848 532.428 374.104C532.641 374.317 532.748 374.573 532.748 374.872C532.748 375.085 532.684 375.384 532.556 375.768C532.471 376.152 532.428 376.664 532.428 377.304C532.428 378.627 532.727 380.12 533.324 381.784C533.921 383.405 534.519 385.133 535.116 386.968C535.713 388.803 536.012 390.68 536.012 392.6C536.012 393.155 535.991 393.667 535.948 394.136C535.905 394.563 535.82 394.989 535.692 395.416C537.1 395.117 538.444 394.413 539.724 393.304C541.004 392.152 542.241 390.445 543.436 388.184L544.14 388.76C543.329 391.192 542.135 393.112 540.556 394.52C539.02 395.885 537.249 396.717 535.244 397.016C534.561 398.808 533.452 400.131 531.916 400.984C530.38 401.837 528.652 402.264 526.732 402.264ZM526.476 399.64C527.201 399.64 527.948 399.427 528.716 399C529.484 398.616 530.103 397.933 530.572 396.952C528.78 396.568 527.18 395.885 525.772 394.904C524.407 393.88 523.34 392.835 522.572 391.768C521.889 391.896 521.548 392.536 521.548 393.688C521.548 395.139 521.953 396.504 522.764 397.784C523.617 399.021 524.855 399.64 526.476 399.64ZM531.02 395.288C531.105 394.947 531.148 394.563 531.148 394.136C531.191 393.709 531.212 393.325 531.212 392.984C531.169 391.021 530.913 389.101 530.444 387.224C529.975 385.304 529.527 383.384 529.1 381.464C528.247 382.915 527.287 384.408 526.22 385.944C525.196 387.437 524.236 388.653 523.34 389.592C523.98 390.829 524.961 391.981 526.284 393.048C527.649 394.115 529.228 394.861 531.02 395.288Z" fill="white"/>
<circle cx="560.5" cy="398.5" r="5.5" fill="#F6F6FD"/>
<defs>
<linearGradient id="paint0_linear_117_11" x1="640" y1="0" x2="640" y2="721" gradientUnits="userSpaceOnUse">
<stop stop-color="#CC51E0"/>
<stop offset="0.879058" stop-color="#DD2B36" stop-opacity="0.7"/>
</linearGradient>
</defs>
</svg>
