<svg width="1280" height="721" viewBox="0 0 1280 721" fill="none" xmlns="http://www.w3.org/2000/svg">
<rect width="1280" height="721" fill="url(#paint0_linear_117_10)"/>
<rect width="1280" height="721" fill="black" fill-opacity="0.2"/>
<rect width="1280" height="721" fill="black" fill-opacity="0.2"/>
<rect width="1280" height="721" fill="black" fill-opacity="0.2"/>
<path d="M340.24 369.352C336.144 369.352 332.848 368.616 330.352 367.144C327.92 365.672 326.16 363.848 325.072 361.672C323.984 359.496 323.44 357.352 323.44 355.24C323.44 353.576 323.728 351.944 324.304 350.344C324.944 348.744 325.872 347.4 327.088 346.312C328.304 345.224 329.84 344.68 331.696 344.68C332.016 344.68 332.368 344.712 332.752 344.776C333.136 344.776 333.712 344.84 334.48 344.968C333.392 345.864 332.496 347.208 331.792 349C331.088 350.792 330.736 352.52 330.736 354.184C330.736 356.04 331.152 357.832 331.984 359.56C332.88 361.288 334.096 362.696 335.632 363.784C337.232 364.872 339.056 365.416 341.104 365.416C343.6 365.416 346 364.552 348.304 362.824C350.672 361.096 352.592 358.728 354.064 355.72C355.6 352.648 356.368 349.128 356.368 345.16C356.368 342.664 355.984 340.232 355.216 337.864C354.512 335.432 353.264 333.288 351.472 331.432C349.744 329.576 347.312 328.232 344.176 327.4C347.632 325.928 350.608 323.88 353.104 321.256C355.6 318.632 357.52 315.784 358.864 312.712C360.208 309.64 360.88 306.76 360.88 304.072C360.88 300.872 359.984 298.632 358.192 297.352C356.464 296.008 354.48 295.336 352.24 295.336C350.512 295.336 348.816 295.72 347.152 296.488C345.552 297.192 344.208 298.28 343.12 299.752C342.032 301.16 341.488 302.888 341.488 304.936C341.488 305.896 341.616 306.952 341.872 308.104C342.192 309.192 342.672 310.312 343.312 311.464C342.928 312.168 342.288 312.872 341.392 313.576C340.56 314.28 339.728 314.632 338.896 314.632C338.064 314.632 337.296 314.216 336.592 313.384C335.952 312.488 335.472 311.432 335.152 310.216C334.832 308.936 334.672 307.688 334.672 306.472C334.672 303.336 335.6 300.712 337.456 298.6C339.312 296.424 341.68 294.76 344.56 293.608C347.44 292.456 350.384 291.88 353.392 291.88C356.08 291.88 358.608 292.392 360.976 293.416C363.408 294.376 365.392 295.848 366.928 297.832C368.464 299.752 369.232 302.152 369.232 305.032C369.232 307.016 368.816 309.096 367.984 311.272C367.216 313.448 366.128 315.528 364.72 317.512C363.312 319.496 361.616 321.256 359.632 322.792C357.712 324.328 355.632 325.512 353.392 326.344C356.848 327.432 359.568 329 361.552 331.048C363.6 333.096 365.04 335.336 365.872 337.768C366.768 340.2 367.216 342.536 367.216 344.776C367.216 347.784 366.544 350.76 365.2 353.704C363.92 356.584 362.064 359.208 359.632 361.576C357.2 363.944 354.352 365.832 351.088 367.24C347.824 368.648 344.208 369.352 340.24 369.352ZM378.856 361.96C377.576 361.96 376.616 361.64 375.976 361C375.336 360.296 375.016 359.528 375.016 358.696C375.016 357.992 375.336 357.288 375.976 356.584C376.616 355.816 377.384 355.208 378.28 354.76C379.176 354.248 380.04 353.992 380.872 353.992C381.64 353.992 382.312 354.184 382.888 354.568C383.528 354.952 383.848 355.656 383.848 356.68C383.848 357.256 383.624 357.96 383.176 358.792C382.792 359.624 382.216 360.36 381.448 361C380.744 361.64 379.88 361.96 378.856 361.96ZM475.162 370.504C472.794 370.504 470.81 369.448 469.21 367.336C467.61 365.288 466.81 362.824 466.81 359.944C466.81 359.304 466.842 358.44 466.906 357.352C466.97 356.264 467.066 355.048 467.194 353.704C464.89 358.312 462.042 362.088 458.65 365.032C455.322 367.976 451.322 369.448 446.65 369.448C442.426 369.448 439.162 368.168 436.858 365.608C434.618 363.048 433.498 359.624 433.498 355.336C433.498 352.648 433.882 349.64 434.65 346.312C435.418 342.92 436.378 339.4 437.53 335.752C438.746 332.104 439.93 328.424 441.082 324.712C442.234 321 443.194 317.384 443.962 313.864C444.73 310.344 445.114 307.08 445.114 304.072C445.114 298.312 443.386 295.432 439.93 295.432C438.202 295.432 436.698 296.008 435.418 297.16C434.202 298.248 433.178 299.624 432.346 301.288C431.578 302.952 430.97 304.648 430.522 306.376C430.138 308.104 429.946 309.608 429.946 310.888C429.946 311.848 430.042 312.84 430.234 313.864C430.49 314.888 430.746 315.784 431.002 316.552C428.186 316.552 426.17 315.88 424.954 314.536C423.738 313.128 423.13 311.432 423.13 309.448C423.13 307.464 423.61 305.448 424.57 303.4C425.53 301.352 426.874 299.464 428.602 297.736C430.394 296.008 432.442 294.632 434.746 293.608C437.05 292.52 439.546 291.976 442.234 291.976C445.946 291.976 448.634 293.064 450.298 295.24C452.026 297.416 452.89 300.36 452.89 304.072C452.89 306.44 452.602 309.064 452.026 311.944C451.45 314.824 450.714 317.8 449.818 320.872C448.922 323.944 447.994 326.952 447.034 329.896C445.498 334.952 444.186 339.496 443.098 343.528C442.01 347.496 441.466 351.016 441.466 354.088C441.466 357.032 442.074 359.528 443.29 361.576C444.506 363.624 446.554 364.648 449.434 364.648C452.058 364.648 454.458 363.816 456.634 362.152C458.81 360.552 460.73 358.44 462.394 355.816C464.058 353.192 465.466 350.408 466.618 347.464C467.77 344.52 468.634 341.8 469.21 339.304C470.106 335.528 471.098 331.496 472.186 327.208C473.274 322.856 474.394 318.6 475.546 314.44C476.762 310.28 477.978 306.504 479.194 303.112C480.41 299.72 481.594 297.032 482.746 295.048C483.898 293 485.05 291.976 486.202 291.976C486.778 291.976 487.578 292.296 488.602 292.936C489.69 293.512 490.778 294.344 491.866 295.432C491.29 295.88 490.458 297.256 489.37 299.56C488.282 301.8 487.066 304.712 485.722 308.296C484.378 311.816 483.034 315.72 481.69 320.008C480.346 324.296 479.098 328.68 477.946 333.16C476.794 337.64 475.866 341.928 475.162 346.024C474.458 350.12 474.106 353.736 474.106 356.872C474.106 360.968 474.746 363.688 476.026 365.032C477.37 366.44 479.61 367.144 482.746 367.144C481.85 368.232 480.666 369.064 479.194 369.64C477.722 370.216 476.378 370.504 475.162 370.504ZM484.057 387.88C483.545 387.88 483.033 387.688 482.521 387.304C481.945 386.92 481.465 386.504 481.081 386.056C480.697 385.608 480.505 385.288 480.505 385.096C481.849 380.936 483.033 377.288 484.057 374.152C485.081 371.08 486.009 368.104 486.841 365.224C487.609 362.344 488.345 359.24 489.049 355.912C489.753 352.52 490.457 348.552 491.161 344.008C491.865 339.4 492.601 333.8 493.369 327.208C493.497 326.504 493.657 325.992 493.849 325.672C494.041 325.352 494.617 325.192 495.577 325.192C497.433 325.192 498.777 325.704 499.609 326.728C500.441 327.752 500.857 328.872 500.857 330.088C500.857 330.792 500.697 332.072 500.377 333.928C500.121 335.72 499.737 337.896 499.225 340.456C500.377 338.472 501.753 336.584 503.353 334.792C504.953 332.936 506.745 331.4 508.729 330.184C510.713 328.968 512.857 328.36 515.161 328.36C518.233 328.36 520.729 329.416 522.649 331.528C524.633 333.576 525.625 336.296 525.625 339.688C525.625 342.184 525.049 344.84 523.897 347.656C522.809 350.408 521.241 353.032 519.193 355.528C517.209 357.96 514.777 359.944 511.897 361.48C509.081 363.08 505.977 363.88 502.585 363.88C500.665 363.88 499.129 363.624 497.977 363.112C496.825 362.664 496.249 362.184 496.249 361.672C496.249 361.288 496.473 361.064 496.921 361C497.433 360.872 497.977 360.808 498.553 360.808C501.433 360.808 504.057 360.2 506.425 358.984C508.857 357.704 510.969 356.072 512.761 354.088C514.617 352.104 516.025 349.96 516.985 347.656C518.009 345.352 518.521 343.048 518.521 340.744C518.521 338.824 518.073 337.16 517.177 335.752C516.345 334.28 515.001 333.544 513.145 333.544C511.481 333.544 509.817 334.088 508.153 335.176C506.553 336.2 505.049 337.512 503.641 339.112C502.233 340.648 500.985 342.28 499.897 344.008C498.809 345.736 497.977 347.272 497.401 348.616C496.185 353.032 495.033 357.352 493.945 361.576C492.921 365.864 491.929 369.8 490.969 373.384C490.073 377.032 489.177 380.072 488.281 382.504C487.321 384.936 486.393 386.536 485.497 387.304C485.049 387.688 484.569 387.88 484.057 387.88ZM536.785 363.88C533.841 363.88 531.761 362.888 530.545 360.904C529.393 358.92 528.817 356.552 528.817 353.8C528.817 350.664 529.393 346.984 530.545 342.76C531.697 338.536 533.201 334.12 535.057 329.512C536.977 324.84 539.057 320.296 541.297 315.88C543.601 311.4 545.873 307.368 548.113 303.784C550.417 300.136 552.529 297.256 554.449 295.144C556.433 292.968 558.001 291.88 559.153 291.88C559.921 291.88 560.561 292.296 561.073 293.128C561.649 293.96 562.097 294.984 562.417 296.2C562.737 297.352 562.897 298.408 562.897 299.368C562.897 301.096 562.449 303.368 561.553 306.184C560.721 308.936 559.505 312.008 557.905 315.4C556.369 318.728 554.513 322.152 552.337 325.672C550.225 329.128 547.889 332.456 545.329 335.656C542.769 338.792 540.017 341.512 537.073 343.816C536.817 345.416 536.561 347.016 536.305 348.616C536.113 350.216 536.017 351.688 536.017 353.032C536.017 355.4 536.369 357.16 537.073 358.312C537.841 359.4 538.865 359.944 540.145 359.944C541.809 359.944 543.473 359.176 545.137 357.64C546.865 356.104 548.497 354.184 550.033 351.88C551.569 349.512 552.913 347.08 554.065 344.584L556.081 345.736C553.393 351.304 550.417 355.72 547.153 358.984C543.889 362.248 540.433 363.88 536.785 363.88ZM538.513 338.728C540.753 336.424 542.865 333.864 544.849 331.048C546.833 328.232 548.657 325.352 550.321 322.408C552.049 319.4 553.553 316.52 554.833 313.768C556.113 310.952 557.105 308.456 557.809 306.28C558.513 304.04 558.897 302.28 558.961 301C558.961 300.744 558.929 300.584 558.865 300.52C558.801 300.392 558.769 300.328 558.769 300.328C558.257 300.328 557.393 301.096 556.177 302.632C555.025 304.104 553.649 306.12 552.049 308.68C550.513 311.24 548.913 314.184 547.249 317.512C545.585 320.84 543.985 324.328 542.449 327.976C540.913 331.624 539.601 335.208 538.513 338.728ZM558.307 364.072C555.491 364.072 553.539 363.144 552.451 361.288C551.363 359.496 550.819 357.448 550.819 355.144C550.819 353.096 551.139 351.016 551.779 348.904C552.419 346.792 553.283 344.808 554.371 342.952C555.459 341.096 556.675 339.592 558.019 338.44C559.363 337.288 560.739 336.712 562.147 336.712C562.531 336.712 562.979 336.808 563.491 337C564.067 337.128 564.483 337.32 564.739 337.576C564.035 338.344 563.267 339.432 562.435 340.84C561.667 342.248 560.931 343.784 560.227 345.448C559.587 347.048 559.043 348.68 558.595 350.344C558.211 351.944 558.019 353.416 558.019 354.76C558.019 356.232 558.275 357.384 558.787 358.216C559.299 359.048 560.131 359.464 561.283 359.464C562.563 359.464 564.067 358.792 565.795 357.448C567.587 356.04 569.283 354.344 570.883 352.36C568.899 350.632 567.427 348.648 566.467 346.408C565.571 344.104 565.123 341.512 565.123 338.632C565.123 337.032 565.475 335.336 566.179 333.544C566.883 331.752 567.971 330.248 569.443 329.032C570.915 327.816 572.835 327.208 575.203 327.208C577.891 327.208 579.747 327.976 580.771 329.512C581.859 330.984 582.403 332.776 582.403 334.888C582.403 337.256 581.763 339.944 580.483 342.952C579.267 345.896 577.795 348.712 576.067 351.4C576.963 351.912 577.955 352.168 579.043 352.168C580.003 352.168 581.155 351.944 582.499 351.496C583.843 351.048 585.123 350.312 586.339 349.288C587.619 348.2 588.643 346.792 589.411 345.064L590.947 346.216C589.603 349.352 587.747 351.656 585.379 353.128C583.075 354.536 580.835 355.24 578.659 355.24C577.827 355.24 576.995 355.176 576.163 355.048C575.331 354.856 574.563 354.6 573.859 354.28C571.683 356.968 569.219 359.272 566.467 361.192C563.779 363.112 561.059 364.072 558.307 364.072ZM573.091 349.48C574.691 347.24 576.003 344.84 577.027 342.28C578.115 339.656 578.659 337.256 578.659 335.08C578.659 333.48 578.403 332.328 577.891 331.624C577.443 330.856 576.803 330.472 575.971 330.472C574.691 330.472 573.411 331.368 572.131 333.16C570.851 334.888 570.211 337.096 570.211 339.784C570.211 341.32 570.435 343.048 570.883 344.968C571.395 346.824 572.131 348.328 573.091 349.48ZM592.494 365.512C590.446 365.512 588.686 364.808 587.214 363.4C585.678 362.056 584.91 360.008 584.91 357.256C584.91 354.952 585.422 352.488 586.446 349.864C587.47 347.24 588.878 344.648 590.67 342.088C592.462 339.528 594.51 337.192 596.814 335.08C599.118 332.968 601.55 331.272 604.11 329.992C606.734 328.712 609.326 328.072 611.886 328.072C614.574 328.072 616.814 328.776 618.606 330.184C620.462 331.528 621.39 333.32 621.39 335.56C621.39 337.288 620.846 338.504 619.758 339.208C618.67 339.912 617.326 340.136 615.726 339.88C615.854 339.368 615.95 338.824 616.014 338.248C616.142 337.608 616.206 337 616.206 336.424C616.206 335.08 615.918 333.896 615.342 332.872C614.766 331.848 613.646 331.336 611.982 331.336C610.19 331.336 608.366 331.944 606.51 333.16C604.654 334.376 602.862 335.976 601.134 337.96C599.406 339.944 597.87 342.12 596.526 344.488C595.182 346.856 594.126 349.192 593.358 351.496C592.59 353.8 592.206 355.848 592.206 357.64C592.206 359.816 593.006 360.904 594.606 360.904C596.078 360.904 597.678 360.2 599.406 358.792C601.198 357.384 602.99 355.592 604.782 353.416C606.638 351.24 608.398 349.032 610.062 346.792C611.726 344.488 613.166 342.472 614.382 340.744C614.638 340.424 614.862 340.264 615.054 340.264C615.374 340.328 615.886 340.488 616.59 340.744C617.294 340.936 617.934 341.224 618.51 341.608C619.086 341.992 619.374 342.504 619.374 343.144C619.374 343.784 619.086 344.616 618.51 345.64C617.934 346.6 617.294 347.688 616.59 348.904C615.886 350.12 615.246 351.336 614.67 352.552C614.094 353.768 613.806 354.952 613.806 356.104C613.806 356.936 614.03 357.768 614.478 358.6C614.99 359.368 615.79 359.752 616.878 359.752C618.478 359.752 620.654 358.6 623.406 356.296C626.222 353.928 629.07 350.088 631.95 344.776L633.486 346.312C632.014 349.768 630.19 352.808 628.014 355.432C625.902 358.056 623.662 360.104 621.294 361.576C618.926 363.112 616.558 363.88 614.19 363.88C611.63 363.88 609.742 363.08 608.526 361.48C607.31 359.944 606.638 358.248 606.51 356.392C606.51 356.2 606.51 356.008 606.51 355.816C606.574 355.56 606.606 355.336 606.606 355.144C603.982 358.408 601.582 360.936 599.406 362.728C597.23 364.584 594.926 365.512 592.494 365.512ZM636.117 363.88C634.901 363.88 633.685 363.592 632.469 363.016C631.317 362.44 630.325 361.512 629.493 360.232C628.661 358.952 628.245 357.352 628.245 355.432C628.245 353.32 628.757 350.952 629.781 348.328C630.805 345.704 632.181 343.08 633.909 340.456C635.701 337.832 637.749 335.432 640.053 333.256C642.357 331.08 644.789 329.32 647.349 327.976C649.909 326.632 652.469 325.96 655.029 325.96C656.437 325.96 657.525 326.216 658.293 326.728C659.125 327.176 659.541 327.944 659.541 329.032C659.541 329.352 659.477 329.672 659.349 329.992C659.285 330.312 659.093 330.632 658.773 330.952C658.453 330.504 657.973 330.216 657.333 330.088C656.757 329.896 656.085 329.8 655.317 329.8C653.205 329.8 651.189 330.408 649.269 331.624C647.349 332.776 645.557 334.312 643.893 336.232C642.293 338.152 640.885 340.232 639.669 342.472C638.517 344.648 637.621 346.792 636.981 348.904C636.341 350.952 636.021 352.712 636.021 354.184C636.021 355.464 636.277 356.488 636.789 357.256C637.365 358.024 638.165 358.408 639.189 358.408C640.917 358.408 642.997 357.384 645.429 355.336C647.861 353.224 650.325 350.248 652.821 346.408C655.381 342.504 657.685 337.896 659.733 332.584C661.141 328.936 662.613 325.224 664.149 321.448C665.685 317.608 667.221 313.928 668.757 310.408C670.293 306.824 671.797 303.656 673.269 300.904C674.741 298.152 676.149 295.976 677.493 294.376C678.837 292.712 680.085 291.88 681.237 291.88C681.877 291.88 682.421 292.136 682.869 292.648C683.381 293.16 683.637 293.8 683.637 294.568C683.637 295.592 683.093 297.32 682.005 299.752C680.981 302.184 679.637 305.096 677.973 308.488C676.309 311.816 674.517 315.464 672.597 319.432C670.741 323.336 668.981 327.336 667.317 331.432C665.717 335.528 664.373 339.528 663.285 343.432C662.261 347.336 661.749 350.984 661.749 354.376C661.749 355.976 661.877 357.128 662.133 357.832C662.389 358.472 662.933 358.792 663.765 358.792C665.109 358.792 666.645 358.248 668.373 357.16C670.165 356.008 671.957 354.376 673.749 352.264C675.541 350.088 677.141 347.528 678.549 344.584L680.181 345.832C678.837 349.288 677.077 352.36 674.901 355.048C672.789 357.672 670.485 359.72 667.989 361.192C665.557 362.728 663.157 363.496 660.789 363.496C658.293 363.496 656.533 362.664 655.509 361C654.549 359.4 654.069 357.576 654.069 355.528C654.069 354.504 654.165 353.352 654.357 352.072C654.549 350.728 654.805 349.352 655.125 347.944C653.141 351.016 651.029 353.768 648.789 356.2C646.549 358.568 644.341 360.424 642.165 361.768C640.053 363.176 638.037 363.88 636.117 363.88ZM698.912 369.448C699.168 366.824 700.032 364.904 701.505 363.688C703.041 362.536 704.993 361.768 707.361 361.384C709.793 361.064 712.385 360.904 715.137 360.904C716.289 358.408 717.409 355.432 718.497 351.976C719.585 348.456 720.641 344.712 721.665 340.744C722.689 336.776 723.681 332.712 724.641 328.552C725.601 324.392 726.497 320.392 727.329 316.552C728.225 312.648 729.057 309.128 729.825 305.992C730.593 302.856 731.329 300.296 732.033 298.312C728.705 298.376 725.793 298.504 723.297 298.696C720.865 298.824 718.561 299.048 716.385 299.368C714.273 299.688 712.033 300.072 709.665 300.52C710.241 297.576 712.161 295.432 715.424 294.088C718.689 292.68 723.649 291.976 730.305 291.976C733.633 291.976 737.057 292.104 740.577 292.36C744.161 292.616 747.425 292.904 750.369 293.224C753.313 293.544 755.617 293.832 757.281 294.088C755.297 295.944 753.377 297.096 751.521 297.544C749.729 297.992 748.129 298.216 746.721 298.216C744.673 298.216 742.817 298.216 741.153 298.216C739.489 298.216 737.889 298.248 736.353 298.312C735.969 300.168 735.489 302.632 734.913 305.704C734.401 308.712 733.793 312.04 733.089 315.688C732.449 319.272 731.777 322.92 731.073 326.632C730.433 330.344 729.761 333.832 729.057 337.096C728.417 340.36 727.809 343.112 727.233 345.352C726.337 348.936 725.281 352.104 724.065 354.856C722.913 357.608 721.537 359.656 719.937 361C723.329 361.256 726.785 361.576 730.305 361.96C733.889 362.408 737.569 362.696 741.345 362.824C739.041 365 736.769 366.344 734.529 366.856C732.353 367.432 730.529 367.72 729.057 367.72C725.409 367.72 722.209 367.72 719.457 367.72C716.769 367.784 714.305 367.848 712.065 367.912C709.889 368.04 707.745 368.232 705.633 368.488C703.585 368.744 701.345 369.064 698.912 369.448ZM796.507 363.976C794.075 363.976 792.283 363.24 791.131 361.768C789.979 360.36 789.403 358.664 789.403 356.68C789.403 355.144 789.627 353.64 790.075 352.168C790.523 350.632 790.971 349.128 791.419 347.656C791.931 346.184 792.187 344.84 792.187 343.624C792.187 342.472 791.931 341.672 791.419 341.224C790.971 340.776 790.427 340.552 789.787 340.552C788.251 340.552 786.523 341.736 784.603 344.104C782.683 346.408 780.251 349.736 777.307 354.088C776.283 355.624 775.355 357.224 774.523 358.888C773.691 360.552 772.923 361.992 772.219 363.208C771.707 363.208 771.003 363.112 770.107 362.92C769.211 362.728 768.411 362.472 767.707 362.152C767.067 361.832 766.747 361.416 766.747 360.904C766.747 360.328 767.067 359.208 767.707 357.544C768.347 355.88 769.083 353.928 769.915 351.688C770.747 349.448 771.451 347.24 772.027 345.064C772.667 342.824 772.987 340.936 772.987 339.4C772.987 338.44 772.827 337.704 772.507 337.192C772.187 336.616 771.643 336.328 770.875 336.328C769.531 336.328 767.899 337.16 765.979 338.824C764.059 340.424 762.043 342.536 759.931 345.16C757.819 347.784 755.835 350.728 753.979 353.992C752.187 357.192 750.715 360.392 749.563 363.592C748.859 363.592 748.027 363.464 747.067 363.208C746.107 362.952 745.275 362.632 744.571 362.248C743.867 361.864 743.515 361.512 743.515 361.192C743.515 361 743.771 360.008 744.283 358.216C744.795 356.424 745.435 354.216 746.203 351.592C746.907 348.968 747.579 346.28 748.219 343.528C748.923 340.776 749.467 338.344 749.851 336.232C750.107 335.656 750.779 335.112 751.867 334.6C752.955 334.088 753.947 333.832 754.843 333.832C755.739 333.832 756.443 334.088 756.955 334.6C757.531 335.112 757.819 335.816 757.819 336.712C757.819 337.416 757.659 338.536 757.339 340.072C757.019 341.544 756.603 343.208 756.091 345.064C757.435 343.144 758.875 341.256 760.411 339.4C761.947 337.48 763.547 335.752 765.211 334.216C766.939 332.68 768.635 331.464 770.299 330.568C772.027 329.608 773.723 329.128 775.387 329.128C777.627 329.128 779.131 329.928 779.899 331.528C780.731 333.128 781.147 334.92 781.147 336.904C781.147 337.992 781.019 339.112 780.763 340.264C780.571 341.416 780.315 342.504 779.995 343.528C779.739 344.552 779.419 345.576 779.035 346.6C780.251 344.616 781.627 342.728 783.163 340.936C784.699 339.144 786.331 337.736 788.059 336.712C789.787 335.624 791.643 335.08 793.627 335.08C795.995 335.08 797.627 335.784 798.523 337.192C799.419 338.6 799.867 340.168 799.867 341.896C799.867 343.56 799.579 345.352 799.003 347.272C798.491 349.128 797.947 350.92 797.371 352.648C796.795 354.312 796.507 355.752 796.507 356.968C796.507 357.672 796.667 358.312 796.987 358.888C797.371 359.464 798.075 359.752 799.099 359.752C800.827 359.752 802.491 358.952 804.091 357.352C805.691 355.752 807.163 353.8 808.507 351.496C809.851 349.128 811.003 346.888 811.963 344.776L813.403 346.504C812.379 349.192 811.067 351.88 809.467 354.568C807.867 357.256 805.979 359.496 803.803 361.288C801.627 363.08 799.195 363.976 796.507 363.976ZM814.869 365.512C812.821 365.512 811.061 364.808 809.589 363.4C808.053 362.056 807.285 360.008 807.285 357.256C807.285 354.952 807.797 352.488 808.821 349.864C809.845 347.24 811.253 344.648 813.045 342.088C814.837 339.528 816.885 337.192 819.189 335.08C821.493 332.968 823.925 331.272 826.485 329.992C829.109 328.712 831.701 328.072 834.261 328.072C836.949 328.072 839.189 328.776 840.981 330.184C842.837 331.528 843.765 333.32 843.765 335.56C843.765 337.288 843.221 338.504 842.133 339.208C841.045 339.912 839.701 340.136 838.101 339.88C838.229 339.368 838.325 338.824 838.389 338.248C838.517 337.608 838.581 337 838.581 336.424C838.581 335.08 838.293 333.896 837.717 332.872C837.141 331.848 836.021 331.336 834.357 331.336C832.565 331.336 830.741 331.944 828.885 333.16C827.029 334.376 825.237 335.976 823.509 337.96C821.781 339.944 820.245 342.12 818.901 344.488C817.557 346.856 816.501 349.192 815.733 351.496C814.965 353.8 814.581 355.848 814.581 357.64C814.581 359.816 815.381 360.904 816.981 360.904C818.453 360.904 820.053 360.2 821.781 358.792C823.573 357.384 825.365 355.592 827.157 353.416C829.013 351.24 830.773 349.032 832.437 346.792C834.101 344.488 835.541 342.472 836.757 340.744C837.013 340.424 837.237 340.264 837.429 340.264C837.749 340.328 838.261 340.488 838.965 340.744C839.669 340.936 840.309 341.224 840.885 341.608C841.461 341.992 841.749 342.504 841.749 343.144C841.749 343.784 841.461 344.616 840.885 345.64C840.309 346.6 839.669 347.688 838.965 348.904C838.261 350.12 837.621 351.336 837.045 352.552C836.469 353.768 836.181 354.952 836.181 356.104C836.181 356.936 836.405 357.768 836.853 358.6C837.365 359.368 838.165 359.752 839.253 359.752C840.853 359.752 843.029 358.6 845.781 356.296C848.597 353.928 851.445 350.088 854.325 344.776L855.861 346.312C854.389 349.768 852.565 352.808 850.389 355.432C848.277 358.056 846.037 360.104 843.669 361.576C841.301 363.112 838.933 363.88 836.565 363.88C834.005 363.88 832.117 363.08 830.901 361.48C829.685 359.944 829.013 358.248 828.885 356.392C828.885 356.2 828.885 356.008 828.885 355.816C828.949 355.56 828.981 355.336 828.981 355.144C826.357 358.408 823.957 360.936 821.781 362.728C819.605 364.584 817.301 365.512 814.869 365.512ZM856.572 387.88C855.036 387.88 853.596 387.4 852.252 386.44C850.972 385.544 850.332 384.04 850.332 381.928C850.332 379.944 850.94 378.12 852.156 376.456C853.308 374.856 854.844 373.352 856.764 371.944C858.684 370.6 860.764 369.352 863.004 368.2C865.244 367.048 867.388 365.96 869.436 364.936C870.204 363.016 870.94 360.968 871.644 358.792C872.348 356.616 873.02 354.216 873.66 351.592C871.356 354.664 868.924 357.224 866.364 359.272C863.868 361.256 861.308 362.248 858.684 362.248C856.252 362.248 854.3 361.384 852.828 359.656C851.42 357.864 850.716 355.528 850.716 352.648C850.716 349.256 851.548 346.088 853.212 343.144C854.94 340.136 857.116 337.48 859.74 335.176C862.428 332.808 865.276 330.984 868.284 329.704C871.356 328.36 874.236 327.688 876.924 327.688C878.908 327.688 880.38 328.04 881.34 328.744C882.3 329.448 882.78 330.248 882.78 331.144C882.78 331.848 882.556 332.424 882.108 332.872C881.724 333.256 881.468 333.48 881.34 333.544C880.828 332.904 880.22 332.488 879.516 332.296C878.876 332.04 878.108 331.912 877.212 331.912C874.716 331.912 872.316 332.616 870.012 334.024C867.708 335.432 865.66 337.256 863.868 339.496C862.076 341.736 860.668 344.072 859.644 346.504C858.62 348.872 858.108 351.048 858.108 353.032C858.108 354.376 858.396 355.432 858.972 356.2C859.548 356.904 860.284 357.256 861.18 357.256C863.036 357.256 865.244 356.072 867.804 353.704C870.364 351.272 872.828 348.36 875.196 344.968C875.388 344.328 875.516 343.752 875.58 343.24C875.708 342.728 875.836 342.152 875.964 341.512C876.476 339.528 877.148 337.96 877.98 336.808C878.812 335.592 880.028 334.984 881.628 334.984C881.948 334.984 882.332 335.016 882.78 335.08C883.228 335.08 883.708 335.144 884.22 335.272C884.22 336.424 883.9 338.344 883.26 341.032C882.62 343.656 881.756 346.728 880.668 350.248C879.58 353.768 878.332 357.384 876.924 361.096C878.972 360.2 880.988 358.984 882.972 357.448C885.02 355.912 886.908 354.088 888.636 351.976C890.364 349.864 891.676 347.528 892.572 344.968L894.108 346.408C893.084 349.352 891.516 352.04 889.404 354.472C887.292 356.84 884.988 358.92 882.492 360.712C880.06 362.44 877.82 363.784 875.772 364.744C873.98 368.968 872.092 372.84 870.108 376.36C868.124 379.88 866.012 382.664 863.772 384.712C861.532 386.824 859.132 387.88 856.572 387.88ZM856.188 383.944C857.404 383.944 859.036 382.792 861.084 380.488C863.196 378.184 865.468 374.28 867.9 368.776C865.468 369.992 863.228 371.208 861.18 372.424C859.132 373.704 857.468 375.048 856.188 376.456C854.908 377.864 854.268 379.368 854.268 380.968C854.268 381.864 854.46 382.568 854.844 383.08C855.228 383.656 855.676 383.944 856.188 383.944ZM901.254 365.224C897.222 365.224 894.15 364.136 892.038 361.96C889.926 359.784 888.87 357.064 888.87 353.8C888.87 350.92 889.574 347.912 890.982 344.776C892.454 341.576 894.406 338.6 896.838 335.848C899.27 333.032 901.926 330.76 904.806 329.032C907.75 327.24 910.662 326.344 913.542 326.344C915.142 326.344 916.646 326.76 918.054 327.592C919.526 328.424 920.262 330.088 920.262 332.584C920.262 335.016 919.526 337.32 918.054 339.496C916.646 341.608 914.758 343.496 912.39 345.16C910.086 346.824 907.494 348.2 904.614 349.288C901.798 350.312 898.982 350.952 896.166 351.208C896.102 351.592 896.038 351.976 895.974 352.36C895.91 352.744 895.878 353.256 895.878 353.896C895.878 354.408 895.942 355.112 896.07 356.008C896.262 356.84 896.582 357.704 897.03 358.6C897.542 359.432 898.31 360.136 899.334 360.712C900.358 361.288 901.702 361.576 903.366 361.576C906.054 361.576 908.742 360.808 911.43 359.272C914.182 357.736 916.742 355.72 919.11 353.224C921.478 350.664 923.462 347.848 925.062 344.776L926.694 346.12C924.966 349.96 922.758 353.32 920.07 356.2C917.382 359.016 914.406 361.224 911.142 362.824C907.942 364.424 904.646 365.224 901.254 365.224ZM897.03 348.232C898.694 347.912 900.582 347.272 902.694 346.312C904.806 345.288 906.822 344.04 908.742 342.568C910.662 341.032 912.23 339.368 913.446 337.576C914.726 335.784 915.366 333.96 915.366 332.104C915.366 331.4 915.238 330.888 914.982 330.568C914.726 330.248 914.278 330.088 913.638 330.088C912.102 330.088 910.502 330.664 908.838 331.816C907.238 332.904 905.638 334.344 904.038 336.136C902.502 337.864 901.126 339.816 899.91 341.992C898.694 344.104 897.734 346.184 897.03 348.232ZM933.692 365.896C930.556 365.896 928.028 365.224 926.108 363.88C924.252 362.6 922.94 360.968 922.172 358.984C921.34 357 920.924 354.984 920.924 352.936C920.924 351.08 921.18 349.64 921.692 348.616C922.204 347.592 922.844 346.824 923.612 346.312C924.38 345.8 925.084 345.416 925.724 345.16C926.428 344.904 926.908 344.648 927.164 344.392C928.892 342.536 930.588 340.488 932.252 338.248C933.916 336.008 935.356 333.576 936.572 330.952V329.896C936.572 327.4 936.988 325.64 937.82 324.616C938.652 323.592 939.612 323.08 940.7 323.08C941.404 323.08 941.916 323.272 942.236 323.656C942.556 323.976 942.716 324.36 942.716 324.808C942.716 325.128 942.62 325.576 942.428 326.152C942.3 326.728 942.236 327.496 942.236 328.456C942.236 330.44 942.684 332.68 943.58 335.176C944.476 337.608 945.372 340.2 946.268 342.952C947.164 345.704 947.612 348.52 947.612 351.4C947.612 352.232 947.58 353 947.516 353.704C947.452 354.344 947.324 354.984 947.132 355.624C949.244 355.176 951.26 354.12 953.18 352.456C955.1 350.728 956.956 348.168 958.748 344.776L959.804 345.64C958.588 349.288 956.796 352.168 954.428 354.28C952.124 356.328 949.468 357.576 946.46 358.024C945.436 360.712 943.772 362.696 941.468 363.976C939.164 365.256 936.572 365.896 933.692 365.896ZM933.308 361.96C934.396 361.96 935.516 361.64 936.668 361C937.82 360.424 938.748 359.4 939.452 357.928C936.764 357.352 934.364 356.328 932.252 354.856C930.204 353.32 928.604 351.752 927.452 350.152C926.428 350.344 925.916 351.304 925.916 353.032C925.916 355.208 926.524 357.256 927.74 359.176C929.02 361.032 930.876 361.96 933.308 361.96ZM940.124 355.432C940.252 354.92 940.316 354.344 940.316 353.704C940.38 353.064 940.412 352.488 940.412 351.976C940.348 349.032 939.964 346.152 939.26 343.336C938.556 340.456 937.884 337.576 937.244 334.696C935.964 336.872 934.524 339.112 932.924 341.416C931.388 343.656 929.948 345.48 928.604 346.888C929.564 348.744 931.036 350.472 933.02 352.072C935.068 353.672 937.436 354.792 940.124 355.432Z" fill="white"/>
<defs>
<linearGradient id="paint0_linear_117_10" x1="640" y1="0" x2="640" y2="721" gradientUnits="userSpaceOnUse">
<stop stop-color="#EC7C15"/>
<stop offset="0.9999" stop-color="#2EDBDB" stop-opacity="0.7"/>
</linearGradient>
</defs>
</svg>
