<svg width="1280" height="721" viewBox="0 0 1280 721" fill="none" xmlns="http://www.w3.org/2000/svg">
<rect width="1280" height="721" fill="url(#paint0_linear_117_13)"/>
<rect width="1280" height="721" fill="black" fill-opacity="0.2"/>
<rect width="1280" height="721" fill="black" fill-opacity="0.2"/>
<rect width="1280" height="721" fill="black" fill-opacity="0.2"/>
<path d="M350.506 374.352C348.586 374.352 346.858 373.936 345.322 373.104C343.85 372.272 342.506 371.056 341.29 369.456C342.186 369.52 342.954 369.584 343.594 369.648C344.17 369.712 344.842 369.744 345.61 369.744C347.082 369.744 348.714 369.616 350.506 369.36C352.298 369.168 354.026 368.944 355.69 368.688C356.842 366.128 357.93 362.928 358.954 359.088C359.978 355.248 360.938 351.152 361.834 346.8C362.794 342.384 363.658 337.968 364.426 333.552C365.258 329.072 366.026 324.912 366.73 321.072C367.498 317.232 368.202 313.936 368.842 311.184C365.322 313.552 362.826 315.12 361.354 315.888C359.882 316.592 358.762 316.944 357.994 316.944C357.162 316.944 356.49 316.72 355.978 316.272C355.53 315.76 355.306 314.8 355.306 313.392C356.586 312.752 358.378 311.632 360.682 310.032C363.05 308.368 365.642 306.416 368.458 304.176C371.274 301.872 373.93 299.472 376.426 296.976C376.874 297.296 377.162 297.776 377.29 298.416C377.482 299.056 377.578 299.728 377.578 300.432C377.578 301.968 377.29 303.568 376.714 305.232C376.202 306.896 375.786 308.784 375.466 310.896C374.826 315.184 374.058 319.792 373.162 324.72C372.33 329.584 371.338 334.576 370.186 339.696C369.098 344.752 367.818 349.712 366.346 354.576C364.938 359.376 363.306 363.824 361.45 367.92C362.026 367.856 362.602 367.792 363.178 367.728C363.754 367.728 364.33 367.728 364.906 367.728C367.338 367.728 369.45 368.112 371.242 368.88C373.098 369.712 374.314 371.44 374.89 374.064C373.418 373.872 371.946 373.712 370.474 373.584C369.066 373.52 367.722 373.488 366.442 373.488C364.586 373.488 362.666 373.552 360.682 373.68C358.698 373.808 356.81 373.936 355.018 374.064C353.226 374.256 351.722 374.352 350.506 374.352ZM387.544 366.96C386.264 366.96 385.304 366.64 384.664 366C384.024 365.296 383.704 364.528 383.704 363.696C383.704 362.992 384.024 362.288 384.664 361.584C385.304 360.816 386.072 360.208 386.968 359.76C387.864 359.248 388.728 358.992 389.56 358.992C390.328 358.992 391 359.184 391.576 359.568C392.216 359.952 392.536 360.656 392.536 361.68C392.536 362.256 392.312 362.96 391.864 363.792C391.48 364.624 390.904 365.36 390.136 366C389.432 366.64 388.568 366.96 387.544 366.96ZM458.944 374.352C454.208 374.352 450.336 373.2 447.328 370.896C444.384 368.592 442.208 365.648 440.8 362.064C439.456 358.416 438.784 354.64 438.784 350.736C438.784 345.68 439.552 340.624 441.088 335.568C442.624 330.448 444.736 325.584 447.424 320.976C450.112 316.304 453.152 312.176 456.544 308.592C460 305.008 463.648 302.192 467.488 300.144C471.392 298.032 475.264 296.976 479.104 296.976C481.856 296.976 484.128 297.616 485.92 298.896C487.776 300.176 488.704 302.384 488.704 305.52C488.704 307.44 488.352 309.584 487.648 311.952C487.008 314.32 486.112 316.592 484.96 318.768C483.872 320.944 482.624 322.736 481.216 324.144C479.872 325.552 478.496 326.256 477.088 326.256C476.512 326.256 475.904 326.064 475.264 325.68C474.624 325.232 474.048 324.528 473.536 323.568C474.496 322.48 475.552 321.136 476.704 319.536C477.92 317.936 479.072 316.24 480.16 314.448C481.248 312.656 482.144 310.928 482.848 309.264C483.552 307.536 483.904 306 483.904 304.656C483.904 303.504 483.552 302.576 482.848 301.872C482.208 301.104 481.056 300.72 479.392 300.72C476.64 300.72 473.76 301.808 470.752 303.984C467.808 306.16 464.96 309.072 462.208 312.72C459.456 316.304 456.96 320.336 454.72 324.816C452.48 329.232 450.72 333.808 449.44 338.544C448.16 343.216 447.52 347.664 447.52 351.888C447.52 354.96 447.968 357.904 448.864 360.72C449.76 363.536 451.232 365.808 453.28 367.536C455.328 369.328 457.984 370.224 461.248 370.224C464.704 370.224 468.128 369.264 471.52 367.344C474.912 365.424 478.016 362.896 480.832 359.76C483.712 356.624 486.016 353.232 487.744 349.584L489.856 351.024C487.616 355.248 484.96 359.152 481.888 362.736C478.816 366.256 475.328 369.072 471.424 371.184C467.584 373.296 463.424 374.352 458.944 374.352ZM502.876 368.496C500.572 368.496 498.716 367.888 497.308 366.672C495.9 365.456 495.196 363.824 495.196 361.776C495.196 359.984 495.644 358.064 496.54 356.016C497.436 353.904 498.332 351.856 499.228 349.872C500.188 347.824 500.668 346 500.668 344.4C500.668 342.736 500.124 341.424 499.036 340.464C498.012 339.44 496.892 338.576 495.676 337.872C494.204 341.52 492.604 345.008 490.876 348.336C489.212 351.664 487.836 354.224 486.748 356.016L485.5 353.616C486.396 351.952 487.58 349.584 489.052 346.512C490.524 343.376 491.932 339.856 493.276 335.952C492.636 335.312 492.316 334.48 492.316 333.456C492.316 331.728 492.828 330.16 493.852 328.752C494.94 327.344 495.9 326.64 496.732 326.64C497.436 326.64 497.916 327.056 498.172 327.888C498.492 328.656 498.652 329.2 498.652 329.52C498.652 329.84 498.492 330.448 498.172 331.344C497.852 332.176 497.66 332.752 497.596 333.072C497.596 333.84 498.108 334.576 499.132 335.28C500.22 335.92 501.404 336.72 502.684 337.68C504.028 338.576 505.212 339.696 506.236 341.04C507.26 342.32 507.772 343.984 507.772 346.032C507.772 347.952 507.356 349.872 506.524 351.792C505.692 353.712 504.86 355.536 504.028 357.264C503.196 358.992 502.78 360.464 502.78 361.68C502.78 362.704 503.036 363.376 503.548 363.696C504.06 364.016 504.668 364.176 505.372 364.176C506.908 364.176 508.508 363.696 510.172 362.736C511.836 361.776 513.436 360.56 514.972 359.088C516.572 357.616 517.98 356.08 519.196 354.48C520.412 352.816 521.34 351.312 521.98 349.968L523.9 351.408C522.684 354.16 520.956 356.848 518.716 359.472C516.476 362.096 513.98 364.272 511.228 366C508.476 367.664 505.692 368.496 502.876 368.496ZM530.754 370.224C526.722 370.224 523.65 369.136 521.538 366.96C519.426 364.784 518.37 362.064 518.37 358.8C518.37 355.92 519.074 352.912 520.482 349.776C521.954 346.576 523.906 343.6 526.338 340.848C528.77 338.032 531.426 335.76 534.306 334.032C537.25 332.24 540.162 331.344 543.042 331.344C544.642 331.344 546.146 331.76 547.554 332.592C549.026 333.424 549.762 335.088 549.762 337.584C549.762 340.016 549.026 342.32 547.554 344.496C546.146 346.608 544.258 348.496 541.89 350.16C539.586 351.824 536.994 353.2 534.114 354.288C531.298 355.312 528.482 355.952 525.666 356.208C525.602 356.592 525.538 356.976 525.474 357.36C525.41 357.744 525.378 358.256 525.378 358.896C525.378 359.408 525.442 360.112 525.57 361.008C525.762 361.84 526.082 362.704 526.53 363.6C527.042 364.432 527.81 365.136 528.834 365.712C529.858 366.288 531.202 366.576 532.866 366.576C535.554 366.576 538.242 365.808 540.93 364.272C543.682 362.736 546.242 360.72 548.61 358.224C550.978 355.664 552.962 352.848 554.562 349.776L556.194 351.12C554.466 354.96 552.258 358.32 549.57 361.2C546.882 364.016 543.906 366.224 540.642 367.824C537.442 369.424 534.146 370.224 530.754 370.224ZM526.53 353.232C528.194 352.912 530.082 352.272 532.194 351.312C534.306 350.288 536.322 349.04 538.242 347.568C540.162 346.032 541.73 344.368 542.946 342.576C544.226 340.784 544.866 338.96 544.866 337.104C544.866 336.4 544.738 335.888 544.482 335.568C544.226 335.248 543.778 335.088 543.138 335.088C541.602 335.088 540.002 335.664 538.338 336.816C536.738 337.904 535.138 339.344 533.538 341.136C532.002 342.864 530.626 344.816 529.41 346.992C528.194 349.104 527.234 351.184 526.53 353.232ZM557.432 370.512C555.384 370.512 553.624 369.808 552.152 368.4C550.616 367.056 549.848 365.008 549.848 362.256C549.848 359.952 550.36 357.488 551.384 354.864C552.408 352.24 553.816 349.648 555.608 347.088C557.4 344.528 559.448 342.192 561.752 340.08C564.056 337.968 566.488 336.272 569.048 334.992C571.672 333.712 574.264 333.072 576.824 333.072C579.512 333.072 581.752 333.776 583.544 335.184C585.4 336.528 586.328 338.32 586.328 340.56C586.328 342.288 585.784 343.504 584.696 344.208C583.608 344.912 582.264 345.136 580.664 344.88C580.792 344.368 580.888 343.824 580.952 343.248C581.08 342.608 581.144 342 581.144 341.424C581.144 340.08 580.856 338.896 580.28 337.872C579.704 336.848 578.584 336.336 576.92 336.336C575.128 336.336 573.304 336.944 571.448 338.16C569.592 339.376 567.8 340.976 566.072 342.96C564.344 344.944 562.808 347.12 561.464 349.488C560.12 351.856 559.064 354.192 558.296 356.496C557.528 358.8 557.144 360.848 557.144 362.64C557.144 364.816 557.944 365.904 559.544 365.904C561.016 365.904 562.616 365.2 564.344 363.792C566.136 362.384 567.928 360.592 569.72 358.416C571.576 356.24 573.336 354.032 575 351.792C576.664 349.488 578.104 347.472 579.32 345.744C579.576 345.424 579.8 345.264 579.992 345.264C580.312 345.328 580.824 345.488 581.528 345.744C582.232 345.936 582.872 346.224 583.448 346.608C584.024 346.992 584.312 347.504 584.312 348.144C584.312 348.784 584.024 349.616 583.448 350.64C582.872 351.6 582.232 352.688 581.528 353.904C580.824 355.12 580.184 356.336 579.608 357.552C579.032 358.768 578.744 359.952 578.744 361.104C578.744 361.936 578.968 362.768 579.416 363.6C579.928 364.368 580.728 364.752 581.816 364.752C583.416 364.752 585.592 363.6 588.344 361.296C591.16 358.928 594.008 355.088 596.888 349.776L598.424 351.312C596.952 354.768 595.128 357.808 592.952 360.432C590.84 363.056 588.6 365.104 586.232 366.576C583.864 368.112 581.496 368.88 579.128 368.88C576.568 368.88 574.68 368.08 573.464 366.48C572.248 364.944 571.576 363.248 571.448 361.392C571.448 361.2 571.448 361.008 571.448 360.816C571.512 360.56 571.544 360.336 571.544 360.144C568.92 363.408 566.52 365.936 564.344 367.728C562.168 369.584 559.864 370.512 557.432 370.512ZM603.263 370.416C600.447 370.416 598.207 369.584 596.543 367.92C594.943 366.32 594.143 363.856 594.143 360.528C594.143 357.84 594.655 354.512 595.679 350.544C596.703 346.576 597.983 342.48 599.519 338.256C599.007 338.128 598.431 338.032 597.791 337.968C597.215 337.84 596.671 337.648 596.159 337.392V334.8C596.991 334.928 597.727 335.024 598.367 335.088C599.071 335.152 599.807 335.216 600.575 335.28C601.919 331.888 603.359 328.592 604.895 325.392C606.495 322.192 608.063 319.344 609.599 316.848C611.135 314.352 612.607 312.368 614.015 310.896C615.423 309.424 616.639 308.688 617.663 308.688C618.303 308.688 618.879 308.912 619.391 309.36C619.903 309.808 620.159 310.448 620.159 311.28C620.159 312.496 619.487 314.32 618.143 316.752C616.863 319.12 615.231 321.936 613.247 325.2C611.327 328.4 609.471 331.856 607.679 335.568C608.191 335.568 608.703 335.568 609.215 335.568C609.791 335.568 610.335 335.568 610.847 335.568C613.407 335.568 615.839 335.536 618.143 335.472C620.447 335.344 622.783 335.152 625.151 334.896V337.584C621.631 337.968 618.399 338.256 615.455 338.448C612.575 338.64 609.887 338.736 607.391 338.736C607.199 338.736 606.975 338.736 606.719 338.736C606.527 338.736 606.335 338.736 606.143 338.736C604.735 342 603.519 345.328 602.495 348.72C601.535 352.112 601.055 355.408 601.055 358.608C601.055 361.296 601.471 363.216 602.303 364.368C603.135 365.456 604.479 366 606.335 366C609.535 366 612.799 364.528 616.127 361.584C619.455 358.64 622.335 354.672 624.767 349.68L626.111 350.64C624.511 354.352 622.495 357.712 620.063 360.72C617.631 363.728 614.975 366.096 612.095 367.824C609.279 369.552 606.335 370.416 603.263 370.416ZM633.129 370.224C629.097 370.224 626.025 369.136 623.913 366.96C621.801 364.784 620.745 362.064 620.745 358.8C620.745 355.92 621.449 352.912 622.857 349.776C624.329 346.576 626.281 343.6 628.713 340.848C631.145 338.032 633.801 335.76 636.681 334.032C639.625 332.24 642.537 331.344 645.417 331.344C647.017 331.344 648.521 331.76 649.929 332.592C651.401 333.424 652.137 335.088 652.137 337.584C652.137 340.016 651.401 342.32 649.929 344.496C648.521 346.608 646.633 348.496 644.265 350.16C641.961 351.824 639.369 353.2 636.489 354.288C633.673 355.312 630.857 355.952 628.041 356.208C627.977 356.592 627.913 356.976 627.849 357.36C627.785 357.744 627.753 358.256 627.753 358.896C627.753 359.408 627.817 360.112 627.945 361.008C628.137 361.84 628.457 362.704 628.905 363.6C629.417 364.432 630.185 365.136 631.209 365.712C632.233 366.288 633.577 366.576 635.241 366.576C637.929 366.576 640.617 365.808 643.305 364.272C646.057 362.736 648.617 360.72 650.985 358.224C653.353 355.664 655.337 352.848 656.937 349.776L658.569 351.12C656.841 354.96 654.633 358.32 651.945 361.2C649.257 364.016 646.281 366.224 643.017 367.824C639.817 369.424 636.521 370.224 633.129 370.224ZM628.905 353.232C630.569 352.912 632.457 352.272 634.569 351.312C636.681 350.288 638.697 349.04 640.617 347.568C642.537 346.032 644.105 344.368 645.321 342.576C646.601 340.784 647.241 338.96 647.241 337.104C647.241 336.4 647.113 335.888 646.857 335.568C646.601 335.248 646.153 335.088 645.513 335.088C643.977 335.088 642.377 335.664 640.713 336.816C639.113 337.904 637.513 339.344 635.913 341.136C634.377 342.864 633.001 344.816 631.785 346.992C630.569 349.104 629.609 351.184 628.905 353.232ZM683.112 374.352C681.384 373.392 680.264 372.4 679.752 371.376C679.304 370.352 679.08 369.456 679.08 368.688C679.08 366.96 679.72 364.624 681 361.68C682.28 358.672 683.976 355.28 686.088 351.504C688.264 347.664 690.696 343.664 693.384 339.504C691.272 339.376 689.32 339.28 687.528 339.216C685.8 339.152 683.816 339.12 681.576 339.12H679.368C680.2 336.944 681.544 335.44 683.4 334.608C685.32 333.712 687.56 333.264 690.12 333.264C691.208 333.264 692.328 333.328 693.48 333.456C694.696 333.584 695.944 333.712 697.224 333.84C700.424 329.168 703.624 324.688 706.824 320.4C710.024 316.112 713.032 312.272 715.848 308.88C718.728 305.488 721.224 302.768 723.336 300.72C726.024 298.096 728.04 296.784 729.384 296.784C730.216 296.784 731.144 297.104 732.168 297.744C733.192 298.384 734.28 299.216 735.432 300.24C734.792 300.752 733.96 302.096 732.936 304.272C731.976 306.384 730.92 309.072 729.768 312.336C728.68 315.6 727.56 319.184 726.408 323.088C725.32 326.992 724.328 330.96 723.432 334.992C722.536 338.96 721.8 342.768 721.224 346.416C720.712 350.064 720.456 353.296 720.456 356.112C720.456 358.608 720.712 360.496 721.224 361.776C721.736 363.056 722.6 363.696 723.816 363.696C725.352 363.696 727.208 362.576 729.384 360.336C731.56 358.032 733.96 354.384 736.584 349.392L738.024 350.928C736.04 356.176 733.48 360.464 730.344 363.792C727.272 367.12 724.008 368.784 720.552 368.784C717.672 368.784 715.592 367.536 714.312 365.04C713.096 362.48 712.488 358.992 712.488 354.576C712.488 352.912 712.584 351.056 712.776 349.008C713.032 346.96 713.384 344.592 713.832 341.904C711.016 341.456 708.488 341.104 706.248 340.848C704.008 340.592 701.896 340.336 699.912 340.08C696.904 345.52 693.96 351.184 691.08 357.072C688.2 362.896 685.544 368.656 683.112 374.352ZM714.696 337.68C715.592 333.712 716.616 329.744 717.768 325.776C718.984 321.744 720.232 317.904 721.512 314.256C722.856 310.544 724.136 307.248 725.352 304.368C723.432 305.776 721.224 307.984 718.728 310.992C716.296 313.936 713.736 317.456 711.048 321.552C708.36 325.648 705.608 330.096 702.792 334.896C704.84 335.344 706.856 335.824 708.84 336.336C710.824 336.784 712.776 337.232 714.696 337.68ZM744.875 371.376C741.611 371.376 738.923 370.32 736.811 368.208C734.699 366.16 733.643 363.024 733.643 358.8C733.643 355.664 734.251 352.592 735.467 349.584C736.747 346.576 738.411 343.856 740.459 341.424C742.507 338.992 744.779 337.072 747.275 335.664C749.771 334.256 752.299 333.552 754.859 333.552C757.547 333.552 759.435 334.256 760.523 335.664C761.675 337.072 762.251 338.64 762.251 340.368C762.251 342.224 761.803 343.952 760.907 345.552C760.075 347.152 758.923 347.952 757.451 347.952C756.235 347.952 755.243 347.376 754.475 346.224C755.243 345.776 755.979 344.88 756.683 343.536C757.387 342.192 757.739 340.656 757.739 338.928C757.739 338.288 757.611 337.808 757.355 337.488C757.099 337.168 756.587 337.008 755.819 337.008C754.155 337.008 752.427 337.744 750.635 339.216C748.907 340.688 747.275 342.608 745.739 344.976C744.203 347.28 742.955 349.712 741.995 352.272C741.035 354.832 740.555 357.232 740.555 359.472C740.555 361.328 741.035 363.024 741.995 364.56C742.955 366.096 744.779 366.864 747.467 366.864C749.963 366.864 752.491 366.16 755.051 364.752C757.675 363.344 760.139 361.36 762.443 358.8C764.747 356.24 766.571 353.2 767.915 349.68L769.643 351.216C768.107 355.056 765.995 358.512 763.307 361.584C760.683 364.592 757.739 366.96 754.475 368.688C751.275 370.48 748.075 371.376 744.875 371.376ZM776.562 371.376C773.298 371.376 770.61 370.32 768.498 368.208C766.386 366.16 765.33 363.024 765.33 358.8C765.33 355.664 765.938 352.592 767.154 349.584C768.434 346.576 770.098 343.856 772.146 341.424C774.194 338.992 776.466 337.072 778.962 335.664C781.458 334.256 783.986 333.552 786.546 333.552C789.234 333.552 791.122 334.256 792.21 335.664C793.362 337.072 793.938 338.64 793.938 340.368C793.938 342.224 793.49 343.952 792.594 345.552C791.762 347.152 790.61 347.952 789.138 347.952C787.922 347.952 786.93 347.376 786.162 346.224C786.93 345.776 787.666 344.88 788.37 343.536C789.074 342.192 789.426 340.656 789.426 338.928C789.426 338.288 789.298 337.808 789.042 337.488C788.786 337.168 788.274 337.008 787.506 337.008C785.842 337.008 784.114 337.744 782.322 339.216C780.594 340.688 778.962 342.608 777.426 344.976C775.89 347.28 774.642 349.712 773.682 352.272C772.722 354.832 772.242 357.232 772.242 359.472C772.242 361.328 772.722 363.024 773.682 364.56C774.642 366.096 776.466 366.864 779.154 366.864C781.65 366.864 784.178 366.16 786.738 364.752C789.362 363.344 791.826 361.36 794.13 358.8C796.434 356.24 798.258 353.2 799.602 349.68L801.33 351.216C799.794 355.056 797.682 358.512 794.994 361.584C792.37 364.592 789.426 366.96 786.162 368.688C782.962 370.48 779.762 371.376 776.562 371.376ZM804.026 369.072C801.21 369.072 799.258 368.144 798.17 366.288C797.082 364.496 796.538 362.448 796.538 360.144C796.538 358.096 796.858 356.016 797.498 353.904C798.138 351.792 799.002 349.808 800.09 347.952C801.178 346.096 802.394 344.592 803.738 343.44C805.082 342.288 806.458 341.712 807.866 341.712C808.25 341.712 808.698 341.808 809.21 342C809.786 342.128 810.202 342.32 810.458 342.576C809.754 343.344 808.986 344.432 808.154 345.84C807.386 347.248 806.65 348.784 805.946 350.448C805.306 352.048 804.762 353.68 804.314 355.344C803.93 356.944 803.738 358.416 803.738 359.76C803.738 361.232 803.994 362.384 804.506 363.216C805.018 364.048 805.85 364.464 807.002 364.464C808.282 364.464 809.786 363.792 811.514 362.448C813.306 361.04 815.002 359.344 816.602 357.36C814.618 355.632 813.146 353.648 812.186 351.408C811.29 349.104 810.842 346.512 810.842 343.632C810.842 342.032 811.194 340.336 811.898 338.544C812.602 336.752 813.69 335.248 815.162 334.032C816.634 332.816 818.554 332.208 820.922 332.208C823.61 332.208 825.466 332.976 826.49 334.512C827.578 335.984 828.122 337.776 828.122 339.888C828.122 342.256 827.482 344.944 826.202 347.952C824.986 350.896 823.514 353.712 821.786 356.4C822.682 356.912 823.674 357.168 824.762 357.168C825.722 357.168 826.874 356.944 828.218 356.496C829.562 356.048 830.842 355.312 832.058 354.288C833.338 353.2 834.362 351.792 835.13 350.064L836.666 351.216C835.322 354.352 833.466 356.656 831.098 358.128C828.794 359.536 826.554 360.24 824.378 360.24C823.546 360.24 822.714 360.176 821.882 360.048C821.05 359.856 820.282 359.6 819.578 359.28C817.402 361.968 814.938 364.272 812.186 366.192C809.498 368.112 806.778 369.072 804.026 369.072ZM818.81 354.48C820.41 352.24 821.722 349.84 822.746 347.28C823.834 344.656 824.378 342.256 824.378 340.08C824.378 338.48 824.122 337.328 823.61 336.624C823.162 335.856 822.522 335.472 821.69 335.472C820.41 335.472 819.13 336.368 817.85 338.16C816.57 339.888 815.93 342.096 815.93 344.784C815.93 346.32 816.154 348.048 816.602 349.968C817.114 351.824 817.85 353.328 818.81 354.48ZM840.421 368.88C838.245 368.88 836.453 367.888 835.045 365.904C833.701 363.92 833.029 361.616 833.029 358.992C833.029 357.2 833.317 355.088 833.893 352.656C834.533 350.224 835.301 347.856 836.197 345.552C837.093 343.184 838.021 341.232 838.981 339.696C840.005 338.16 840.901 337.392 841.669 337.392C842.117 337.392 842.757 337.616 843.589 338.064C844.485 338.512 845.253 339.056 845.893 339.696C845.189 340.72 844.325 342.32 843.301 344.496C842.341 346.672 841.477 349.008 840.709 351.504C839.941 353.936 839.557 356.176 839.557 358.224C839.557 358.544 839.589 359.216 839.653 360.24C839.781 361.2 840.037 362.096 840.421 362.928C840.869 363.76 841.605 364.176 842.629 364.176C843.717 364.176 844.901 363.6 846.181 362.448C847.461 361.232 848.741 359.664 850.021 357.744C851.365 355.824 852.645 353.744 853.861 351.504C855.077 349.264 856.197 347.12 857.221 345.072C858.245 343.024 859.077 341.296 859.717 339.888C860.229 339.952 860.901 340.112 861.733 340.368C862.629 340.56 863.397 340.848 864.037 341.232C864.741 341.616 865.093 342.16 865.093 342.864C865.093 343.056 864.773 343.856 864.133 345.264C863.557 346.672 862.853 348.368 862.021 350.352C861.189 352.336 860.453 354.352 859.813 356.4C859.237 358.448 858.949 360.24 858.949 361.776C858.949 362.736 859.141 363.568 859.525 364.272C859.909 364.976 860.645 365.328 861.733 365.328C863.077 365.328 864.677 364.72 866.533 363.504C868.453 362.288 870.405 360.528 872.389 358.224C874.373 355.856 876.133 353.072 877.669 349.872L879.013 350.928C877.605 354.384 875.781 357.488 873.541 360.24C871.365 362.928 868.997 365.04 866.437 366.576C863.941 368.112 861.509 368.88 859.141 368.88C857.349 368.88 855.973 368.464 855.013 367.632C854.053 366.864 853.381 365.84 852.997 364.56C852.677 363.28 852.517 361.968 852.517 360.624C852.517 360.176 852.517 359.696 852.517 359.184C852.581 358.672 852.645 358.192 852.709 357.744C851.621 359.6 850.405 361.392 849.061 363.12C847.781 364.784 846.405 366.16 844.933 367.248C843.525 368.336 842.021 368.88 840.421 368.88ZM907.278 367.92C904.91 367.92 903.086 367.312 901.806 366.096C900.59 364.88 899.982 363.344 899.982 361.488C899.982 360.144 900.206 358.768 900.654 357.36C901.102 355.888 901.55 354.416 901.998 352.944C902.446 351.408 902.67 349.936 902.67 348.528C902.67 346.992 902.318 345.936 901.614 345.36C900.91 344.784 900.078 344.496 899.118 344.496C897.198 344.496 895.214 345.296 893.166 346.896C891.182 348.496 889.23 350.512 887.31 352.944C885.39 355.312 883.598 357.808 881.934 360.432C880.27 363.056 878.83 365.392 877.614 367.44C876.462 367.44 875.374 367.248 874.35 366.864C873.326 366.48 872.462 365.808 871.758 364.848C871.822 364.528 872.206 363.568 872.91 361.968C873.55 360.304 874.286 358.32 875.118 356.016C875.95 353.648 876.686 351.216 877.326 348.72C878.03 346.224 878.382 343.92 878.382 341.808C878.83 341.36 879.502 340.88 880.398 340.368C881.294 339.856 882.222 339.6 883.182 339.6C885.23 339.6 886.254 340.528 886.254 342.384C886.254 343.216 886.062 344.56 885.678 346.416C885.294 348.208 884.782 350.192 884.142 352.368C885.806 350 887.662 347.728 889.71 345.552C891.758 343.312 893.902 341.488 896.142 340.08C898.382 338.672 900.654 337.968 902.958 337.968C905.582 337.968 907.502 338.896 908.718 340.752C909.998 342.544 910.638 344.56 910.638 346.8C910.638 348.72 910.318 350.544 909.678 352.272C909.038 353.936 908.398 355.536 907.758 357.072C907.182 358.544 906.894 360.016 906.894 361.488C906.894 362.576 907.118 363.376 907.566 363.888C908.078 364.336 908.686 364.56 909.39 364.56C910.926 364.56 912.494 363.824 914.094 362.352C915.758 360.816 917.326 358.928 918.798 356.688C920.334 354.384 921.678 352.08 922.83 349.776L924.27 351.024C922.926 354.16 921.422 357.008 919.758 359.568C918.094 362.128 916.238 364.176 914.19 365.712C912.142 367.184 909.838 367.92 907.278 367.92ZM929.138 370.416C926.322 370.416 924.082 369.584 922.418 367.92C920.818 366.32 920.018 363.856 920.018 360.528C920.018 357.84 920.53 354.512 921.554 350.544C922.578 346.576 923.858 342.48 925.394 338.256C924.882 338.128 924.306 338.032 923.666 337.968C923.09 337.84 922.546 337.648 922.034 337.392V334.8C922.866 334.928 923.602 335.024 924.242 335.088C924.946 335.152 925.682 335.216 926.45 335.28C927.794 331.888 929.234 328.592 930.77 325.392C932.37 322.192 933.938 319.344 935.474 316.848C937.01 314.352 938.482 312.368 939.89 310.896C941.298 309.424 942.514 308.688 943.538 308.688C944.178 308.688 944.754 308.912 945.266 309.36C945.778 309.808 946.034 310.448 946.034 311.28C946.034 312.496 945.362 314.32 944.018 316.752C942.738 319.12 941.106 321.936 939.122 325.2C937.202 328.4 935.346 331.856 933.554 335.568C934.066 335.568 934.578 335.568 935.09 335.568C935.666 335.568 936.21 335.568 936.722 335.568C939.282 335.568 941.714 335.536 944.018 335.472C946.322 335.344 948.658 335.152 951.026 334.896V337.584C947.506 337.968 944.274 338.256 941.33 338.448C938.45 338.64 935.762 338.736 933.266 338.736C933.074 338.736 932.85 338.736 932.594 338.736C932.402 338.736 932.21 338.736 932.018 338.736C930.61 342 929.394 345.328 928.37 348.72C927.41 352.112 926.93 355.408 926.93 358.608C926.93 361.296 927.346 363.216 928.178 364.368C929.01 365.456 930.354 366 932.21 366C935.41 366 938.674 364.528 942.002 361.584C945.33 358.64 948.21 354.672 950.642 349.68L951.986 350.64C950.386 354.352 948.37 357.712 945.938 360.72C943.506 363.728 940.85 366.096 937.97 367.824C935.154 369.552 932.21 370.416 929.138 370.416Z" fill="white"/>
<defs>
<linearGradient id="paint0_linear_117_13" x1="640" y1="0" x2="640" y2="721" gradientUnits="userSpaceOnUse">
<stop stop-color="#33DBBD"/>
<stop offset="0.925933" stop-color="#4127DE" stop-opacity="0.7"/>
</linearGradient>
</defs>
</svg>
