<svg width="1280" height="721" viewBox="0 0 1280 721" fill="none" xmlns="http://www.w3.org/2000/svg">
<rect width="1280" height="721" fill="url(#paint0_linear_117_12)"/>
<rect width="1280" height="721" fill="black" fill-opacity="0.2"/>
<rect width="1280" height="721" fill="black" fill-opacity="0.2"/>
<rect width="1280" height="721" fill="black" fill-opacity="0.2"/>
<path d="M382.704 372.352C380.72 372.352 378.416 371.968 375.792 371.2C373.232 370.432 370.544 369.504 367.728 368.416C364.912 367.328 362.16 366.24 359.472 365.152C357.424 366.432 355.44 367.424 353.52 368.128C351.664 368.832 349.904 369.184 348.24 369.184C346.128 369.184 344.4 368.672 343.056 367.648C341.712 366.624 341.04 365.248 341.04 363.52C341.04 362.048 341.648 360.864 342.864 359.968C344.08 359.072 346.064 358.624 348.816 358.624C350.224 358.624 351.792 358.752 353.52 359.008C355.248 359.2 357.104 359.488 359.088 359.872C362.032 357.376 364.976 354.24 367.92 350.464C370.928 346.688 373.68 342.592 376.176 338.176C378.736 333.696 380.784 329.184 382.32 324.64C383.856 320.096 384.624 315.808 384.624 311.776C384.624 307.104 383.664 303.712 381.744 301.6C379.824 299.424 377.36 298.336 374.352 298.336C371.472 298.336 369.072 299.2 367.152 300.928C365.232 302.656 363.792 304.896 362.832 307.648C361.872 310.336 361.392 313.184 361.392 316.192C361.392 317.664 361.488 318.976 361.68 320.128C361.936 321.28 362.352 322.56 362.928 323.968C362.736 323.968 362.512 323.968 362.256 323.968C362.064 323.904 361.84 323.872 361.584 323.872C359.664 323.552 358 322.752 356.592 321.472C355.184 320.128 354.48 317.92 354.48 314.848C354.48 311.392 355.376 308.16 357.168 305.152C358.96 302.08 361.424 299.616 364.56 297.76C367.76 295.84 371.44 294.88 375.6 294.88C379.184 294.88 382.224 295.712 384.72 297.376C387.216 298.976 389.104 301.184 390.384 304C391.664 306.752 392.304 309.856 392.304 313.312C392.304 316.064 391.92 318.912 391.152 321.856C390.448 324.8 389.488 327.712 388.272 330.592C386.608 334.368 384.528 338.144 382.032 341.92C379.6 345.632 376.912 349.152 373.968 352.48C371.024 355.744 368.016 358.624 364.944 361.12C369.296 362.08 373.168 362.88 376.56 363.52C380.016 364.16 382.832 364.48 385.008 364.48C386.48 364.48 387.76 364.288 388.848 363.904C390 363.456 391.504 362.72 393.36 361.696C392.4 365.344 391.056 368.032 389.328 369.76C387.664 371.488 385.456 372.352 382.704 372.352ZM348.048 365.728C349.008 365.728 350 365.504 351.024 365.056C352.112 364.672 353.232 364.096 354.384 363.328C353.104 362.944 351.888 362.624 350.736 362.368C349.648 362.112 348.72 361.984 347.952 361.984C346.736 361.984 345.904 362.208 345.456 362.656C345.072 363.04 344.88 363.424 344.88 363.808C344.88 364.32 345.2 364.768 345.84 365.152C346.544 365.536 347.28 365.728 348.048 365.728ZM404.012 364.96C402.732 364.96 401.772 364.64 401.132 364C400.492 363.296 400.172 362.528 400.172 361.696C400.172 360.992 400.492 360.288 401.132 359.584C401.772 358.816 402.54 358.208 403.436 357.76C404.332 357.248 405.196 356.992 406.028 356.992C406.796 356.992 407.468 357.184 408.044 357.568C408.684 357.952 409.004 358.656 409.004 359.68C409.004 360.256 408.78 360.96 408.332 361.792C407.948 362.624 407.372 363.36 406.604 364C405.9 364.64 405.036 364.96 404.012 364.96ZM468.35 372.352C463.614 372.352 459.742 371.2 456.734 368.896C453.79 366.592 451.614 363.648 450.206 360.064C448.862 356.416 448.19 352.64 448.19 348.736C448.19 343.68 448.958 338.624 450.494 333.568C452.03 328.448 454.142 323.584 456.83 318.976C459.518 314.304 462.558 310.176 465.95 306.592C469.406 303.008 473.054 300.192 476.894 298.144C480.798 296.032 484.67 294.976 488.51 294.976C491.262 294.976 493.534 295.616 495.326 296.896C497.182 298.176 498.11 300.384 498.11 303.52C498.11 305.44 497.758 307.584 497.054 309.952C496.414 312.32 495.518 314.592 494.366 316.768C493.278 318.944 492.03 320.736 490.622 322.144C489.278 323.552 487.902 324.256 486.494 324.256C485.918 324.256 485.31 324.064 484.67 323.68C484.03 323.232 483.454 322.528 482.942 321.568C483.902 320.48 484.958 319.136 486.11 317.536C487.326 315.936 488.478 314.24 489.566 312.448C490.654 310.656 491.55 308.928 492.254 307.264C492.958 305.536 493.31 304 493.31 302.656C493.31 301.504 492.958 300.576 492.254 299.872C491.614 299.104 490.462 298.72 488.798 298.72C486.046 298.72 483.166 299.808 480.158 301.984C477.214 304.16 474.366 307.072 471.614 310.72C468.862 314.304 466.366 318.336 464.126 322.816C461.886 327.232 460.126 331.808 458.846 336.544C457.566 341.216 456.926 345.664 456.926 349.888C456.926 352.96 457.374 355.904 458.27 358.72C459.166 361.536 460.638 363.808 462.686 365.536C464.734 367.328 467.39 368.224 470.654 368.224C474.11 368.224 477.534 367.264 480.926 365.344C484.318 363.424 487.422 360.896 490.238 357.76C493.118 354.624 495.422 351.232 497.15 347.584L499.262 349.024C497.022 353.248 494.366 357.152 491.294 360.736C488.222 364.256 484.734 367.072 480.83 369.184C476.99 371.296 472.83 372.352 468.35 372.352ZM512.282 366.496C509.978 366.496 508.122 365.888 506.714 364.672C505.306 363.456 504.602 361.824 504.602 359.776C504.602 357.984 505.05 356.064 505.946 354.016C506.842 351.904 507.738 349.856 508.634 347.872C509.594 345.824 510.074 344 510.074 342.4C510.074 340.736 509.53 339.424 508.442 338.464C507.418 337.44 506.298 336.576 505.082 335.872C503.61 339.52 502.01 343.008 500.282 346.336C498.618 349.664 497.242 352.224 496.154 354.016L494.906 351.616C495.802 349.952 496.986 347.584 498.458 344.512C499.93 341.376 501.338 337.856 502.682 333.952C502.042 333.312 501.722 332.48 501.722 331.456C501.722 329.728 502.234 328.16 503.258 326.752C504.346 325.344 505.306 324.64 506.138 324.64C506.842 324.64 507.322 325.056 507.578 325.888C507.898 326.656 508.058 327.2 508.058 327.52C508.058 327.84 507.898 328.448 507.578 329.344C507.258 330.176 507.066 330.752 507.002 331.072C507.002 331.84 507.514 332.576 508.538 333.28C509.626 333.92 510.81 334.72 512.09 335.68C513.434 336.576 514.618 337.696 515.642 339.04C516.666 340.32 517.178 341.984 517.178 344.032C517.178 345.952 516.762 347.872 515.93 349.792C515.098 351.712 514.266 353.536 513.434 355.264C512.602 356.992 512.186 358.464 512.186 359.68C512.186 360.704 512.442 361.376 512.954 361.696C513.466 362.016 514.074 362.176 514.778 362.176C516.314 362.176 517.914 361.696 519.578 360.736C521.242 359.776 522.842 358.56 524.378 357.088C525.978 355.616 527.386 354.08 528.602 352.48C529.818 350.816 530.746 349.312 531.386 347.968L533.306 349.408C532.09 352.16 530.362 354.848 528.122 357.472C525.882 360.096 523.386 362.272 520.634 364C517.882 365.664 515.098 366.496 512.282 366.496ZM540.161 368.224C536.129 368.224 533.057 367.136 530.945 364.96C528.832 362.784 527.776 360.064 527.776 356.8C527.776 353.92 528.48 350.912 529.889 347.776C531.361 344.576 533.313 341.6 535.745 338.848C538.177 336.032 540.833 333.76 543.713 332.032C546.657 330.24 549.569 329.344 552.449 329.344C554.049 329.344 555.553 329.76 556.961 330.592C558.433 331.424 559.169 333.088 559.169 335.584C559.169 338.016 558.433 340.32 556.961 342.496C555.553 344.608 553.665 346.496 551.297 348.16C548.993 349.824 546.401 351.2 543.521 352.288C540.705 353.312 537.889 353.952 535.073 354.208C535.009 354.592 534.945 354.976 534.881 355.36C534.817 355.744 534.785 356.256 534.785 356.896C534.785 357.408 534.849 358.112 534.977 359.008C535.169 359.84 535.489 360.704 535.937 361.6C536.449 362.432 537.217 363.136 538.241 363.712C539.265 364.288 540.609 364.576 542.273 364.576C544.961 364.576 547.649 363.808 550.337 362.272C553.089 360.736 555.649 358.72 558.017 356.224C560.385 353.664 562.369 350.848 563.969 347.776L565.601 349.12C563.873 352.96 561.665 356.32 558.977 359.2C556.289 362.016 553.313 364.224 550.049 365.824C546.849 367.424 543.553 368.224 540.161 368.224ZM535.937 351.232C537.601 350.912 539.489 350.272 541.601 349.312C543.713 348.288 545.729 347.04 547.649 345.568C549.569 344.032 551.137 342.368 552.353 340.576C553.633 338.784 554.273 336.96 554.273 335.104C554.273 334.4 554.145 333.888 553.889 333.568C553.633 333.248 553.185 333.088 552.545 333.088C551.009 333.088 549.409 333.664 547.745 334.816C546.145 335.904 544.545 337.344 542.945 339.136C541.409 340.864 540.033 342.816 538.817 344.992C537.601 347.104 536.641 349.184 535.937 351.232ZM566.838 368.512C564.79 368.512 563.03 367.808 561.558 366.4C560.022 365.056 559.254 363.008 559.254 360.256C559.254 357.952 559.766 355.488 560.79 352.864C561.814 350.24 563.222 347.648 565.014 345.088C566.806 342.528 568.854 340.192 571.158 338.08C573.462 335.968 575.894 334.272 578.454 332.992C581.078 331.712 583.67 331.072 586.23 331.072C588.918 331.072 591.158 331.776 592.95 333.184C594.806 334.528 595.734 336.32 595.734 338.56C595.734 340.288 595.19 341.504 594.102 342.208C593.014 342.912 591.67 343.136 590.07 342.88C590.198 342.368 590.294 341.824 590.358 341.248C590.486 340.608 590.55 340 590.55 339.424C590.55 338.08 590.262 336.896 589.686 335.872C589.11 334.848 587.99 334.336 586.326 334.336C584.534 334.336 582.71 334.944 580.854 336.16C578.998 337.376 577.206 338.976 575.478 340.96C573.75 342.944 572.214 345.12 570.87 347.488C569.526 349.856 568.47 352.192 567.702 354.496C566.934 356.8 566.55 358.848 566.55 360.64C566.55 362.816 567.35 363.904 568.95 363.904C570.422 363.904 572.022 363.2 573.75 361.792C575.542 360.384 577.334 358.592 579.126 356.416C580.982 354.24 582.742 352.032 584.406 349.792C586.07 347.488 587.51 345.472 588.726 343.744C588.982 343.424 589.206 343.264 589.398 343.264C589.718 343.328 590.23 343.488 590.934 343.744C591.638 343.936 592.278 344.224 592.854 344.608C593.43 344.992 593.718 345.504 593.718 346.144C593.718 346.784 593.43 347.616 592.854 348.64C592.278 349.6 591.638 350.688 590.934 351.904C590.23 353.12 589.59 354.336 589.014 355.552C588.438 356.768 588.15 357.952 588.15 359.104C588.15 359.936 588.374 360.768 588.822 361.6C589.334 362.368 590.134 362.752 591.222 362.752C592.822 362.752 594.998 361.6 597.75 359.296C600.566 356.928 603.414 353.088 606.294 347.776L607.83 349.312C606.358 352.768 604.534 355.808 602.358 358.432C600.246 361.056 598.006 363.104 595.638 364.576C593.27 366.112 590.902 366.88 588.534 366.88C585.974 366.88 584.086 366.08 582.87 364.48C581.654 362.944 580.982 361.248 580.854 359.392C580.854 359.2 580.854 359.008 580.854 358.816C580.918 358.56 580.95 358.336 580.95 358.144C578.326 361.408 575.926 363.936 573.75 365.728C571.574 367.584 569.27 368.512 566.838 368.512ZM612.669 368.416C609.853 368.416 607.613 367.584 605.949 365.92C604.349 364.32 603.549 361.856 603.549 358.528C603.549 355.84 604.061 352.512 605.085 348.544C606.109 344.576 607.389 340.48 608.925 336.256C608.413 336.128 607.837 336.032 607.197 335.968C606.621 335.84 606.077 335.648 605.565 335.392V332.8C606.397 332.928 607.133 333.024 607.773 333.088C608.477 333.152 609.213 333.216 609.981 333.28C611.325 329.888 612.765 326.592 614.301 323.392C615.901 320.192 617.469 317.344 619.005 314.848C620.541 312.352 622.013 310.368 623.421 308.896C624.829 307.424 626.045 306.688 627.069 306.688C627.709 306.688 628.285 306.912 628.797 307.36C629.309 307.808 629.565 308.448 629.565 309.28C629.565 310.496 628.893 312.32 627.549 314.752C626.269 317.12 624.637 319.936 622.653 323.2C620.733 326.4 618.877 329.856 617.085 333.568C617.597 333.568 618.109 333.568 618.621 333.568C619.197 333.568 619.741 333.568 620.253 333.568C622.813 333.568 625.245 333.536 627.549 333.472C629.853 333.344 632.189 333.152 634.557 332.896V335.584C631.037 335.968 627.805 336.256 624.861 336.448C621.981 336.64 619.293 336.736 616.797 336.736C616.605 336.736 616.381 336.736 616.125 336.736C615.933 336.736 615.741 336.736 615.549 336.736C614.141 340 612.925 343.328 611.901 346.72C610.941 350.112 610.461 353.408 610.461 356.608C610.461 359.296 610.877 361.216 611.709 362.368C612.541 363.456 613.885 364 615.741 364C618.941 364 622.205 362.528 625.533 359.584C628.861 356.64 631.741 352.672 634.173 347.68L635.517 348.64C633.917 352.352 631.901 355.712 629.469 358.72C627.037 361.728 624.381 364.096 621.501 365.824C618.685 367.552 615.741 368.416 612.669 368.416ZM642.536 368.224C638.504 368.224 635.432 367.136 633.32 364.96C631.207 362.784 630.151 360.064 630.151 356.8C630.151 353.92 630.855 350.912 632.264 347.776C633.736 344.576 635.688 341.6 638.12 338.848C640.552 336.032 643.208 333.76 646.088 332.032C649.032 330.24 651.944 329.344 654.824 329.344C656.424 329.344 657.928 329.76 659.336 330.592C660.808 331.424 661.544 333.088 661.544 335.584C661.544 338.016 660.808 340.32 659.336 342.496C657.928 344.608 656.04 346.496 653.672 348.16C651.368 349.824 648.776 351.2 645.896 352.288C643.08 353.312 640.264 353.952 637.448 354.208C637.384 354.592 637.32 354.976 637.256 355.36C637.192 355.744 637.16 356.256 637.16 356.896C637.16 357.408 637.224 358.112 637.352 359.008C637.544 359.84 637.864 360.704 638.312 361.6C638.824 362.432 639.592 363.136 640.616 363.712C641.64 364.288 642.984 364.576 644.648 364.576C647.336 364.576 650.024 363.808 652.712 362.272C655.464 360.736 658.024 358.72 660.392 356.224C662.76 353.664 664.744 350.848 666.344 347.776L667.976 349.12C666.248 352.96 664.04 356.32 661.352 359.2C658.664 362.016 655.688 364.224 652.424 365.824C649.224 367.424 645.928 368.224 642.536 368.224ZM638.312 351.232C639.976 350.912 641.864 350.272 643.976 349.312C646.088 348.288 648.104 347.04 650.024 345.568C651.944 344.032 653.512 342.368 654.728 340.576C656.008 338.784 656.648 336.96 656.648 335.104C656.648 334.4 656.52 333.888 656.264 333.568C656.008 333.248 655.56 333.088 654.92 333.088C653.384 333.088 651.784 333.664 650.12 334.816C648.52 335.904 646.92 337.344 645.32 339.136C643.784 340.864 642.408 342.816 641.192 344.992C639.976 347.104 639.016 349.184 638.312 351.232ZM710.951 372.352C707.431 372.352 704.231 371.392 701.351 369.472C698.471 367.616 696.167 364.896 694.439 361.312C692.711 357.728 691.847 353.408 691.847 348.352C691.847 343.424 692.615 338.432 694.151 333.376C695.687 328.32 697.767 323.52 700.391 318.976C703.079 314.368 706.151 310.272 709.607 306.688C713.063 303.04 716.679 300.192 720.455 298.144C724.295 296.032 728.135 294.976 731.975 294.976C734.663 294.976 736.807 295.52 738.406 296.608C740.007 297.632 741.159 299.008 741.863 300.736C742.567 302.4 742.919 304.192 742.919 306.112C742.919 308.352 742.503 310.592 741.671 312.832C740.903 315.008 739.847 316.832 738.503 318.304C737.159 319.776 735.687 320.512 734.087 320.512C733.383 320.512 732.711 320.32 732.071 319.936C731.495 319.488 730.951 318.72 730.439 317.632C731.335 316.992 732.359 315.872 733.511 314.272C734.727 312.608 735.783 310.784 736.679 308.8C737.575 306.816 738.023 305.024 738.023 303.424C738.023 302.08 737.607 300.96 736.775 300.064C735.943 299.168 734.567 298.72 732.647 298.72C729.767 298.72 726.823 299.808 723.815 301.984C720.807 304.16 717.927 307.072 715.175 310.72C712.423 314.304 709.927 318.336 707.687 322.816C705.447 327.296 703.687 331.872 702.407 336.544C701.127 341.152 700.487 345.536 700.487 349.696C700.487 355.52 701.735 360.064 704.231 363.328C706.727 366.592 709.767 368.224 713.351 368.224C715.911 368.224 718.311 367.36 720.551 365.632C722.791 363.904 724.743 361.664 726.407 358.912C728.135 356.096 729.511 353.056 730.535 349.792C731.559 346.528 732.199 343.36 732.455 340.288C730.599 339.904 728.871 339.648 727.271 339.52C725.671 339.328 724.039 339.232 722.375 339.232C721.415 339.232 720.423 339.264 719.399 339.328C718.439 339.328 717.383 339.328 716.231 339.328C716.743 337.216 717.607 335.712 718.823 334.816C720.039 333.856 721.575 333.376 723.431 333.376C725.351 333.376 727.271 333.696 729.191 334.336C731.175 334.912 733.127 335.552 735.047 336.256C737.031 336.96 738.887 337.504 740.615 337.888L739.75 340.96C738.599 344.352 737.639 347.232 736.871 349.6C736.167 351.968 735.591 354.016 735.143 355.744C734.759 357.408 734.503 358.912 734.375 360.256C734.247 361.6 734.183 362.912 734.183 364.192C734.183 365.472 734.215 366.784 734.279 368.128C734.343 369.472 734.407 371.008 734.471 372.736C732.871 372.416 731.623 371.872 730.727 371.104C729.831 370.336 729.223 369.408 728.903 368.32C728.583 367.232 728.423 366.144 728.423 365.056C728.423 364.608 728.423 364.16 728.423 363.712C728.487 363.264 728.583 362.784 728.711 362.272C726.471 365.216 723.879 367.616 720.935 369.472C717.991 371.392 714.663 372.352 710.951 372.352ZM749.276 368.512C747.228 368.512 745.468 367.808 743.995 366.4C742.459 365.056 741.691 363.008 741.691 360.256C741.691 357.952 742.203 355.488 743.227 352.864C744.251 350.24 745.66 347.648 747.452 345.088C749.244 342.528 751.292 340.192 753.596 338.08C755.9 335.968 758.332 334.272 760.892 332.992C763.516 331.712 766.108 331.072 768.668 331.072C771.356 331.072 773.596 331.776 775.388 333.184C777.244 334.528 778.172 336.32 778.172 338.56C778.172 340.288 777.628 341.504 776.54 342.208C775.452 342.912 774.108 343.136 772.508 342.88C772.636 342.368 772.732 341.824 772.796 341.248C772.924 340.608 772.988 340 772.988 339.424C772.988 338.08 772.7 336.896 772.124 335.872C771.548 334.848 770.428 334.336 768.764 334.336C766.972 334.336 765.148 334.944 763.292 336.16C761.436 337.376 759.644 338.976 757.916 340.96C756.188 342.944 754.652 345.12 753.308 347.488C751.964 349.856 750.908 352.192 750.14 354.496C749.372 356.8 748.988 358.848 748.988 360.64C748.988 362.816 749.788 363.904 751.388 363.904C752.86 363.904 754.46 363.2 756.188 361.792C757.98 360.384 759.772 358.592 761.564 356.416C763.42 354.24 765.18 352.032 766.844 349.792C768.508 347.488 769.948 345.472 771.164 343.744C771.42 343.424 771.644 343.264 771.836 343.264C772.156 343.328 772.668 343.488 773.372 343.744C774.076 343.936 774.716 344.224 775.292 344.608C775.868 344.992 776.156 345.504 776.156 346.144C776.156 346.784 775.868 347.616 775.292 348.64C774.716 349.6 774.076 350.688 773.372 351.904C772.668 353.12 772.028 354.336 771.452 355.552C770.876 356.768 770.588 357.952 770.588 359.104C770.588 359.936 770.812 360.768 771.26 361.6C771.772 362.368 772.572 362.752 773.66 362.752C775.26 362.752 777.436 361.6 780.188 359.296C783.004 356.928 785.852 353.088 788.732 347.776L790.268 349.312C788.796 352.768 786.972 355.808 784.796 358.432C782.684 361.056 780.444 363.104 778.076 364.576C775.708 366.112 773.34 366.88 770.972 366.88C768.412 366.88 766.524 366.08 765.308 364.48C764.092 362.944 763.42 361.248 763.292 359.392C763.292 359.2 763.292 359.008 763.292 358.816C763.356 358.56 763.388 358.336 763.388 358.144C760.764 361.408 758.364 363.936 756.188 365.728C754.012 367.584 751.708 368.512 749.276 368.512ZM795.203 366.88C792.323 366.88 790.179 365.92 788.771 364C787.427 362.016 786.755 359.52 786.755 356.512C786.755 353.44 787.331 349.824 788.483 345.664C789.635 341.504 791.139 337.12 792.995 332.512C794.915 327.84 796.995 323.296 799.234 318.88C801.539 314.464 803.811 310.432 806.051 306.784C808.355 303.136 810.467 300.256 812.387 298.144C814.371 295.968 815.939 294.88 817.091 294.88C817.859 294.88 818.499 295.296 819.011 296.128C819.587 296.96 820.035 297.984 820.355 299.2C820.675 300.352 820.835 301.44 820.835 302.464C820.835 304.192 820.387 306.432 819.491 309.184C818.659 311.872 817.443 314.88 815.843 318.208C814.307 321.536 812.451 324.928 810.275 328.384C808.163 331.84 805.827 335.136 803.267 338.272C800.707 341.408 797.955 344.128 795.011 346.432C794.755 348.032 794.499 349.696 794.243 351.424C794.051 353.152 793.955 354.688 793.955 356.032C793.955 360.64 795.331 362.944 798.083 362.944C799.555 362.944 801.027 362.336 802.499 361.12C804.035 359.84 805.507 358.208 806.915 356.224C808.387 354.24 809.667 352.096 810.755 349.792C811.395 346.528 812.355 343.008 813.635 339.232C814.915 335.456 816.387 331.648 818.051 327.808C819.779 323.968 821.571 320.32 823.427 316.864C825.347 313.344 827.235 310.24 829.091 307.552C830.947 304.8 832.643 302.624 834.179 301.024C835.715 299.424 836.995 298.624 838.019 298.624C838.787 298.624 839.459 299.072 840.035 299.968C840.611 300.8 841.027 301.824 841.283 303.04C841.603 304.192 841.763 305.312 841.763 306.4C841.763 308.448 841.219 311.136 840.131 314.464C839.043 317.728 837.475 321.28 835.427 325.12C833.443 328.96 831.011 332.768 828.131 336.544C825.315 340.256 822.115 343.552 818.531 346.432C818.147 347.968 817.859 349.568 817.667 351.232C817.475 352.896 817.379 354.4 817.379 355.744C817.379 360.544 818.723 362.944 821.411 362.944C823.075 362.944 824.771 362.176 826.499 360.64C828.227 359.104 829.859 357.184 831.395 354.88C832.931 352.512 834.243 350.08 835.331 347.584L837.347 348.736C834.723 354.304 831.843 358.72 828.707 361.984C825.571 365.248 822.179 366.88 818.531 366.88C815.587 366.88 813.443 365.856 812.099 363.808C810.755 361.76 810.115 359.136 810.179 355.936C808.003 359.392 805.667 362.08 803.171 364C800.675 365.92 798.019 366.88 795.203 366.88ZM796.451 341.728C798.627 339.488 800.707 336.992 802.691 334.24C804.739 331.424 806.595 328.576 808.259 325.696C809.987 322.752 811.491 319.904 812.771 317.152C814.115 314.4 815.139 311.936 815.843 309.76C816.611 307.584 816.995 305.888 816.995 304.672C816.995 304.224 816.963 303.904 816.899 303.712C816.835 303.52 816.739 303.392 816.611 303.328C816.163 303.328 815.331 304.096 814.115 305.632C812.963 307.104 811.587 309.152 809.987 311.776C808.451 314.336 806.851 317.28 805.187 320.608C803.523 323.872 801.923 327.328 800.387 330.976C798.851 334.624 797.539 338.208 796.451 341.728ZM819.779 341.824C822.403 339.072 824.835 336.096 827.075 332.896C829.315 329.696 831.235 326.528 832.835 323.392C834.435 320.192 835.683 317.28 836.579 314.656C837.475 312.032 837.923 309.984 837.923 308.512C837.923 308.064 837.891 307.776 837.827 307.648C837.827 307.456 837.763 307.296 837.635 307.168C836.995 307.168 835.971 308.16 834.562 310.144C833.155 312.064 831.555 314.656 829.763 317.92C827.971 321.184 826.179 324.896 824.387 329.056C822.659 333.152 821.123 337.408 819.779 341.824ZM843.911 368.224C839.879 368.224 836.807 367.136 834.695 364.96C832.582 362.784 831.526 360.064 831.526 356.8C831.526 353.92 832.23 350.912 833.639 347.776C835.111 344.576 837.063 341.6 839.495 338.848C841.927 336.032 844.583 333.76 847.463 332.032C850.407 330.24 853.319 329.344 856.199 329.344C857.799 329.344 859.303 329.76 860.711 330.592C862.183 331.424 862.919 333.088 862.919 335.584C862.919 338.016 862.183 340.32 860.711 342.496C859.303 344.608 857.415 346.496 855.047 348.16C852.743 349.824 850.151 351.2 847.271 352.288C844.455 353.312 841.639 353.952 838.823 354.208C838.759 354.592 838.695 354.976 838.631 355.36C838.567 355.744 838.535 356.256 838.535 356.896C838.535 357.408 838.599 358.112 838.727 359.008C838.919 359.84 839.239 360.704 839.687 361.6C840.199 362.432 840.967 363.136 841.991 363.712C843.015 364.288 844.359 364.576 846.023 364.576C848.711 364.576 851.399 363.808 854.087 362.272C856.839 360.736 859.399 358.72 861.767 356.224C864.135 353.664 866.119 350.848 867.719 347.776L869.351 349.12C867.623 352.96 865.415 356.32 862.727 359.2C860.039 362.016 857.063 364.224 853.799 365.824C850.599 367.424 847.303 368.224 843.911 368.224ZM839.687 351.232C841.351 350.912 843.239 350.272 845.351 349.312C847.463 348.288 849.479 347.04 851.399 345.568C853.319 344.032 854.887 342.368 856.103 340.576C857.383 338.784 858.023 336.96 858.023 335.104C858.023 334.4 857.895 333.888 857.639 333.568C857.383 333.248 856.935 333.088 856.295 333.088C854.759 333.088 853.159 333.664 851.495 334.816C849.895 335.904 848.295 337.344 846.695 339.136C845.159 340.864 843.783 342.816 842.567 344.992C841.351 347.104 840.391 349.184 839.687 351.232ZM882.876 366.496C880.572 366.496 878.716 365.888 877.308 364.672C875.9 363.456 875.196 361.824 875.196 359.776C875.196 357.984 875.644 356.064 876.54 354.016C877.436 351.904 878.332 349.856 879.228 347.872C880.188 345.824 880.668 344 880.668 342.4C880.668 340.736 880.124 339.424 879.036 338.464C878.012 337.44 876.892 336.576 875.676 335.872C874.204 339.52 872.604 343.008 870.876 346.336C869.212 349.664 867.836 352.224 866.748 354.016L865.5 351.616C866.396 349.952 867.58 347.584 869.052 344.512C870.524 341.376 871.932 337.856 873.276 333.952C872.636 333.312 872.316 332.48 872.316 331.456C872.316 329.728 872.828 328.16 873.852 326.752C874.94 325.344 875.9 324.64 876.732 324.64C877.436 324.64 877.916 325.056 878.172 325.888C878.492 326.656 878.652 327.2 878.652 327.52C878.652 327.84 878.492 328.448 878.172 329.344C877.852 330.176 877.66 330.752 877.596 331.072C877.596 331.84 878.108 332.576 879.132 333.28C880.22 333.92 881.404 334.72 882.684 335.68C884.028 336.576 885.212 337.696 886.236 339.04C887.26 340.32 887.772 341.984 887.772 344.032C887.772 345.952 887.356 347.872 886.524 349.792C885.692 351.712 884.86 353.536 884.028 355.264C883.196 356.992 882.78 358.464 882.78 359.68C882.78 360.704 883.036 361.376 883.548 361.696C884.06 362.016 884.668 362.176 885.372 362.176C886.908 362.176 888.508 361.696 890.172 360.736C891.836 359.776 893.436 358.56 894.972 357.088C896.572 355.616 897.98 354.08 899.196 352.48C900.412 350.816 901.34 349.312 901.98 347.968L903.9 349.408C902.684 352.16 900.956 354.848 898.716 357.472C896.476 360.096 893.98 362.272 891.228 364C888.476 365.664 885.692 366.496 882.876 366.496ZM904.322 390.88C902.722 390.88 901.25 390.4 899.906 389.44C898.626 388.48 897.986 387.008 897.986 385.024C897.986 382.976 898.562 381.12 899.714 379.456C900.866 377.856 902.37 376.384 904.226 375.04C906.082 373.696 908.098 372.448 910.274 371.296C912.514 370.144 914.722 369.024 916.898 367.936C917.666 365.952 918.498 363.52 919.394 360.64C920.29 357.76 921.09 354.912 921.794 352.096C919.81 355.04 917.666 357.632 915.362 359.872C913.122 362.048 910.626 363.136 907.874 363.136C906.722 363.136 905.506 362.912 904.226 362.464C903.01 361.952 901.986 361.12 901.154 359.968C900.322 358.752 899.906 357.184 899.906 355.264C899.906 353.536 900.194 351.488 900.77 349.12C901.41 346.752 902.178 344.448 903.074 342.208C904.034 339.968 904.994 338.112 905.954 336.64C906.978 335.104 907.874 334.336 908.642 334.336C908.962 334.336 909.474 334.464 910.178 334.72C910.882 334.976 911.554 335.328 912.194 335.776C912.898 336.224 913.314 336.704 913.442 337.216C912.866 337.984 912.226 339.104 911.522 340.576C910.818 342.048 910.146 343.68 909.506 345.472C908.866 347.264 908.322 349.024 907.874 350.752C907.49 352.48 907.298 353.952 907.298 355.168C907.298 356.192 907.49 357.056 907.874 357.76C908.322 358.464 909.122 358.816 910.274 358.816C911.618 358.816 913.026 358.24 914.498 357.088C916.034 355.936 917.538 354.464 919.01 352.672C920.482 350.816 921.794 348.928 922.946 347.008C923.138 346.432 923.298 345.728 923.426 344.896C923.554 344 923.746 343.072 924.002 342.112C924.258 341.088 924.77 340.096 925.538 339.136C926.37 338.112 927.522 337.6 928.994 337.6C929.442 337.6 929.858 337.632 930.242 337.696C930.69 337.76 931.202 337.856 931.778 337.984C931.778 338.944 931.426 340.832 930.722 343.648C930.082 346.4 929.218 349.632 928.13 353.344C927.042 356.992 925.794 360.672 924.386 364.384C927.202 363.296 930.05 361.472 932.93 358.912C935.81 356.288 938.146 352.704 939.938 348.16L941.474 349.312C940.514 352.512 939.042 355.296 937.058 357.664C935.138 359.968 932.962 361.952 930.53 363.616C928.098 365.216 925.666 366.56 923.234 367.648C921.506 371.808 919.65 375.648 917.666 379.168C915.682 382.752 913.57 385.6 911.33 387.712C909.154 389.824 906.818 390.88 904.322 390.88ZM903.554 387.52C904.706 387.52 906.37 386.24 908.546 383.68C910.786 381.12 913.058 377.088 915.362 371.584C913.122 372.736 910.946 373.984 908.834 375.328C906.722 376.736 904.962 378.208 903.554 379.744C902.146 381.28 901.442 382.944 901.442 384.736C901.442 385.312 901.602 385.92 901.922 386.56C902.242 387.2 902.786 387.52 903.554 387.52Z" fill="white"/>
<defs>
<linearGradient id="paint0_linear_117_12" x1="640" y1="0" x2="640" y2="721" gradientUnits="userSpaceOnUse">
<stop stop-color="#5D2BC9"/>
<stop offset="0.9999" stop-color="#DBBF2E" stop-opacity="0.7"/>
</linearGradient>
</defs>
</svg>
