<svg width="266" height="48" viewBox="0 0 266 48" fill="none" xmlns="http://www.w3.org/2000/svg">
<path d="M21.2444 2H34.6504C36.9102 2 38.908 3.35741 39.6176 5.36991L40.7529 8.57143H48.9079C52.7616 8.57143 55.8947 11.5183 55.8947 15.1429V41.4286C55.8947 45.0531 52.7616 48 48.9079 48H6.98684C3.1277 48 0 45.0531 0 41.4286V15.1429C0 11.5183 3.1277 8.57143 6.98684 8.57143H15.1418L16.2772 5.36991C16.9868 3.35741 18.9846 2 21.2444 2ZM27.9474 38.1429C33.7334 38.1429 38.4276 33.7277 38.4276 28.2857C38.4276 22.7513 33.7334 18.4286 27.9474 18.4286C22.0631 18.4286 17.4671 22.7513 17.4671 28.2857C17.4671 33.7277 22.0631 38.1429 27.9474 38.1429Z" fill="#74DDF9"/>
<path d="M63.32 10.496C64.664 10.336 66.104 10.224 67.64 10.16C69.208 10.064 70.856 10.016 72.584 10.016C74.664 10.016 76.52 10.272 78.152 10.784C79.784 11.296 81.16 12 82.28 12.896C83.4 13.792 84.248 14.88 84.824 16.16C85.4 17.408 85.688 18.768 85.688 20.24C85.688 22.032 85.336 23.632 84.632 25.04C83.96 26.416 83 27.584 81.752 28.544C80.536 29.504 79.064 30.24 77.336 30.752C75.608 31.232 73.704 31.472 71.624 31.472C70.28 31.472 69.032 31.424 67.88 31.328V44H63.32V10.496ZM72.2 27.68C75.08 27.68 77.288 27.056 78.824 25.808C80.392 24.528 81.176 22.8 81.176 20.624C81.176 18.544 80.424 16.896 78.92 15.68C77.448 14.464 75.304 13.856 72.488 13.856C71.624 13.856 70.808 13.872 70.04 13.904C69.272 13.936 68.552 13.984 67.88 14.048V27.44C68.392 27.504 69 27.568 69.704 27.632C70.44 27.664 71.272 27.68 72.2 27.68ZM93.0506 44H88.7306V19.04H93.0506V44ZM90.8906 14.768C90.0586 14.768 89.3386 14.48 88.7306 13.904C88.1546 13.296 87.8666 12.576 87.8666 11.744C87.8666 10.816 88.1386 10.08 88.6826 9.536C89.2266 8.992 89.9626 8.72 90.8906 8.72C91.7226 8.72 92.4266 9.024 93.0026 9.632C93.6106 10.208 93.9146 10.912 93.9146 11.744C93.9146 12.672 93.6426 13.408 93.0986 13.952C92.5546 14.496 91.8186 14.768 90.8906 14.768ZM104.251 31.328L95.7066 21.44L99.0666 18.512L106.795 28.496L114.379 18.704L117.595 21.44L109.291 31.136L118.411 41.648L115.147 44.432L106.747 34.016L98.4426 44.336L95.3706 41.648L104.251 31.328ZM118.348 31.664C118.348 29.808 118.636 28.08 119.212 26.48C119.788 24.848 120.588 23.44 121.612 22.256C122.668 21.072 123.916 20.144 125.356 19.472C126.828 18.8 128.428 18.464 130.156 18.464C131.596 18.464 132.892 18.72 134.044 19.232C135.228 19.712 136.252 20.32 137.116 21.056V19.04H141.052V37.952C141.052 39.168 141.34 39.968 141.916 40.352C142.524 40.704 143.18 40.88 143.884 40.88L142.972 44.24C139.9 44.24 138.044 42.992 137.404 40.496C137.02 41.008 136.572 41.52 136.06 42.032C135.58 42.512 135.02 42.944 134.38 43.328C133.74 43.712 133.02 44.016 132.22 44.24C131.42 44.464 130.54 44.576 129.58 44.576C128.012 44.576 126.54 44.272 125.164 43.664C123.82 43.056 122.636 42.192 121.612 41.072C120.62 39.952 119.82 38.608 119.212 37.04C118.636 35.44 118.348 33.648 118.348 31.664ZM130.54 40.736C131.756 40.736 132.908 40.448 133.996 39.872C135.084 39.296 135.996 38.544 136.732 37.616V24.224C135.868 23.616 134.908 23.136 133.852 22.784C132.828 22.4 131.74 22.208 130.588 22.208C129.436 22.208 128.38 22.432 127.42 22.88C126.46 23.328 125.628 23.968 124.924 24.8C124.252 25.6 123.724 26.576 123.34 27.728C122.956 28.88 122.764 30.144 122.764 31.52C122.764 32.864 122.956 34.112 123.34 35.264C123.724 36.384 124.268 37.36 124.972 38.192C125.676 38.992 126.492 39.616 127.42 40.064C128.38 40.512 129.42 40.736 130.54 40.736ZM167.717 44.576L163.541 35.456C162.485 33.184 161.157 31.568 159.557 30.608C157.957 29.648 155.909 29.168 153.413 29.168H152.693V44H148.133V10.496C149.861 10.336 151.477 10.224 152.981 10.16C154.517 10.064 156.181 10.016 157.973 10.016C160.021 10.016 161.813 10.24 163.349 10.688C164.885 11.104 166.165 11.712 167.189 12.512C168.213 13.312 168.981 14.256 169.493 15.344C170.037 16.432 170.309 17.632 170.309 18.944C170.309 21.28 169.605 23.168 168.197 24.608C166.821 26.016 164.821 27.072 162.197 27.776C162.837 28.064 163.429 28.4 163.973 28.784C164.517 29.136 165.029 29.584 165.509 30.128C165.989 30.64 166.453 31.264 166.901 32C167.381 32.736 167.861 33.632 168.341 34.688L171.989 42.56L167.717 44.576ZM157.973 13.856C156.885 13.856 155.909 13.872 155.045 13.904C154.181 13.936 153.397 13.984 152.693 14.048V25.328H157.973C160.277 25.328 162.149 24.816 163.589 23.792C165.029 22.768 165.749 21.296 165.749 19.376C165.749 17.776 165.077 16.464 163.733 15.44C162.389 14.384 160.469 13.856 157.973 13.856ZM193.806 31.52C193.806 30.272 193.598 29.088 193.182 27.968C192.798 26.848 192.238 25.872 191.502 25.04C190.798 24.208 189.95 23.552 188.958 23.072C187.998 22.56 186.942 22.304 185.79 22.304C183.262 22.304 181.294 23.136 179.886 24.8C178.478 26.464 177.773 28.672 177.773 31.424C177.773 32.672 177.966 33.872 178.35 35.024C178.766 36.144 179.326 37.136 180.03 38C180.766 38.832 181.614 39.504 182.574 40.016C183.566 40.496 184.638 40.736 185.79 40.736C187.038 40.736 188.158 40.512 189.15 40.064C190.142 39.616 190.974 38.992 191.646 38.192C192.35 37.36 192.878 36.384 193.23 35.264C193.614 34.144 193.806 32.896 193.806 31.52ZM173.358 31.52C173.358 29.504 173.678 27.696 174.318 26.096C174.958 24.464 175.822 23.088 176.91 21.968C178.03 20.848 179.342 19.984 180.846 19.376C182.382 18.768 184.03 18.464 185.79 18.464C187.518 18.464 189.134 18.768 190.638 19.376C192.174 19.984 193.502 20.848 194.622 21.968C195.742 23.088 196.622 24.448 197.262 26.048C197.902 27.648 198.222 29.44 198.222 31.424C198.222 33.408 197.902 35.216 197.262 36.848C196.654 38.448 195.79 39.824 194.67 40.976C193.55 42.128 192.222 43.024 190.686 43.664C189.182 44.272 187.55 44.576 185.79 44.576C183.998 44.576 182.334 44.256 180.798 43.616C179.294 42.976 177.982 42.08 176.862 40.928C175.774 39.776 174.91 38.4 174.27 36.8C173.662 35.2 173.358 33.44 173.358 31.52ZM220.493 31.52C220.493 30.272 220.285 29.088 219.869 27.968C219.485 26.848 218.925 25.872 218.189 25.04C217.485 24.208 216.637 23.552 215.645 23.072C214.685 22.56 213.629 22.304 212.477 22.304C209.949 22.304 207.981 23.136 206.573 24.8C205.165 26.464 204.461 28.672 204.461 31.424C204.461 32.672 204.653 33.872 205.037 35.024C205.453 36.144 206.013 37.136 206.717 38C207.453 38.832 208.301 39.504 209.261 40.016C210.253 40.496 211.325 40.736 212.477 40.736C213.725 40.736 214.845 40.512 215.837 40.064C216.829 39.616 217.661 38.992 218.333 38.192C219.037 37.36 219.565 36.384 219.917 35.264C220.301 34.144 220.493 32.896 220.493 31.52ZM200.045 31.52C200.045 29.504 200.365 27.696 201.005 26.096C201.645 24.464 202.509 23.088 203.597 21.968C204.717 20.848 206.029 19.984 207.533 19.376C209.069 18.768 210.717 18.464 212.477 18.464C214.205 18.464 215.821 18.768 217.325 19.376C218.861 19.984 220.189 20.848 221.309 21.968C222.429 23.088 223.309 24.448 223.949 26.048C224.589 27.648 224.909 29.44 224.909 31.424C224.909 33.408 224.589 35.216 223.949 36.848C223.341 38.448 222.477 39.824 221.357 40.976C220.237 42.128 218.909 43.024 217.373 43.664C215.869 44.272 214.237 44.576 212.477 44.576C210.685 44.576 209.021 44.256 207.485 43.616C205.981 42.976 204.669 42.08 203.549 40.928C202.461 39.776 201.597 38.4 200.957 36.8C200.349 35.2 200.045 33.44 200.045 31.52ZM232.829 23.216C233.725 21.872 234.845 20.752 236.189 19.856C237.565 18.928 239.149 18.464 240.941 18.464C242.925 18.464 244.541 18.944 245.789 19.904C247.037 20.832 247.933 22.112 248.477 23.744C249.469 22.272 250.637 21.024 251.981 20C253.357 18.976 255.053 18.464 257.069 18.464C258.413 18.464 259.581 18.688 260.573 19.136C261.597 19.584 262.445 20.224 263.117 21.056C263.789 21.856 264.285 22.832 264.605 23.984C264.957 25.104 265.133 26.352 265.133 27.728V44H260.813V28.064C260.813 26.336 260.413 24.944 259.613 23.888C258.813 22.8 257.709 22.256 256.301 22.256C255.565 22.256 254.861 22.4 254.189 22.688C253.517 22.976 252.877 23.376 252.269 23.888C251.661 24.368 251.085 24.944 250.541 25.616C249.997 26.256 249.501 26.928 249.052 27.632V44H244.733V28.064C244.733 26.336 244.333 24.944 243.533 23.888C242.733 22.8 241.629 22.256 240.221 22.256C239.517 22.256 238.829 22.4 238.157 22.688C237.485 22.944 236.829 23.312 236.189 23.792C235.581 24.272 235.005 24.832 234.461 25.472C233.917 26.112 233.421 26.784 232.973 27.488V44H228.653V19.04H232.829V23.216Z" fill="#74DDF9"/>
</svg>
